<svg width="40" height="40" viewBox="0 0 40 40" fill="none" xmlns="http://www.w3.org/2000/svg">
<circle cx="20" cy="20" r="20" fill="#F9FAFB"/>
<path d="M20 29.7501C19.894 29.7501 19.7879 29.728 19.6889 29.683C19.3619 29.534 11.666 25.9651 10.432 19.6091C9.95498 17.1501 10.434 14.751 11.713 13.193C12.748 11.931 14.2359 11.26 16.0169 11.251C16.0259 11.251 16.0349 11.251 16.0429 11.251C18.0749 11.251 19.314 12.4081 19.999 13.3931C20.687 12.4041 21.9359 11.242 23.9809 11.251C25.7629 11.26 27.2519 11.931 28.2879 13.193C29.5649 14.75 30.0429 17.149 29.5649 19.61C28.3329 25.966 20.6359 29.5361 20.3089 29.6841C20.2119 29.7281 20.106 29.7501 20 29.7501ZM16.042 12.7501C16.036 12.7501 16.031 12.7501 16.025 12.7501C14.687 12.7561 13.627 13.225 12.873 14.144C11.874 15.361 11.513 17.297 11.905 19.323C12.86 24.247 18.593 27.447 20 28.165C21.407 27.447 27.14 24.247 28.094 19.323C28.488 17.296 28.127 15.36 27.13 14.144C26.376 13.226 25.3159 12.758 23.9749 12.751C23.9689 12.751 23.963 12.751 23.958 12.751C21.586 12.751 20.745 15.1281 20.711 15.2291C20.607 15.5321 20.3209 15.738 20.0009 15.738C19.9989 15.738 19.9979 15.738 19.9969 15.738C19.6759 15.737 19.3899 15.532 19.2879 15.227C19.2549 15.127 18.413 12.7501 16.042 12.7501Z" fill="#0D0E0F"/>
</svg>
