<svg width="19" height="18" viewBox="0 0 19 18" fill="none" xmlns="http://www.w3.org/2000/svg">
<path d="M12.7729 8.26589C12.9039 8.2309 13 8.11574 13 7.98074V3.81082C13 3.11082 12.52 2.50086 11.84 2.35086L1.83997 0.0407974C0.899966 -0.179203 0 0.540758 0 1.50076V16.0008C0 16.0808 9.76585e-06 16.1607 0.0100098 16.2307C0.0800098 17.3307 0.67002 17.9207 1.77002 17.9907C1.84002 18.0007 1.92 18.0008 2 18.0008H4.19995C4.36595 18.0008 4.5 17.8667 4.5 17.7007V14.1077C4.5 13.1117 5.18094 12.1879 6.16394 12.0279C7.41694 11.8239 8.5 12.7858 8.5 14.0008V17.7007C8.5 17.8667 8.63405 18.0008 8.80005 18.0008H10.3669C10.6299 18.0008 10.7531 17.6968 10.5811 17.4978C10.2051 17.0628 10 16.5487 10 15.9707V11.0308C10 9.71679 11.0559 8.71589 12.7729 8.26589ZM5 9.74978H4C3.586 9.74978 3.25 9.41378 3.25 8.99978C3.25 8.58578 3.586 8.24978 4 8.24978H5C5.414 8.24978 5.75 8.58578 5.75 8.99978C5.75 9.41378 5.414 9.74978 5 9.74978ZM5 6.74978H4C3.586 6.74978 3.25 6.41378 3.25 5.99978C3.25 5.58578 3.586 5.24978 4 5.24978H5C5.414 5.24978 5.75 5.58578 5.75 5.99978C5.75 6.41378 5.414 6.74978 5 6.74978ZM9 9.74978H8C7.586 9.74978 7.25 9.41378 7.25 8.99978C7.25 8.58578 7.586 8.24978 8 8.24978H9C9.414 8.24978 9.75 8.58578 9.75 8.99978C9.75 9.41378 9.414 9.74978 9 9.74978ZM9 6.74978H8C7.586 6.74978 7.25 6.41378 7.25 5.99978C7.25 5.58578 7.586 5.24978 8 5.24978H9C9.414 5.24978 9.75 5.58578 9.75 5.99978C9.75 6.41378 9.414 6.74978 9 6.74978ZM15 16.4597C16.74 16.4597 18.13 16.0399 19 15.3399V15.9698C19 17.3298 17 17.9998 15 17.9998C13 17.9998 11 17.3298 11 15.9698V15.3399C11.87 16.0399 13.26 16.4597 15 16.4597ZM15 14.0598C16.74 14.0598 18.13 13.6397 19 12.9397V13.4297C19 14.7997 17 15.4597 15 15.4597C13 15.4597 11 14.7997 11 13.4297V12.9397C11.88 13.6397 13.27 14.0598 15 14.0598ZM15 8.99978C17 8.99978 19 9.67981 19 11.0298C19 12.3898 17 13.0598 15 13.0598C13 13.0598 11 12.3898 11 11.0298C11 9.67981 13 8.99978 15 8.99978Z" fill="#0D0E0F"/>
</svg>
