<svg width="24" height="24" viewBox="0 0 24 24" fill="none" xmlns="http://www.w3.org/2000/svg">
<rect width="24" height="24" rx="12" fill="#FFF9E6"/>
<path d="M16.7619 7.00001C16.6957 6.99957 16.6382 7.0214 16.5893 7.06548L12 11.6607L7.40477 7.06548C7.35983 7.0214 7.30427 6.99957 7.2381 7.00001C7.17191 6.99957 7.11437 7.0214 7.06548 7.06548C7.0214 7.11437 6.99957 7.17191 7.00001 7.2381C6.99957 7.30427 7.0214 7.35983 7.06548 7.40477L11.6607 12L7.06548 16.5893C7.0214 16.6382 6.99957 16.6957 7.00001 16.7619C6.99957 16.8281 7.0214 16.8836 7.06548 16.9286C7.11437 16.9766 7.17191 17.0004 7.2381 17C7.30427 17.0004 7.35983 16.9766 7.40477 16.9286L12 12.3393L16.5893 16.9286C16.6382 16.9766 16.6957 17.0004 16.7619 17C16.8281 17.0004 16.8836 16.9766 16.9286 16.9286C16.9766 16.8836 17.0004 16.8281 17 16.7619C17.0004 16.6957 16.9766 16.6382 16.9286 16.5893L12.3393 12L16.9286 7.40477C16.9766 7.35983 17.0004 7.30427 17 7.2381C17.0004 7.17191 16.9766 7.11437 16.9286 7.06548C16.8836 7.0214 16.8281 6.99957 16.7619 7.00001Z" fill="#0D0E0F"/>
</svg>
