<svg width="362" height="56" viewBox="0 0 362 56" fill="none" xmlns="http://www.w3.org/2000/svg">
<rect width="361.333" height="56" rx="12" fill="#0D0E0F"/>
<path d="M37.75 27V31V31.75V34C37.75 34.41 37.41 34.75 37 34.75C36.59 34.75 36.25 34.41 36.25 34V31.75H28H19.75V34C19.75 34.414 19.414 34.75 19 34.75C18.586 34.75 18.25 34.414 18.25 34V22C18.25 21.586 18.586 21.25 19 21.25C19.414 21.25 19.75 21.586 19.75 22V30.25H27.25V24C27.25 23.59 27.59 23.25 28 23.25H34C36.42 23.25 37.75 24.58 37.75 27ZM23.5 28.5C24.881 28.5 26 27.381 26 26C26 24.619 24.881 23.5 23.5 23.5C22.119 23.5 21 24.619 21 26C21 27.381 22.119 28.5 23.5 28.5Z" fill="white"/>
<path d="M48.34 33.084C47.6027 33.084 46.912 33.0653 46.268 33.028C45.6333 33 45.078 32.958 44.602 32.902V32.048H47.976C48.3773 32.048 48.7367 32.006 49.054 31.922C49.3713 31.838 49.6187 31.684 49.796 31.46C49.9827 31.2267 50.076 30.9 50.076 30.48V29.794C50.076 29.43 49.9827 29.1407 49.796 28.926C49.6187 28.7113 49.3947 28.5573 49.124 28.464C48.8533 28.3707 48.5733 28.3193 48.284 28.31L45.638 28.212V27.4L48.242 27.288C48.746 27.2693 49.152 27.162 49.46 26.966C49.7773 26.7607 49.936 26.42 49.936 25.944V25.258C49.936 24.7447 49.7633 24.3527 49.418 24.082C49.082 23.802 48.5733 23.662 47.892 23.662H44.952V22.808C45.3813 22.752 45.8713 22.7053 46.422 22.668C46.982 22.6307 47.6073 22.612 48.298 22.612C48.914 22.6213 49.4227 22.7287 49.824 22.934C50.2347 23.13 50.538 23.41 50.734 23.774C50.93 24.1287 51.028 24.5487 51.028 25.034V25.916C51.028 26.2333 50.9767 26.5087 50.874 26.742C50.7807 26.966 50.6547 27.1527 50.496 27.302C50.3467 27.4513 50.1833 27.568 50.006 27.652C49.838 27.7267 49.684 27.778 49.544 27.806C49.7027 27.8433 49.8753 27.9133 50.062 28.016C50.2487 28.1093 50.426 28.24 50.594 28.408C50.7713 28.576 50.916 28.786 51.028 29.038C51.14 29.29 51.196 29.5887 51.196 29.934V30.648C51.196 31.4413 50.944 32.048 50.44 32.468C49.9453 32.8787 49.2453 33.084 48.34 33.084Z" fill="white"/>
<path d="M136.885 25.4434C136.885 25.0673 136.839 25.001 136.741 25.001C136.643 25.001 136.597 25.0673 136.597 25.4434C136.597 25.8197 136.643 25.886 136.741 25.886C136.838 25.886 136.885 25.8197 136.885 25.4434Z" fill="white"/>
<path d="M136.555 26.5874C136.555 26.2113 136.509 26.1445 136.411 26.1445C136.314 26.1445 136.267 26.2108 136.267 26.5874C136.267 26.964 136.313 27.0306 136.411 27.0306C136.509 27.0306 136.555 26.964 136.555 26.5874Z" fill="white"/>
<path d="M136.256 25.4434C136.256 25.0673 136.21 25.001 136.112 25.001C136.014 25.001 135.968 25.0673 135.968 25.4434C135.968 25.8197 136.014 25.886 136.112 25.886C136.21 25.886 136.256 25.8197 136.256 25.4434Z" fill="white"/>
<path d="M138.377 29.0736V22H136.053V23.7455C135.823 23.7782 135.398 23.8725 135.398 24.1218C135.398 24.3995 135.939 24.5262 136.442 24.5262C136.945 24.5262 137.487 24.4 137.487 24.1218C137.487 23.8542 137.016 23.7647 136.766 23.7362V22.8078H137.664V28.1189C137.47 27.9609 137.22 27.8619 136.944 27.8619C136.605 27.8619 136.294 28.0048 136.085 28.251C135.875 28.005 135.564 27.8619 135.225 27.8619C134.903 27.8619 134.176 27.9936 133.966 28.2195C133.757 27.9936 133.454 27.8619 133.131 27.8619C132.793 27.8619 132.058 28.0048 131.848 28.251C131.563 27.9161 130.228 27.772 129.776 27.9219C129.323 27.7718 127.988 27.9163 127.703 28.251C127.494 28.0053 127.183 27.8619 126.844 27.8619C126.522 27.8619 126.219 27.9933 126.009 28.2193C125.8 27.9933 125.497 27.8619 125.174 27.8619C124.836 27.8619 124.524 28.005 124.315 28.251C124.105 28.0053 123.794 27.8619 123.455 27.8619C122.953 27.8619 122.531 28.1808 122.396 28.6132C121.894 28.472 121.197 28.2812 120.224 28.0214C119.839 27.9226 119.443 28.153 119.343 28.5167C119.29 28.7095 119.396 28.9827 119.445 29.0948C119.26 29.478 119.167 29.8846 119.167 30.3043V31.9945C119.167 32.7423 119.465 33.4224 119.949 33.936H137.883C138.368 33.4224 138.667 32.7421 138.667 31.994V30.3043C138.667 29.8778 138.568 29.4641 138.377 29.0736ZM137.664 28.9912H123.633C123.542 28.9527 123.293 28.8686 122.599 28.6709C122.709 28.3273 123.049 28.074 123.455 28.074C123.773 28.074 124.061 28.2281 124.225 28.4859L124.314 28.6261L124.404 28.4859C124.568 28.2278 124.856 28.074 125.174 28.074C125.476 28.074 125.755 28.2139 125.922 28.4482L126.009 28.5693L126.095 28.4482C126.262 28.2139 126.542 28.074 126.844 28.074C127.161 28.074 127.449 28.2281 127.614 28.4859L127.703 28.6261L127.792 28.4859C128.013 28.1386 129.317 27.9792 129.739 28.134L129.775 28.1474L129.812 28.134C130.233 27.9797 131.537 28.1391 131.758 28.4859L131.847 28.6263L131.937 28.4859C132.101 28.2278 132.813 28.074 133.13 28.074C133.432 28.074 133.712 28.2139 133.879 28.4484L133.965 28.5695L134.052 28.4484C134.219 28.2139 134.922 28.074 135.224 28.074C135.542 28.074 135.83 28.2281 135.994 28.4859L136.083 28.6261L136.173 28.4859C136.337 28.2278 136.625 28.074 136.943 28.074C137.239 28.074 137.5 28.2095 137.663 28.4148V28.9912H137.664Z" fill="white"/>
<path d="M145.923 33V32.09L149.731 28.436C150.123 28.072 150.431 27.7313 150.655 27.414C150.888 27.0967 151.056 26.7793 151.159 26.462C151.261 26.1353 151.313 25.7807 151.313 25.398C151.313 25.062 151.247 24.7633 151.117 24.502C150.995 24.2407 150.776 24.0353 150.459 23.886C150.141 23.7367 149.684 23.662 149.087 23.662H146.287V22.808C146.716 22.7613 147.187 22.7193 147.701 22.682C148.223 22.6353 148.765 22.612 149.325 22.612C150.109 22.612 150.725 22.724 151.173 22.948C151.63 23.172 151.952 23.4847 152.139 23.886C152.325 24.278 152.419 24.74 152.419 25.272C152.419 25.748 152.353 26.1867 152.223 26.588C152.101 26.9893 151.905 27.3813 151.635 27.764C151.364 28.1467 151.014 28.5433 150.585 28.954L147.435 31.978H152.797V33H145.923Z" fill="white"/>
<path d="M223.55 24.9105L224.628 29.6148H230.098H235.568L236.645 24.9114C236.692 24.3861 237.033 23.9459 237.503 23.7568C236.813 22.6998 235.622 22 234.266 22C234.266 22 231.129 22.2569 230.084 22.2569C229.045 22.2569 225.93 22 225.93 22C224.574 22 223.383 22.7001 222.693 23.757C223.162 23.9461 223.503 24.3856 223.55 24.9105Z" fill="white"/>
<path d="M239.833 25.8585C239.833 25.1595 239.186 24.5928 238.389 24.5928C237.634 24.5928 237.016 25.0991 236.95 25.7454L235.82 30.0669H224.347L223.216 25.7445C223.15 25.0991 222.532 24.5928 221.778 24.5928C220.98 24.5928 220.333 25.1595 220.333 25.8585C220.333 25.9291 220.342 25.9979 220.354 26.0652L222.272 33.4827L222.336 33.4696V33.4827H237.932V33.34L239.833 26.0696C239.833 26.0696 239.833 25.9291 239.833 25.8585Z" fill="white"/>
<path d="M250.337 33.084C250.132 33.084 249.885 33.0747 249.595 33.056C249.315 33.0467 249.026 33.028 248.727 33C248.429 32.9813 248.144 32.958 247.873 32.93C247.612 32.902 247.393 32.8693 247.215 32.832V31.978C247.449 31.9967 247.733 32.0153 248.069 32.034C248.405 32.0527 248.765 32.0667 249.147 32.076C249.539 32.0853 249.922 32.09 250.295 32.09C250.715 32.09 251.093 32.048 251.429 31.964C251.765 31.88 252.031 31.726 252.227 31.502C252.433 31.278 252.535 30.956 252.535 30.536V29.836C252.535 29.36 252.414 29.0007 252.171 28.758C251.929 28.506 251.537 28.38 250.995 28.38H249.889C249.04 28.38 248.373 28.1933 247.887 27.82C247.411 27.4467 247.173 26.8027 247.173 25.888V25.3C247.173 24.3293 247.435 23.6387 247.957 23.228C248.48 22.8173 249.217 22.612 250.169 22.612C250.468 22.612 250.804 22.6307 251.177 22.668C251.551 22.696 251.91 22.7333 252.255 22.78C252.61 22.8173 252.904 22.8593 253.137 22.906V23.76C252.727 23.7227 252.26 23.69 251.737 23.662C251.224 23.634 250.739 23.62 250.281 23.62C249.861 23.62 249.497 23.6713 249.189 23.774C248.881 23.8673 248.643 24.04 248.475 24.292C248.317 24.5347 248.237 24.8847 248.237 25.342V25.818C248.237 26.3873 248.387 26.7793 248.685 26.994C248.984 27.2087 249.399 27.316 249.931 27.316H251.121C251.691 27.316 252.157 27.4187 252.521 27.624C252.885 27.8293 253.156 28.114 253.333 28.478C253.511 28.8327 253.599 29.2433 253.599 29.71V30.508C253.599 31.1987 253.45 31.7307 253.151 32.104C252.862 32.4773 252.47 32.734 251.975 32.874C251.49 33.014 250.944 33.084 250.337 33.084ZM258.347 33.084C257.563 33.084 256.942 32.9673 256.485 32.734C256.037 32.5007 255.715 32.104 255.519 31.544C255.323 30.984 255.225 30.2187 255.225 29.248C255.225 28.2587 255.323 27.4887 255.519 26.938C255.724 26.378 256.056 25.986 256.513 25.762C256.97 25.538 257.586 25.426 258.361 25.426C259.024 25.426 259.56 25.5007 259.971 25.65C260.391 25.7993 260.699 26.056 260.895 26.42C261.1 26.7747 261.203 27.2693 261.203 27.904C261.203 28.3427 261.114 28.6973 260.937 28.968C260.769 29.2293 260.522 29.4207 260.195 29.542C259.878 29.654 259.5 29.71 259.061 29.71H256.331C256.34 30.3167 256.406 30.8067 256.527 31.18C256.648 31.544 256.868 31.81 257.185 31.978C257.512 32.1367 257.988 32.216 258.613 32.216H261.021V32.888C260.592 32.944 260.172 32.9907 259.761 33.028C259.35 33.0653 258.879 33.084 258.347 33.084ZM256.317 28.982H258.977C259.397 28.982 259.705 28.9073 259.901 28.758C260.106 28.5993 260.209 28.3193 260.209 27.918C260.209 27.4887 260.144 27.1573 260.013 26.924C259.892 26.6813 259.696 26.5133 259.425 26.42C259.164 26.3173 258.809 26.266 258.361 26.266C257.838 26.266 257.428 26.3453 257.129 26.504C256.83 26.6533 256.62 26.924 256.499 27.316C256.378 27.708 256.317 28.2633 256.317 28.982ZM263.065 33V25.524H263.933L264.171 26.35C264.545 26.0887 264.96 25.8647 265.417 25.678C265.884 25.4913 266.402 25.398 266.971 25.398C267.438 25.398 267.835 25.5053 268.161 25.72C268.497 25.9253 268.749 26.1867 268.917 26.504C269.151 26.336 269.431 26.168 269.757 26C270.093 25.832 270.448 25.692 270.821 25.58C271.204 25.4587 271.573 25.398 271.927 25.398C272.469 25.398 272.912 25.5147 273.257 25.748C273.603 25.972 273.855 26.28 274.013 26.672C274.181 27.0547 274.265 27.484 274.265 27.96V33H273.159V28.044C273.159 27.7267 273.094 27.4467 272.963 27.204C272.842 26.952 272.665 26.756 272.431 26.616C272.198 26.476 271.913 26.406 271.577 26.406C271.157 26.406 270.728 26.4853 270.289 26.644C269.851 26.8027 269.445 26.994 269.071 27.218C269.118 27.358 269.151 27.498 269.169 27.638C269.197 27.7687 269.211 27.9087 269.211 28.058V33H268.105V28.044C268.105 27.7267 268.04 27.4467 267.909 27.204C267.788 26.952 267.611 26.756 267.377 26.616C267.153 26.476 266.873 26.406 266.537 26.406C266.229 26.406 265.94 26.4387 265.669 26.504C265.408 26.56 265.156 26.644 264.913 26.756C264.68 26.8587 264.433 26.9847 264.171 27.134V33H263.065ZM276.509 24.194C276.359 24.194 276.285 24.1193 276.285 23.97V22.878C276.285 22.7287 276.359 22.654 276.509 22.654H277.293C277.367 22.654 277.419 22.6773 277.447 22.724C277.484 22.7613 277.503 22.8127 277.503 22.878V23.97C277.503 24.1193 277.433 24.194 277.293 24.194H276.509ZM276.341 33V25.524H277.447V33H276.341ZM278.867 29.402V28.478H282.969V29.402H278.867ZM284.786 33V26.434H283.638V25.72L284.786 25.524V24.67C284.786 24.138 284.851 23.6947 284.982 23.34C285.112 22.976 285.332 22.7007 285.64 22.514C285.948 22.3273 286.377 22.234 286.928 22.234C287.254 22.234 287.53 22.2527 287.754 22.29C287.987 22.318 288.192 22.346 288.37 22.374V23.158H287.124C286.788 23.158 286.531 23.214 286.354 23.326C286.176 23.4287 286.055 23.592 285.99 23.816C285.924 24.0307 285.892 24.2967 285.892 24.614V25.524H288.216V26.434H285.892V33H284.786ZM291.76 33.084C291.041 33.084 290.486 32.8973 290.094 32.524C289.711 32.1507 289.52 31.572 289.52 30.788V25.524H290.626V30.508C290.626 31.1333 290.766 31.558 291.046 31.782C291.335 31.9967 291.737 32.104 292.25 32.104C292.689 32.104 293.09 32.0433 293.454 31.922C293.818 31.7913 294.191 31.614 294.574 31.39V25.524H295.68V33H294.812L294.574 32.174C294.191 32.4167 293.757 32.6313 293.272 32.818C292.796 32.9953 292.292 33.084 291.76 33.084ZM297.765 33V25.524H298.605L298.871 26.826C299.207 26.4247 299.58 26.0933 299.991 25.832C300.411 25.5707 300.891 25.44 301.433 25.44C301.563 25.44 301.685 25.4447 301.797 25.454C301.918 25.4633 302.03 25.482 302.133 25.51V26.644C302.011 26.6253 301.881 26.6113 301.741 26.602C301.601 26.5833 301.461 26.574 301.321 26.574C300.975 26.574 300.667 26.616 300.397 26.7C300.126 26.784 299.869 26.91 299.627 27.078C299.384 27.246 299.132 27.4513 298.871 27.694V33H297.765ZM303.534 33V25.524H304.402L304.64 26.35C304.995 26.098 305.41 25.8787 305.886 25.692C306.362 25.496 306.857 25.398 307.37 25.398C307.921 25.398 308.364 25.5147 308.7 25.748C309.036 25.9813 309.283 26.2893 309.442 26.672C309.601 27.0547 309.68 27.47 309.68 27.918V33H308.574V28.044C308.574 27.7267 308.509 27.4467 308.378 27.204C308.257 26.952 308.079 26.756 307.846 26.616C307.622 26.476 307.342 26.406 307.006 26.406C306.698 26.406 306.409 26.4387 306.138 26.504C305.877 26.56 305.625 26.644 305.382 26.756C305.149 26.8587 304.901 26.9847 304.64 27.134V33H303.534ZM311.933 24.194C311.783 24.194 311.709 24.1193 311.709 23.97V22.878C311.709 22.7287 311.783 22.654 311.933 22.654H312.717C312.791 22.654 312.843 22.6773 312.871 22.724C312.908 22.7613 312.927 22.8127 312.927 22.878V23.97C312.927 24.1193 312.857 24.194 312.717 24.194H311.933ZM311.765 33V25.524H312.871V33H311.765ZM317.581 33.084C317.394 33.084 317.165 33.0793 316.895 33.07C316.624 33.0607 316.339 33.0467 316.041 33.028C315.751 33.0093 315.485 32.9907 315.243 32.972C315.009 32.944 314.827 32.916 314.697 32.888V32.216H317.763C318.071 32.216 318.337 32.1927 318.561 32.146C318.785 32.0993 318.957 31.9967 319.079 31.838C319.209 31.6793 319.275 31.4413 319.275 31.124V30.788C319.275 30.4613 319.167 30.2093 318.953 30.032C318.738 29.8453 318.393 29.752 317.917 29.752H316.867C316.428 29.752 316.036 29.696 315.691 29.584C315.355 29.472 315.093 29.2807 314.907 29.01C314.72 28.7393 314.627 28.366 314.627 27.89V27.498C314.627 27.0313 314.715 26.6487 314.893 26.35C315.079 26.0513 315.364 25.8273 315.747 25.678C316.139 25.5287 316.643 25.454 317.259 25.454C317.52 25.454 317.819 25.4633 318.155 25.482C318.5 25.5007 318.836 25.5287 319.163 25.566C319.489 25.594 319.755 25.6267 319.961 25.664V26.336H317.077C316.601 26.336 316.232 26.4153 315.971 26.574C315.719 26.7327 315.593 27.0407 315.593 27.498V27.806C315.593 28.0953 315.653 28.3147 315.775 28.464C315.896 28.604 316.064 28.6973 316.279 28.744C316.503 28.7907 316.759 28.814 317.049 28.814H318.113C318.794 28.814 319.321 28.9727 319.695 29.29C320.068 29.6073 320.255 30.0647 320.255 30.662V31.18C320.255 31.684 320.138 32.076 319.905 32.356C319.681 32.6267 319.368 32.818 318.967 32.93C318.575 33.0327 318.113 33.084 317.581 33.084ZM322.005 33V22.318H323.111V26.35C323.456 26.098 323.867 25.8787 324.343 25.692C324.828 25.496 325.332 25.398 325.855 25.398C326.377 25.398 326.807 25.51 327.143 25.734C327.488 25.958 327.74 26.2613 327.899 26.644C328.067 27.0267 328.151 27.4513 328.151 27.918V33H327.045V28.03C327.045 27.7127 326.979 27.4327 326.849 27.19C326.727 26.9473 326.55 26.756 326.317 26.616C326.083 26.476 325.803 26.406 325.477 26.406C325.169 26.406 324.884 26.4387 324.623 26.504C324.361 26.56 324.109 26.644 323.867 26.756C323.624 26.8587 323.372 26.9847 323.111 27.134V33H322.005ZM333.091 33.084C332.307 33.084 331.687 32.9673 331.229 32.734C330.781 32.5007 330.459 32.104 330.263 31.544C330.067 30.984 329.969 30.2187 329.969 29.248C329.969 28.2587 330.067 27.4887 330.263 26.938C330.469 26.378 330.8 25.986 331.257 25.762C331.715 25.538 332.331 25.426 333.105 25.426C333.768 25.426 334.305 25.5007 334.715 25.65C335.135 25.7993 335.443 26.056 335.639 26.42C335.845 26.7747 335.947 27.2693 335.947 27.904C335.947 28.3427 335.859 28.6973 335.681 28.968C335.513 29.2293 335.266 29.4207 334.939 29.542C334.622 29.654 334.244 29.71 333.805 29.71H331.075C331.085 30.3167 331.15 30.8067 331.271 31.18C331.393 31.544 331.612 31.81 331.929 31.978C332.256 32.1367 332.732 32.216 333.357 32.216H335.765V32.888C335.336 32.944 334.916 32.9907 334.505 33.028C334.095 33.0653 333.623 33.084 333.091 33.084ZM331.061 28.982H333.721C334.141 28.982 334.449 28.9073 334.645 28.758C334.851 28.5993 334.953 28.3193 334.953 27.918C334.953 27.4887 334.888 27.1573 334.757 26.924C334.636 26.6813 334.44 26.5133 334.169 26.42C333.908 26.3173 333.553 26.266 333.105 26.266C332.583 26.266 332.172 26.3453 331.873 26.504C331.575 26.6533 331.365 26.924 331.243 27.316C331.122 27.708 331.061 28.2633 331.061 28.982ZM340.231 33.084C339.615 33.084 339.107 32.9533 338.705 32.692C338.313 32.4213 338.019 32.0107 337.823 31.46C337.637 30.9 337.543 30.186 337.543 29.318C337.543 28.394 337.637 27.6473 337.823 27.078C338.01 26.4993 338.309 26.0793 338.719 25.818C339.13 25.5567 339.681 25.426 340.371 25.426C340.791 25.426 341.202 25.4727 341.603 25.566C342.005 25.6593 342.359 25.762 342.667 25.874V22.318H343.773V33H342.877L342.667 32.244C342.527 32.3653 342.317 32.4913 342.037 32.622C341.767 32.7527 341.468 32.8647 341.141 32.958C340.824 33.042 340.521 33.084 340.231 33.084ZM340.553 32.174C340.983 32.174 341.37 32.1087 341.715 31.978C342.07 31.838 342.387 31.6933 342.667 31.544V26.658C342.331 26.5553 342.009 26.4713 341.701 26.406C341.393 26.3313 341.048 26.294 340.665 26.294C340.189 26.294 339.802 26.3827 339.503 26.56C339.205 26.7373 338.985 27.0453 338.845 27.484C338.715 27.9133 338.649 28.5107 338.649 29.276C338.649 29.9667 338.71 30.5267 338.831 30.956C338.962 31.3853 339.167 31.698 339.447 31.894C339.727 32.0807 340.096 32.174 340.553 32.174Z" fill="white"/>
</svg>
