<svg width="88" height="88" viewBox="0 0 88 88" fill="none" xmlns="http://www.w3.org/2000/svg">
<rect width="88" height="88" rx="12" fill="#0D0E0F"/>
<path d="M41.0913 46.6312V44.8609C41.0913 42.4513 43.0583 40.5335 45.4186 40.5335C46.5988 40.5335 47.6807 40.9761 48.5166 41.8121C48.91 42.2055 49.2543 42.6972 49.451 43.2381C52.008 40.8777 53.6308 37.4355 53.6308 33.6491C53.6308 26.4696 47.8282 20.667 40.6487 20.667C33.4692 20.667 27.6666 26.4696 27.6666 33.6491C27.6666 40.8286 33.4692 46.6312 40.6487 46.6312C40.7962 46.6312 40.9438 46.6312 41.0913 46.6312ZM39.321 38.3207C38.9276 38.3207 38.485 38.1731 38.19 37.8781L34.7478 34.4359C34.1085 33.7966 34.1085 32.8131 34.7478 32.1738C35.387 31.5346 36.3705 31.5346 37.0098 32.1738L39.2718 34.4359L44.2385 29.4692C44.8777 28.83 45.8612 28.83 46.5005 29.4692C47.1398 30.1085 47.1398 31.092 46.5005 31.7313L40.4028 37.8781C40.1078 38.1731 39.7144 38.3207 39.321 38.3207Z" fill="white"/>
<path d="M58.7448 55.04C58.7448 53.909 57.8105 53.0239 56.7286 53.0239C55.991 53.0239 55.3517 53.4173 55.0075 53.9582V53.909C55.0075 52.778 54.0732 51.8928 52.9914 51.8928C52.2537 51.8928 51.6145 52.2862 51.2703 52.8272V52.778C51.2703 51.647 50.3359 50.7618 49.2541 50.7618C48.5165 50.7618 47.8772 51.1552 47.533 51.6961V44.8609C47.533 44.32 47.3363 43.779 46.9429 43.4348C46.5495 43.0414 46.0577 42.8447 45.5168 42.8447C44.3858 42.8447 43.5007 43.779 43.5007 44.8609V57.4496C43.5007 57.5479 43.4515 57.6463 43.304 57.6954C43.2056 57.7446 43.0581 57.6954 43.0089 57.6463L40.9436 55.5809C40.2551 54.8925 39.1241 54.7941 38.3373 55.3351C37.8456 55.6793 37.5505 56.171 37.4522 56.7611C37.3538 57.3512 37.5505 57.9413 37.8948 58.3839L43.0581 64.5799C44.5333 66.3502 46.6478 67.3337 48.959 67.3337H52.057C53.8273 67.3337 55.5484 66.6452 56.827 65.3667C58.1055 64.0881 58.794 62.4162 58.794 60.5967L58.7448 55.04Z" fill="white"/>
</svg>
