<svg width="88" height="88" viewBox="0 0 88 88" fill="none" xmlns="http://www.w3.org/2000/svg">
<rect width="88" height="88" rx="12" fill="#0D0E0F"/>
<path fill-rule="evenodd" clip-rule="evenodd" d="M60.0444 52.1055C60.2215 52.1868 60.3333 52.3632 60.3333 52.558V59.1215C60.3333 59.2068 60.3109 59.2918 60.2691 59.3662C58.4389 62.6185 56.9862 63.9852 54.106 65.9681C53.9367 66.0846 53.7131 66.0846 53.5439 65.968C50.6642 63.9852 49.2114 62.6185 47.3813 59.3662C47.3394 59.2918 47.317 59.2068 47.317 59.1215V52.5582C47.317 52.3633 47.429 52.1868 47.6062 52.1055C48.7911 51.5614 52.6811 49.7813 53.6187 49.3524C53.7507 49.2919 53.8959 49.2919 54.0279 49.3523C54.9658 49.7811 58.8585 51.561 60.0444 52.1055ZM32.8351 28.5373C33.1112 28.5373 33.3351 28.3135 33.3351 28.0373V26.9235C33.3351 26.6473 33.5589 26.4235 33.8351 26.4235H37.0084C37.2686 26.4235 37.4819 26.2218 37.5308 25.9662C38.281 22.0391 44.2199 21.9834 44.9717 25.9665C45.0199 26.2221 45.2333 26.4235 45.4934 26.4235H48.6669C48.9431 26.4235 49.1669 26.6473 49.1669 26.9235V28.0373C49.1669 28.3135 49.3908 28.5373 49.6669 28.5373H54.3349C54.611 28.5373 54.8349 28.7612 54.8349 29.0373V47.8155C54.8349 48.1801 54.4572 48.4221 54.1259 48.2698L54.0322 48.2267C53.8996 48.1657 53.7469 48.1657 53.6143 48.2267L53.4926 48.2827C53.1613 48.4351 52.7836 48.1931 52.7836 47.8284V31.0891C52.7836 30.813 52.5598 30.5891 52.2836 30.5891H49.6669C49.3908 30.5891 49.1669 30.813 49.1669 31.0891V32.4033C49.1669 32.6794 48.9431 32.9033 48.6669 32.9033H33.8351C33.5589 32.9033 33.3351 32.6794 33.3351 32.4033V31.0891C33.3351 30.813 33.1112 30.5891 32.8351 30.5891H30.2184C29.9423 30.5891 29.7184 30.813 29.7184 31.0891V61.7043C29.7184 61.9804 29.9423 62.2043 30.2184 62.2043H47.7083C47.8687 62.2043 48.019 62.2815 48.115 62.4101C48.3595 62.7375 48.6149 63.0544 48.8826 63.3608C49.1783 63.6991 48.9471 64.2561 48.4977 64.2561H28.1666C27.8905 64.2561 27.6666 64.0322 27.6666 63.7561V29.0373C27.6666 28.7612 27.8905 28.5373 28.1666 28.5373H32.8351ZM32.5723 36.6021C32.5723 36.326 32.7962 36.1021 33.0723 36.1021H49.4405C49.7166 36.1021 49.9405 36.326 49.9405 36.6021V37.7408C49.9405 38.017 49.7166 38.2408 49.4405 38.2408H33.0723C32.7962 38.2408 32.5723 38.017 32.5723 37.7408V36.6021ZM32.5723 40.7241C32.5723 40.4479 32.7962 40.2241 33.0723 40.2241H49.4405C49.7166 40.2241 49.9405 40.4479 49.9405 40.7241V41.8628C49.9405 42.1389 49.7166 42.3628 49.4405 42.3628H33.0723C32.7962 42.3628 32.5723 42.1389 32.5723 41.8628V40.7241ZM32.5723 48.9679C32.5723 48.6918 32.7962 48.4679 33.0723 48.4679H49.4405C49.7166 48.4679 49.9405 48.6918 49.9405 48.9679V49.5892C49.9405 49.7848 49.8264 49.9625 49.6485 50.0438L48.5162 50.5618C48.4509 50.5917 48.38 50.6072 48.3082 50.6072H33.0723C32.7962 50.6072 32.5723 50.3833 32.5723 50.1072V48.9679ZM32.5723 44.846C32.5723 44.5698 32.7962 44.346 33.0723 44.346H49.4405C49.7166 44.346 49.9405 44.5698 49.9405 44.846V45.9852C49.9405 46.2614 49.7166 46.4852 49.4405 46.4852H33.0723C32.7962 46.4852 32.5723 46.2614 32.5723 45.9852V44.846ZM32.5723 53.0904C32.5723 52.8142 32.7962 52.5904 33.0723 52.5904H45.7909C46.067 52.5904 46.2909 52.8142 46.2909 53.0904V54.2291C46.2909 54.5052 46.067 54.7291 45.7909 54.7291H33.0723C32.7962 54.7291 32.5723 54.5052 32.5723 54.2291V53.0904ZM32.5723 57.2123C32.5723 56.9362 32.7962 56.7123 33.0723 56.7123H45.7909C46.067 56.7123 46.2909 56.9362 46.2909 57.2123V58.351C46.2909 58.6272 46.067 58.851 45.7909 58.851H33.0723C32.7962 58.851 32.5723 58.6272 32.5723 58.351V57.2123ZM49.988 57.888C49.3667 57.2662 50.3119 56.321 50.9337 56.9428L52.6549 58.6644C52.8572 58.8668 53.188 58.8584 53.3797 58.6458L56.6934 54.9725C57.2802 54.321 58.2723 55.2133 57.6861 55.8654L53.5701 60.4272C53.3202 60.7344 52.8592 60.7592 52.5785 60.4785L49.988 57.888Z" fill="white"/>
</svg>
