<svg width="88" height="88" viewBox="0 0 88 88" fill="none" xmlns="http://www.w3.org/2000/svg">
<rect width="88" height="88" rx="12" fill="#0D0E0F"/>
<path d="M49.2532 52.7568C49.2183 52.7566 49.188 52.7681 49.1622 52.7913L46.7435 55.2133L44.3216 52.7913C44.2979 52.7681 44.2686 52.7566 44.2338 52.7568C44.1989 52.7566 44.1686 52.7681 44.1428 52.7913C44.1196 52.8171 44.1081 52.8474 44.1083 52.8823C44.1081 52.9172 44.1196 52.9465 44.1428 52.9702L46.5646 55.3921L44.1428 57.8109C44.1196 57.8367 44.1081 57.867 44.1083 57.9019C44.1081 57.9368 44.1196 57.9661 44.1428 57.9898C44.1686 58.0151 44.1989 58.0276 44.2338 58.0274C44.2686 58.0276 44.2979 58.0151 44.3216 57.9898L46.7435 55.5709L49.1622 57.9898C49.188 58.0151 49.2183 58.0276 49.2532 58.0274C49.288 58.0276 49.3173 58.0151 49.341 57.9898C49.3663 57.9661 49.3789 57.9368 49.3786 57.9019C49.3789 57.867 49.3663 57.8367 49.341 57.8109L46.9223 55.3921L49.341 52.9702C49.3663 52.9465 49.3789 52.9172 49.3786 52.8823C49.3789 52.8474 49.3663 52.8171 49.341 52.7913C49.3173 52.7681 49.288 52.7566 49.2532 52.7568Z" fill="#0D0E0F" stroke="white" stroke-width="0.5"/>
<path fill-rule="evenodd" clip-rule="evenodd" d="M52.2797 62.0166H64.4331C64.742 62.0166 64.9716 61.7374 64.9117 61.4346C64.3064 58.3673 61.6019 56.0538 58.3566 56.0538C55.1114 56.0538 52.4068 58.3673 51.8015 61.4346C51.7412 61.7374 51.9708 62.0166 52.2797 62.0166ZM33.591 46.1514C38.1515 46.1514 41.8487 49.8485 41.8487 54.409C41.8487 58.9695 38.1515 62.6667 33.591 62.6667C29.0305 62.6667 25.3334 58.9695 25.3334 54.409C25.3334 49.8485 29.0305 46.1514 33.591 46.1514ZM33.591 49.1709C32.1078 49.1709 30.905 50.3733 30.905 51.8569C30.905 53.3402 32.1073 54.543 33.591 54.543C35.0743 54.543 36.2771 53.3406 36.2771 51.8569C36.2766 50.3733 35.0743 49.1709 33.591 49.1709ZM38.6943 59.1375C39.845 57.8964 40.5481 56.2348 40.5481 54.409C40.5481 50.5667 37.4334 47.452 33.591 47.452C29.7487 47.452 26.634 50.5667 26.634 54.409C26.634 56.2348 27.3375 57.8964 28.4877 59.1375C29.1283 56.9232 31.1703 55.3042 33.591 55.3042C36.0113 55.3038 38.0537 56.9232 38.6943 59.1375ZM44.4813 35.2529V36.2283C44.4813 36.3179 44.4085 36.3907 44.3189 36.3907H43.3435C43.2539 36.3907 43.1811 36.3179 43.1811 36.2283V35.2529C43.1811 35.1633 43.2539 35.0905 43.3435 35.0905H44.3189C44.4085 35.0905 44.4813 35.1637 44.4813 35.2529ZM44.4813 37.9019V38.8773C44.4813 38.9669 44.4085 39.0397 44.3189 39.0397H43.3435C43.2539 39.0397 43.1811 38.9669 43.1811 38.8773V37.9019C43.1811 37.8123 43.2539 37.7395 43.3435 37.7395H44.3189C44.4085 37.7391 44.4813 37.8123 44.4813 37.9019ZM44.4813 32.6043V33.5797C44.4813 33.6693 44.4085 33.7421 44.3189 33.7421H43.3435C43.2539 33.7421 43.1811 33.6693 43.1811 33.5797V32.6043C43.1811 32.5147 43.2539 32.4419 43.3435 32.4419H44.3189C44.4085 32.4419 44.4813 32.5147 44.4813 32.6043ZM60.8523 35.2529V36.2283C60.8523 36.3179 60.7795 36.3907 60.6898 36.3907H59.7145C59.6249 36.3907 59.5521 36.3179 59.5521 36.2283V35.2529C59.5521 35.1633 59.6249 35.0905 59.7145 35.0905H60.6898C60.7795 35.0905 60.8523 35.1637 60.8523 35.2529ZM60.8523 37.9019V38.8773C60.8523 38.9669 60.7795 39.0397 60.6898 39.0397H59.7145C59.6249 39.0397 59.5521 38.9669 59.5521 38.8773V37.9019C59.5521 37.8123 59.6249 37.7395 59.7145 37.7395H60.6898C60.7795 37.7391 60.8523 37.8123 60.8523 37.9019ZM60.8523 32.6043V33.5797C60.8523 33.6693 60.7795 33.7421 60.6898 33.7421H59.7145C59.6249 33.7421 59.5521 33.6693 59.5521 33.5797V32.6043C59.5521 32.5147 59.6249 32.4419 59.7145 32.4419H60.6898C60.7795 32.4419 60.8523 32.5147 60.8523 32.6043ZM51.5288 33.6223H52.5042C52.5938 33.6223 52.6666 33.6951 52.6666 33.7847V34.7601C52.6666 34.8497 52.5938 34.9225 52.5042 34.9225H51.5288C51.4392 34.9225 51.3664 34.8497 51.3664 34.7601V33.7847C51.3664 33.6951 51.4396 33.6223 51.5288 33.6223ZM54.1778 33.6223H55.1532C55.2428 33.6223 55.3156 33.6951 55.3156 33.7847V34.7601C55.3156 34.8497 55.2428 34.9225 55.1532 34.9225H54.1778C54.0882 34.9225 54.0154 34.8497 54.0154 34.7601V33.7847C54.015 33.6951 54.0882 33.6223 54.1778 33.6223ZM48.8802 33.6223H49.8556C49.9452 33.6223 50.018 33.6951 50.018 33.7847V34.7601C50.018 34.8497 49.9452 34.9225 49.8556 34.9225H48.8802C48.7906 34.9225 48.7178 34.8497 48.7178 34.7601V33.7847C48.7178 33.6951 48.7906 33.6223 48.8802 33.6223ZM51.5288 31.2589H52.5042C52.5938 31.2589 52.6666 31.3317 52.6666 31.4213V32.3967C52.6666 32.4863 52.5938 32.5591 52.5042 32.5591H51.5288C51.4392 32.5591 51.3664 32.4863 51.3664 32.3967V31.4213C51.3664 31.3322 51.4396 31.2589 51.5288 31.2589ZM54.1778 31.2589H55.1532C55.2428 31.2589 55.3156 31.3317 55.3156 31.4213V32.3967C55.3156 32.4863 55.2428 32.5591 55.1532 32.5591H54.1778C54.0882 32.5591 54.0154 32.4863 54.0154 32.3967V31.4213C54.015 31.3322 54.0882 31.2589 54.1778 31.2589ZM48.8802 31.2589H49.8556C49.9452 31.2589 50.018 31.3317 50.018 31.4213V32.3967C50.018 32.4863 49.9452 32.5591 49.8556 32.5591H48.8802C48.7906 32.5591 48.7178 32.4863 48.7178 32.3967V31.4213C48.7178 31.3322 48.7906 31.2589 48.8802 31.2589ZM51.5288 28.896H52.5042C52.5938 28.896 52.6666 28.9688 52.6666 29.0584V30.0337C52.6666 30.1233 52.5938 30.1961 52.5042 30.1961H51.5288C51.4392 30.1961 51.3664 30.1233 51.3664 30.0337V29.0584C51.3664 28.9688 51.4396 28.896 51.5288 28.896ZM54.1778 28.896H55.1532C55.2428 28.896 55.3156 28.9688 55.3156 29.0584V30.0337C55.3156 30.1233 55.2428 30.1961 55.1532 30.1961H54.1778C54.0882 30.1961 54.0154 30.1233 54.0154 30.0337V29.0584C54.015 28.9688 54.0882 28.896 54.1778 28.896ZM48.8802 28.896H49.8556C49.9452 28.896 50.018 28.9688 50.018 29.0584V30.0337C50.018 30.1233 49.9452 30.1961 49.8556 30.1961H48.8802C48.7906 30.1961 48.7178 30.1233 48.7178 30.0337V29.0584C48.7178 28.9688 48.7906 28.896 48.8802 28.896ZM51.5288 26.5326H52.5042C52.5938 26.5326 52.6666 26.6054 52.6666 26.695V27.6703C52.6666 27.7599 52.5938 27.8328 52.5042 27.8328H51.5288C51.4392 27.8328 51.3664 27.7599 51.3664 27.6703V26.6954C51.3664 26.6058 51.4396 26.5326 51.5288 26.5326ZM54.1778 26.5326H55.1532C55.2428 26.5326 55.3156 26.6054 55.3156 26.695V27.6703C55.3156 27.7599 55.2428 27.8328 55.1532 27.8328H54.1778C54.0882 27.8328 54.0154 27.7599 54.0154 27.6703V26.6954C54.015 26.6058 54.0882 26.5326 54.1778 26.5326ZM48.8802 26.5326H49.8556C49.9452 26.5326 50.018 26.6054 50.018 26.695V27.6703C50.018 27.7599 49.9452 27.8328 49.8556 27.8328H48.8802C48.7906 27.8328 48.7178 27.7599 48.7178 27.6703V26.6954C48.7178 26.6058 48.7906 26.5326 48.8802 26.5326ZM54.7094 23.7225V23H49.3679V23.7225H54.7094ZM47.3246 25.0231C47.1006 25.0231 46.9184 25.2057 46.9184 25.4293V41.4074H49.8306V36.3006H54.3493V41.4074H57.115V25.4293C57.115 25.2053 56.9324 25.0231 56.7088 25.0231H47.3246ZM61.9887 41.0011V30.4805C61.9887 30.2565 61.8061 30.0742 61.5825 30.0742H58.4161V41.4074H61.5825C61.8061 41.4074 61.9887 41.2251 61.9887 41.0011ZM45.6178 41.4074V30.0742H42.4514C42.2273 30.0742 42.0451 30.2569 42.0451 30.4805V41.0011C42.0451 41.2251 42.2278 41.4074 42.4514 41.4074H45.6178ZM39.0002 31.5054C39.3595 31.5054 39.6503 31.7966 39.6503 32.1554C39.6503 32.5147 39.359 32.8055 39.0002 32.8055H34.2411V41.438L34.4543 41.1239C34.6551 40.8279 35.0575 40.7504 35.3534 40.9512C35.6494 41.1519 35.7269 41.5543 35.5262 41.8502L34.1269 43.9125C33.8646 44.2994 33.2959 44.286 33.0473 43.9013L31.6558 41.8502C31.4551 41.5543 31.5326 41.1515 31.8286 40.9512C32.1246 40.7504 32.5274 40.8279 32.7277 41.1239L32.9409 41.438V32.1559C32.9409 31.7966 33.2322 31.5058 33.591 31.5058L39.0002 31.5054ZM58.3562 48.3799C60.222 48.3799 61.7346 49.8925 61.7346 51.7583C61.7346 53.6241 60.222 55.1367 58.3562 55.1367C56.4904 55.1367 54.9778 53.6241 54.9778 51.7583C54.9778 49.8929 56.4904 48.3799 58.3562 48.3799Z" fill="white"/>
</svg>
