<svg width="88" height="88" viewBox="0 0 88 88" fill="none" xmlns="http://www.w3.org/2000/svg">
<rect width="88" height="88" rx="12" fill="#0D0E0F"/>
<path d="M33.6985 27.667C26.5012 27.6668 20.6664 31.9214 20.6667 37.1695C20.6691 39.7468 22.1072 42.2129 24.6512 44.0022L24.6481 44.0085L22.3784 46.9981C22.2774 47.1312 22.2231 47.2939 22.2239 47.4609C22.2248 47.628 22.2805 47.7901 22.3828 47.9221C22.4851 48.0542 22.6281 48.1488 22.7896 48.1914C22.9511 48.234 23.1223 48.2222 23.2764 48.1577L28.6143 45.9201V45.9137C30.2222 46.4124 31.9512 46.6703 33.6985 46.672C36.2401 46.6717 38.6096 46.1408 40.6142 45.2232C40.5483 45.6242 40.5125 46.0325 40.5125 46.4474C40.5124 49.258 42.0776 51.7809 44.5342 53.5723C46.9908 55.3638 50.3466 56.4556 54.0443 56.4558C55.759 56.4542 57.449 56.1807 59.0423 55.7115L64.2725 57.9029C64.8357 58.1388 65.4454 57.9219 65.7612 57.5138C66.0769 57.1064 66.1365 56.4593 65.7676 55.973L63.7453 53.3109C66.1174 51.4755 67.5782 49.0506 67.5807 46.4474C67.5808 43.6366 66.0161 41.1124 63.5592 39.3209C61.1023 37.5294 57.7424 36.4435 54.0445 36.4436C51.3286 36.4438 48.7982 37.0298 46.672 38.0506C46.7087 37.7603 46.729 37.4666 46.729 37.1695C46.7292 31.9218 40.8953 27.6675 33.6985 27.667ZM27.8023 34.003H40.0653C40.1237 34.0025 40.1815 34.0136 40.2356 34.0355C40.2897 34.0575 40.3389 34.0898 40.3805 34.1308C40.4221 34.1718 40.4552 34.2206 40.4779 34.2744C40.5006 34.3282 40.5124 34.386 40.5127 34.4444C40.5132 34.5033 40.502 34.5617 40.4797 34.6162C40.4573 34.6707 40.4245 34.7202 40.3828 34.7619C40.3412 34.8035 40.2916 34.8365 40.2371 34.8588C40.1826 34.8811 40.1242 34.8923 40.0653 34.8919H27.8023C27.7438 34.8917 27.686 34.8801 27.632 34.8575C27.578 34.8349 27.529 34.8018 27.4878 34.7603C27.4467 34.7187 27.414 34.6693 27.392 34.6151C27.37 34.5609 27.3589 34.5029 27.3593 34.4444C27.36 34.3273 27.407 34.2151 27.49 34.1325C27.5729 34.0498 27.6851 34.0032 27.8023 34.003ZM27.8023 36.5021H40.0653C40.1237 36.5016 40.1815 36.5126 40.2356 36.5345C40.2897 36.5565 40.3389 36.5889 40.3805 36.6299C40.4221 36.6709 40.4552 36.7197 40.4779 36.7735C40.5006 36.8273 40.5124 36.8851 40.5127 36.9435C40.5132 37.0024 40.502 37.0608 40.4797 37.1153C40.4573 37.1698 40.4243 37.2192 40.3826 37.2609C40.341 37.3025 40.2916 37.3355 40.2371 37.3578C40.1826 37.3801 40.1242 37.3914 40.0653 37.3909H27.8023C27.7438 37.3908 27.686 37.379 27.632 37.3564C27.578 37.3339 27.529 37.3008 27.4878 37.2592C27.4467 37.2177 27.414 37.1684 27.392 37.1142C27.3699 37.06 27.3589 37.002 27.3593 36.9435C27.36 36.8263 27.407 36.7142 27.49 36.6315C27.5729 36.5489 27.6851 36.5023 27.8023 36.5021ZM54.0445 37.4494C57.5438 37.4493 60.7059 38.4868 62.9655 40.1345C65.2252 41.7822 66.5751 44.0101 66.575 46.4474C66.5728 48.8376 65.2416 51.1542 62.8026 52.8696C62.703 52.9387 62.6316 53.0415 62.6016 53.159C62.5717 53.2765 62.5852 53.4008 62.6395 53.5092L62.6459 53.5156C62.6591 53.542 62.6745 53.5672 62.6921 53.5909L64.965 56.5836C65.0653 56.7156 65.0368 56.7986 64.965 56.891C64.8934 56.9838 64.8167 57.0367 64.6635 56.9724L59.6348 54.8624V55.1946C59.6352 55.1152 59.6167 55.0367 59.581 54.9657C59.5454 54.8947 59.4934 54.8332 59.4293 54.7861C59.3653 54.739 59.2911 54.7077 59.2127 54.6948C59.1343 54.6819 59.0538 54.6877 58.9781 54.7118C57.4209 55.1948 55.7426 55.4484 54.0447 55.45C50.5455 55.4498 47.3873 54.4064 45.128 52.7586C42.8686 51.111 41.5187 48.8844 41.5188 46.4473C41.5187 44.0102 42.8686 41.7821 45.128 40.1344C47.3873 38.4867 50.5454 37.4496 54.0445 37.4494ZM27.8023 39.0011H40.0653C40.1242 39.0006 40.1826 39.0119 40.2371 39.0342C40.2916 39.0565 40.341 39.0895 40.3826 39.1311C40.4243 39.1728 40.4573 39.2222 40.4797 39.2767C40.502 39.3312 40.5132 39.3896 40.5127 39.4485C40.5124 39.5069 40.5006 39.5647 40.4779 39.6185C40.4552 39.6723 40.4221 39.7211 40.3805 39.7621C40.3389 39.8031 40.2897 39.8355 40.2356 39.8575C40.1815 39.8794 40.1237 39.8904 40.0653 39.8899H27.8023C27.6851 39.8897 27.5729 39.8431 27.49 39.7605C27.407 39.6778 27.36 39.5657 27.3593 39.4485C27.3589 39.39 27.3699 39.332 27.392 39.2778C27.414 39.2236 27.4467 39.1742 27.4878 39.1327C27.529 39.0911 27.578 39.058 27.632 39.0355C27.686 39.0129 27.7438 39.0012 27.8023 39.0011ZM47.6807 43.2824C47.6224 43.282 47.5644 43.2931 47.5103 43.315C47.4562 43.3369 47.4069 43.3694 47.3654 43.4104C47.3238 43.4514 47.2908 43.5001 47.2681 43.5539C47.2455 43.6077 47.2335 43.6655 47.2332 43.7238C47.2327 43.7827 47.2441 43.8411 47.2664 43.8956C47.2887 43.9502 47.3216 43.9997 47.3632 44.0414C47.4049 44.083 47.4544 44.116 47.5089 44.1383C47.5634 44.1606 47.6218 44.1718 47.6807 44.1713H59.9436C60.0021 44.1712 60.0601 44.1595 60.114 44.1369C60.168 44.1143 60.2171 44.0813 60.2582 44.0397C60.2994 43.9981 60.3318 43.9488 60.3539 43.8946C60.3759 43.8404 60.387 43.7824 60.3865 43.7238C60.3859 43.6067 60.3389 43.4946 60.2559 43.4119C60.1729 43.3293 60.0607 43.2827 59.9436 43.2824H47.6807ZM47.6807 45.7815C47.6224 45.7811 47.5644 45.7921 47.5103 45.814C47.4562 45.8359 47.4069 45.8684 47.3654 45.9094C47.3238 45.9504 47.2908 45.9992 47.2681 46.053C47.2455 46.1068 47.2335 46.1644 47.2332 46.2228C47.2327 46.2817 47.2441 46.3401 47.2664 46.3946C47.2887 46.4491 47.3216 46.4987 47.3632 46.5403C47.4049 46.582 47.4544 46.6149 47.5089 46.6373C47.5634 46.6596 47.6218 46.6709 47.6807 46.6704H59.9436C60.0021 46.6703 60.0601 46.6585 60.114 46.6359C60.168 46.6133 60.2171 46.5803 60.2582 46.5387C60.2994 46.4971 60.3318 46.4478 60.3539 46.3936C60.3759 46.3394 60.387 46.2813 60.3865 46.2228C60.3859 46.1057 60.3389 45.9937 60.2559 45.911C60.1729 45.8283 60.0607 45.7818 59.9436 45.7815H47.6807ZM47.6807 48.2805C47.6218 48.28 47.5634 48.2913 47.5089 48.3137C47.4544 48.336 47.4049 48.3689 47.3632 48.4106C47.3216 48.4522 47.2887 48.5017 47.2664 48.5562C47.2441 48.6107 47.2327 48.6691 47.2332 48.728C47.2335 48.7864 47.2455 48.8442 47.2681 48.898C47.2908 48.9518 47.3238 49.0006 47.3654 49.0416C47.4069 49.0826 47.4562 49.1149 47.5103 49.1368C47.5644 49.1588 47.6224 49.1699 47.6807 49.1694H59.9436C60.0607 49.1691 60.1729 49.1226 60.2559 49.0399C60.3389 48.9573 60.3859 48.8451 60.3865 48.728C60.387 48.6695 60.3759 48.6115 60.3539 48.5573C60.3318 48.5031 60.2994 48.4538 60.2582 48.4122C60.2171 48.3706 60.168 48.3375 60.114 48.3149C60.0601 48.2923 60.0021 48.2807 59.9436 48.2805H47.6807Z" fill="white"/>
</svg>
