<svg width="88" height="88" viewBox="0 0 88 88" fill="none" xmlns="http://www.w3.org/2000/svg">
<rect width="88" height="88" rx="12" fill="#0D0E0F"/>
<path d="M63.9143 64.4107C63.9143 64.5669 63.8522 64.7167 63.7418 64.8272C63.6313 64.9376 63.4815 64.9997 63.3253 64.9997H26.0662C25.91 64.9997 25.7602 64.9376 25.6498 64.8272C25.5393 64.7167 25.4773 64.5669 25.4773 64.4107C25.4773 64.2545 25.5393 64.1047 25.6498 63.9942C25.7602 63.8838 25.91 63.8217 26.0662 63.8217H27.739V54.0642C27.739 53.908 27.801 53.7582 27.9115 53.6477C28.0219 53.5373 28.1717 53.4752 28.3279 53.4752C28.4842 53.4752 28.634 53.5373 28.7444 53.6477C28.8549 53.7582 28.9169 53.908 28.9169 54.0642V63.8296H31.8265V51.0172C31.8265 50.861 31.8886 50.7112 31.999 50.6007C32.1095 50.4903 32.2593 50.4282 32.4155 50.4282C32.5717 50.4282 32.7215 50.4903 32.832 50.6007C32.9424 50.7112 33.0045 50.861 33.0045 51.0172V63.8296H35.914V48.9715C35.914 48.8153 35.9761 48.6655 36.0866 48.555C36.197 48.4446 36.3468 48.3825 36.503 48.3825C36.6592 48.3825 36.809 48.4446 36.9195 48.555C37.03 48.6655 37.092 48.8153 37.092 48.9715V63.8296H40.0016V53.6716C40.0016 53.5154 40.0636 53.3655 40.1741 53.2551C40.2846 53.1446 40.4344 53.0826 40.5906 53.0826C40.7468 53.0826 40.8966 53.1446 41.007 53.2551C41.1175 53.3655 41.1796 53.5154 41.1796 53.6716V63.8296H44.0931V54.0839C44.0931 53.9276 44.1551 53.7778 44.2656 53.6674C44.376 53.5569 44.5258 53.4949 44.682 53.4949C44.8382 53.4949 44.9881 53.5569 45.0985 53.6674C45.209 53.7778 45.271 53.9276 45.271 54.0839V63.8296H48.1963V51.3431C48.1963 51.1869 48.2584 51.0371 48.3688 50.9266C48.4793 50.8162 48.6291 50.7541 48.7853 50.7541C48.9415 50.7541 49.0913 50.8162 49.2018 50.9266C49.3122 51.0371 49.3743 51.1869 49.3743 51.3431V63.8296H52.2838V46.9454C52.2838 46.7892 52.3459 46.6394 52.4564 46.5289C52.5668 46.4185 52.7166 46.3564 52.8728 46.3564C53.029 46.3564 53.1789 46.4185 53.2893 46.5289C53.3998 46.6394 53.4618 46.7892 53.4618 46.9454V63.8296H56.3714V42.8146C56.3714 42.7373 56.3866 42.6607 56.4162 42.5893C56.4458 42.5178 56.4892 42.4529 56.5439 42.3982C56.5986 42.3435 56.6635 42.3001 56.735 42.2705C56.8064 42.2409 56.883 42.2257 56.9604 42.2257C57.0377 42.2257 57.1143 42.2409 57.1858 42.2705C57.2572 42.3001 57.3222 42.3435 57.3768 42.3982C57.4315 42.4529 57.4749 42.5178 57.5045 42.5893C57.5341 42.6607 57.5494 42.7373 57.5494 42.8146V63.8178H60.4589V34.6474C60.4589 34.4912 60.521 34.3414 60.6314 34.2309C60.7419 34.1205 60.8917 34.0584 61.0479 34.0584C61.2041 34.0584 61.3539 34.1205 61.4644 34.2309C61.5748 34.3414 61.6369 34.4912 61.6369 34.6474V63.8296H63.3253C63.4802 63.8295 63.6288 63.8905 63.739 63.9993C63.8493 64.1081 63.9122 64.2558 63.9143 64.4107ZM26.2194 49.9178L37.1627 43.9219L41.9177 50.2319C41.973 50.3046 42.0443 50.3637 42.1259 50.4045C42.2076 50.4453 42.2976 50.4669 42.3889 50.4675C42.5171 50.4678 42.6416 50.425 42.7423 50.3458L57.0232 39.5713C57.088 39.5259 57.1429 39.4678 57.1848 39.4006C57.2266 39.3334 57.2545 39.2585 57.2667 39.1803C57.279 39.1022 57.2753 39.0223 57.256 38.9455C57.2367 38.8688 57.2022 38.7967 57.1544 38.7336C57.1066 38.6705 57.0466 38.6177 56.9779 38.5783C56.9093 38.539 56.8334 38.5138 56.7548 38.5044C56.6763 38.495 56.5966 38.5015 56.5206 38.5236C56.4446 38.5457 56.3738 38.5828 56.3125 38.6329L42.5028 49.0539L37.7792 42.8146C37.6933 42.7024 37.5702 42.6244 37.4319 42.5949C37.2937 42.5654 37.1495 42.5862 37.0253 42.6537L25.6383 48.9008C25.5704 48.9382 25.5107 48.9886 25.4623 49.049C25.414 49.1095 25.378 49.179 25.3565 49.2533C25.335 49.3277 25.3284 49.4056 25.337 49.4826C25.3455 49.5595 25.3692 49.634 25.4066 49.7018C25.4821 49.8388 25.6089 49.9401 25.7591 49.9836C25.8335 50.0051 25.9114 50.0117 25.9883 50.0031C26.0653 49.9945 26.1398 49.9709 26.2076 49.9335L26.2194 49.9178ZM40.4924 33.4537C40.4924 32.6368 40.7347 31.8381 41.1886 31.1588C41.6425 30.4795 42.2876 29.9501 43.0424 29.6374C43.7972 29.3248 44.6277 29.243 45.429 29.4024C46.2303 29.5618 46.9663 29.9552 47.544 30.5329C48.1217 31.1106 48.5151 31.8466 48.6745 32.6479C48.8339 33.4492 48.7521 34.2797 48.4394 35.0345C48.1268 35.7893 47.5973 36.4344 46.9181 36.8883C46.2388 37.3422 45.4401 37.5845 44.6231 37.5845C43.5282 37.5824 42.4788 37.1465 41.7046 36.3723C40.9304 35.5981 40.4945 34.5486 40.4924 33.4537ZM42.4282 33.4537C42.4292 34.0352 42.6609 34.5925 43.0725 35.0033C43.484 35.414 44.0417 35.6448 44.6231 35.6448C44.7549 35.6458 44.8864 35.634 45.0158 35.6094C45.2372 35.7918 45.5143 35.893 45.8011 35.8961C46.1378 35.895 46.4604 35.7605 46.6982 35.5221C46.9359 35.2836 47.0694 34.9606 47.0694 34.6239C47.0672 34.3369 46.966 34.0594 46.7827 33.8385C46.8071 33.7091 46.8189 33.5776 46.8181 33.4459C46.8306 33.1501 46.7832 32.8548 46.6786 32.5779C46.574 32.3009 46.4145 32.0479 46.2096 31.8342C46.0048 31.6205 45.7588 31.4504 45.4865 31.3342C45.2142 31.218 44.9212 31.1581 44.6251 31.1581C44.329 31.1581 44.036 31.218 43.7637 31.3342C43.4914 31.4504 43.2454 31.6205 43.0406 31.8342C42.8357 32.0479 42.6762 32.3009 42.5716 32.5779C42.4671 32.8548 42.4196 33.1501 42.4321 33.4459L42.4282 33.4537ZM44.5446 34.4589C44.5842 34.1872 44.7115 33.9357 44.9071 33.743C45.1028 33.5502 45.356 33.4266 45.6283 33.3909C45.6135 33.1975 45.5436 33.0125 45.4267 32.8577C45.3098 32.703 45.151 32.585 44.9691 32.5178C44.7871 32.4507 44.5897 32.4372 44.4003 32.4789C44.2109 32.5206 44.0375 32.6158 43.9006 32.7532C43.7637 32.8905 43.6692 33.0643 43.6281 33.2539C43.5871 33.4434 43.6013 33.6408 43.6691 33.8224C43.737 34.0041 43.8555 34.1625 44.0107 34.2789C44.1659 34.3952 44.3512 34.4645 44.5446 34.4786V34.4589ZM33.0123 33.8817C32.9571 33.8252 32.9137 33.7583 32.8847 33.6848C32.8557 33.6113 32.8417 33.5327 32.8435 33.4537C32.843 33.3735 32.8592 33.2941 32.891 33.2204C32.9227 33.1468 32.9694 33.0805 33.028 33.0257L38.6155 27.7249C40.2387 26.1889 42.3885 25.333 44.6231 25.333C46.8578 25.333 49.0076 26.1889 50.6308 27.7249L56.234 33.0257C56.2898 33.0818 56.3335 33.1487 56.3625 33.2223C56.3916 33.2959 56.4053 33.3747 56.4028 33.4537C56.4025 33.5339 56.3861 33.6131 56.3543 33.6866C56.3226 33.7602 56.2763 33.8266 56.2183 33.8817L50.6308 39.1826C49.0063 40.7159 46.857 41.5701 44.6231 41.5701C42.3893 41.5701 40.24 40.7159 38.6155 39.1826L33.0123 33.8817ZM39.2948 33.4537C39.2956 34.5027 39.6071 35.5279 40.19 36.4C40.773 37.272 41.6012 37.9519 42.5702 38.3536C43.5391 38.7554 44.6054 38.8611 45.6344 38.6574C46.6634 38.4537 47.609 37.9498 48.3518 37.2091C49.0946 36.4685 49.6014 35.5244 49.8081 34.496C50.0148 33.4677 49.9123 32.4011 49.5133 31.4309C49.1144 30.4608 48.4371 29.6306 47.5667 29.045C46.6964 28.4595 45.6721 28.145 44.6231 28.1411C43.2151 28.1432 41.8655 28.7037 40.8702 29.6997C39.875 30.6957 39.3155 32.0457 39.3144 33.4537H39.2948Z" fill="white"/>
</svg>
