<svg width="88" height="88" viewBox="0 0 88 88" fill="none" xmlns="http://www.w3.org/2000/svg">
<rect width="88" height="88" rx="12" fill="#0D0E0F"/>
<path d="M39.8204 42.1631C36.5813 42.4584 33.8989 44.6564 32.8804 47.627H42.8412C41.4974 45.652 39.8397 43.0437 39.8204 42.1631Z" fill="white"/>
<path d="M49.6959 42.1631C49.6761 43.0441 47.8594 45.6525 46.3855 47.6275H56.6346C55.6156 44.6568 52.9332 42.4588 49.6959 42.1631Z" fill="white"/>
<path d="M45.3124 45.4652C45.8845 45.1695 46.327 44.5547 46.327 43.9297C46.327 43.9297 45.4764 44.3056 44.6098 44.3056C43.7433 44.3056 42.8927 43.9297 42.8927 43.9297C42.8927 44.5547 43.3352 45.1695 43.9073 45.4652L43.7561 47.6271H45.4636L45.3124 45.4652Z" fill="white"/>
<path d="M56.9834 64.1387H32.5309C32.2929 64.1387 32.0994 64.3317 32.0994 64.5697C32.0994 64.8077 32.2929 64.9999 32.5309 64.9999H56.9834C57.2219 64.9999 57.4145 64.8077 57.4145 64.5697C57.4145 64.3317 57.2219 64.1387 56.9834 64.1387Z" fill="white"/>
<path d="M33.9843 63.7851H55.5289C56.5391 63.7851 57.3602 62.964 57.3584 61.9715L59.5141 49.4578C59.5141 48.4476 58.693 47.627 57.6837 47.627H56.6347H46.3856H45.4636H43.7561H42.8411H32.8803H31.83C30.8198 47.627 29.9982 48.4476 30 49.4763L32.153 61.9543C32.153 62.964 32.9746 63.7851 33.9843 63.7851ZM31.83 47.8425H57.6837C58.574 47.8425 59.2995 48.5675 59.3012 49.4402L57.1455 61.9543C57.1455 62.8446 56.4201 63.5705 55.5289 63.5705H33.9843C33.0932 63.5705 32.3681 62.8446 32.3668 61.9362L30.2142 49.4578C30.2138 48.5675 30.9384 47.8425 31.83 47.8425Z" fill="white" stroke="white" stroke-width="1.5"/>
<path d="M44.7566 56.2646C45.185 56.2646 45.5315 55.9186 45.5315 55.4893C45.5315 55.0631 45.185 54.7158 44.7566 54.7158C44.3287 54.7158 43.9818 55.0631 43.9818 55.4893C43.9823 55.9186 44.3291 56.2646 44.7566 56.2646Z" fill="white" stroke="white"/>
<path d="M37.1811 37.6294C37.3697 37.6294 37.5478 37.5179 37.7064 37.3253C38.0802 37.7559 38.5553 38.1296 39.1296 38.4223C39.1957 38.4562 39.2676 38.48 39.3354 38.5113C40.3893 41.303 42.4207 43.1964 44.7575 43.1964C47.8802 43.1964 50.4563 39.8168 50.8799 35.4274C51.02 36.6963 51.485 37.6298 52.0382 37.6298C52.7024 37.6298 53.241 36.2869 53.241 34.631C53.241 33.2224 52.8505 32.0438 52.3255 31.7216C51.255 28.0167 48.2037 25.333 44.6103 25.333C41.016 25.333 37.9643 28.0167 36.8933 31.7216C36.3688 32.0438 35.9783 33.2224 35.9783 34.6314C35.9783 36.2864 36.5173 37.6294 37.1811 37.6294ZM50.1597 35.181C49.8613 39.1535 47.5571 42.2444 44.7575 42.2444C42.9174 42.2444 41.295 40.905 40.3117 38.8613C40.8741 39.0107 41.4664 39.0953 42.0782 39.0953C42.2355 39.0953 42.3946 39.0852 42.5538 39.0746C42.7574 39.3496 43.102 39.5047 43.4621 39.4426C43.9712 39.3544 44.3119 38.8705 44.2242 38.3619C44.136 37.8528 43.6521 37.5121 43.1435 37.6003C42.8226 37.6558 42.5696 37.8687 42.4475 38.1455C41.5224 38.1984 40.6317 38.0551 39.8582 37.7263C39.6188 36.9956 39.4487 36.2066 39.3716 35.3732C39.614 35.434 39.9115 35.5513 40.235 35.7774C40.235 35.7774 39.6197 32.1271 40.9181 31.615C40.9181 31.615 45.2198 33.7067 48.1124 31.615C48.1124 31.615 49.8291 34.3313 49.3474 35.3988L50.221 34.3952C50.2166 34.6623 50.1967 34.9245 50.1597 35.181ZM44.6103 26.7346C47.7475 26.7346 50.3823 29.2724 51.1227 32.6882C51.0478 32.9077 50.9848 33.1536 50.9381 33.4207C50.9288 33.3325 50.9222 33.244 50.9094 33.1571C50.4546 30.0115 47.8731 27.602 44.7575 27.602C41.641 27.602 39.0591 30.0133 38.6042 33.1593C38.5575 33.4837 38.5333 33.816 38.5333 34.1536C38.5333 34.2916 38.5386 34.4269 38.5461 34.5627C38.5575 34.7601 38.5765 34.9558 38.6042 35.148C38.6091 35.2066 38.6135 35.2652 38.6188 35.3234C38.6765 35.9739 38.7863 36.5993 38.9335 37.1983C38.6153 36.9572 38.3539 36.6818 38.1569 36.3772C38.2988 35.8849 38.3834 35.2828 38.3834 34.6301C38.3834 33.8888 38.275 33.2118 38.0969 32.6886C38.8365 29.2724 41.4722 26.7346 44.6103 26.7346Z" fill="white"/>
</svg>
