<svg width="18" height="18" viewBox="0 0 18 18" fill="none" xmlns="http://www.w3.org/2000/svg">
<path fill-rule="evenodd" clip-rule="evenodd" d="M16.5699 5.58633L10.606 0.585227C9.67696 -0.193773 8.32194 -0.193773 7.39294 0.585227L1.42896 5.58633C0.522955 6.34632 -0.000976562 6.65327 -0.000976562 8.65127V15.0003C-0.000976562 17.0003 0.999023 18.0003 2.99902 18.0003H14.999C16.999 18.0003 17.999 17.0003 17.999 15.0003V8.65127C18 6.65227 17.4769 6.34632 16.5699 5.58633ZM13.53 10.3302L11.295 12.5652C10.691 13.1692 9.70896 13.1693 9.10596 12.5663L7.83496 11.2973L5.53101 13.5293C5.38501 13.6753 5.19298 13.7493 5.00098 13.7493C4.80898 13.7493 4.61695 13.6763 4.47095 13.5293C4.17795 13.2363 4.17795 12.7613 4.47095 12.4683L6.703 10.2362C7.308 9.63323 8.29104 9.63225 8.89404 10.2353L10.165 11.5043L12.4709 9.26931C12.7639 8.97631 13.239 8.97631 13.532 9.26931C13.825 9.56231 13.823 10.0372 13.53 10.3302Z" fill="#0D0E0F"/>
</svg>
