<svg width="19" height="18" viewBox="0 0 19 18" fill="none" xmlns="http://www.w3.org/2000/svg">
<path fill-rule="evenodd" clip-rule="evenodd" d="M15.9153 18.0003H12.7153C12.5493 18.0003 12.4153 17.8662 12.4153 17.7002V13.5003C12.4153 12.1193 11.2963 11.0003 9.91528 11.0003C8.53428 11.0003 7.41528 12.1193 7.41528 13.5003V17.7002C7.41528 17.8662 7.28123 18.0003 7.11523 18.0003H3.91528C1.91528 18.0003 0.915283 17.0003 0.915283 15.0003V8.65127C0.915283 6.65327 1.43834 6.34632 2.34534 5.58633L8.30933 0.585227C9.23833 -0.193773 10.5933 -0.193773 11.5223 0.585227L17.4863 5.58633C18.3923 6.34632 18.9163 6.65327 18.9163 8.65127V15.0003C18.9153 17.0003 17.9153 18.0003 15.9153 18.0003Z" fill="#0D0E0F"/>
</svg>
