<svg width="17" height="17" viewBox="0 0 17 17" fill="none" xmlns="http://www.w3.org/2000/svg">
<path d="M16.8084 15.8843L13.4598 12.5357C14.5792 11.2079 15.2566 9.49657 15.2566 7.62829C15.2566 3.42183 11.8347 0 7.62829 0C3.42183 0 0 3.42183 0 7.62829C0 11.8347 3.42183 15.2566 7.62829 15.2566C9.49657 15.2566 11.2079 14.5792 12.5357 13.4598L15.8843 16.8084C16.0115 16.9357 16.179 17.0002 16.3463 17.0002C16.5137 17.0002 16.6811 16.9366 16.8084 16.8084C17.0639 16.5538 17.0639 16.1397 16.8084 15.8843ZM1.30771 7.62829C1.30771 4.14282 4.14282 1.30771 7.62829 1.30771C11.1138 1.30771 13.9489 4.14282 13.9489 7.62829C13.9489 11.1138 11.1138 13.9489 7.62829 13.9489C4.14282 13.9489 1.30771 11.1138 1.30771 7.62829Z" fill="#0D0E0F"/>
</svg>
