<svg width="1240" height="100" viewBox="0 0 1240 100" fill="none" xmlns="http://www.w3.org/2000/svg">
<circle cx="1028" cy="20" r="20" fill="#F9FAFB"/>
<path d="M1030.03 21.7899V31H1025.64V21.7899H1022V18.0555H1025.64V16.6967C1025.64 11.6524 1027.83 9 1032.45 9C1033.87 9 1034.22 9.21967 1035 9.39867V13.0925C1034.13 12.946 1033.89 12.8646 1032.98 12.8646C1031.91 12.8646 1031.34 13.1575 1030.82 13.7352C1030.29 14.3129 1030.03 15.3136 1030.03 16.7456V18.0636H1035L1033.67 21.7981H1030.03V21.7899Z" stroke="#0D0E0F" stroke-width="1.5"/>
<circle cx="1092" cy="20" r="20" fill="#F9FAFB"/>
<g clip-path="url(#clip0_9784_79)">
<path d="M1085.97 16.2344H1081.37V30.8942H1085.97V16.2344Z" stroke="#0D0E0F" stroke-width="1.5"/>
<path d="M1098.4 15.9168C1098.23 15.8956 1098.05 15.885 1097.87 15.8744C1095.3 15.7685 1093.85 17.2938 1093.34 17.9505C1093.2 18.1306 1093.14 18.2365 1093.14 18.2365V16.2769H1088.74V30.9367H1093.14H1093.34C1093.34 29.4432 1093.34 27.9603 1093.34 26.4667C1093.34 25.6617 1093.34 24.8567 1093.34 24.0517C1093.34 23.056 1093.27 21.9968 1093.76 21.0858C1094.19 20.3232 1094.95 19.9419 1095.81 19.9419C1098.35 19.9419 1098.4 22.2404 1098.4 22.4522C1098.4 22.4628 1098.4 22.4734 1098.4 22.4734V31.0003H1103V21.4354C1103 18.1623 1101.34 16.2345 1098.4 15.9168Z" stroke="#0D0E0F" stroke-width="1.5"/>
<path d="M1083.67 14.3385C1085.14 14.3385 1086.34 13.1435 1086.34 11.6693C1086.34 10.1951 1085.14 9 1083.67 9C1082.2 9 1081 10.1951 1081 11.6693C1081 13.1435 1082.2 14.3385 1083.67 14.3385Z" stroke="#0D0E0F" stroke-width="1.5"/>
</g>
<circle cx="1156" cy="20" r="20" fill="#F9FAFB"/>
<path d="M1163.42 28H1148.58C1146.6 28 1145 26.1065 1145 23.7775V16.2225C1145 13.884 1146.61 12 1148.58 12H1163.42C1165.4 12 1167 13.8935 1167 16.2225V23.7775C1167.01 26.116 1165.4 28 1163.42 28Z" stroke="#0D0E0F" stroke-width="1.5"/>
<path d="M1159.89 19.8817L1153.65 16V23.7633L1159.89 19.8817Z" stroke="#0D0E0F" stroke-width="1.5"/>
<circle cx="1220" cy="20" r="20" fill="#F9FAFB"/>
<g clip-path="url(#clip1_9784_79)">
<path d="M1227.32 31H1212.68C1210.65 31 1209 29.3466 1209 27.3228V12.6772C1209 10.6534 1210.65 9 1212.68 9H1227.32C1229.35 9 1231 10.6534 1231 12.6772V27.3228C1231 29.3556 1229.36 31 1227.32 31Z" stroke="#0D0E0F" stroke-width="1.5"/>
<path d="M1216.01 23.9977C1217.08 25.0638 1218.5 25.6511 1220 25.6511C1221.51 25.6511 1222.92 25.0638 1224 23.9977C1225.06 22.9315 1225.65 21.5131 1225.65 20.0042C1225.65 18.4954 1225.06 17.0769 1224 16.0108C1222.93 14.9447 1221.51 14.3574 1220 14.3574C1218.5 14.3574 1217.08 14.9447 1216.01 16.0108C1214.94 17.0769 1214.36 18.4954 1214.36 20.0042C1214.36 21.5131 1214.94 22.9315 1216.01 23.9977Z" stroke="#0D0E0F" stroke-width="1.5"/>
<path d="M1226.75 14.1723C1227.35 14.1723 1227.84 13.6869 1227.84 13.0881C1227.84 12.4893 1227.35 12.0039 1226.75 12.0039C1226.15 12.0039 1225.67 12.4893 1225.67 13.0881C1225.67 13.6869 1226.15 14.1723 1226.75 14.1723Z" stroke="#0D0E0F" stroke-width="1.5"/>
</g>
<path d="M880.476 83C879.868 83 879.335 82.888 878.876 82.664C878.428 82.4293 878.044 82.1147 877.724 81.72C877.404 81.3253 877.143 80.8773 876.94 80.376C876.738 79.8747 876.588 79.3467 876.492 78.792C876.407 78.2267 876.364 77.6667 876.364 77.112C876.364 76.408 876.423 75.7093 876.54 75.016C876.658 74.3227 876.866 73.6987 877.164 73.144C877.463 72.5787 877.879 72.1307 878.412 71.8C878.956 71.4587 879.644 71.288 880.476 71.288H884.172C884.812 71.288 885.351 71.4053 885.788 71.64C886.226 71.864 886.583 72.1787 886.86 72.584C887.148 72.9787 887.367 73.4267 887.516 73.928C887.676 74.4293 887.783 74.952 887.836 75.496C887.89 76.04 887.916 76.5787 887.916 77.112C887.916 77.9973 887.831 78.8027 887.66 79.528C887.5 80.2533 887.26 80.8773 886.94 81.4C886.631 81.912 886.242 82.3067 885.772 82.584C885.314 82.8613 884.78 83 884.172 83H880.476ZM881.644 80.648C881.218 80.648 880.818 80.5573 880.444 80.376C880.071 80.184 879.767 79.8373 879.532 79.336C879.308 78.824 879.196 78.0987 879.196 77.16C879.196 76.296 879.298 75.6133 879.5 75.112C879.714 74.6 880.002 74.232 880.364 74.008C880.738 73.784 881.164 73.672 881.644 73.672C881.868 73.672 882.14 73.6827 882.46 73.704C882.78 73.7253 883.116 73.7627 883.468 73.816C883.82 73.8587 884.14 73.9173 884.428 73.992V74.744C884.119 74.6907 883.804 74.6533 883.484 74.632C883.164 74.6 882.871 74.5787 882.604 74.568C882.338 74.5573 882.114 74.552 881.932 74.552C881.548 74.552 881.223 74.6373 880.956 74.808C880.69 74.968 880.487 75.24 880.348 75.624C880.21 76.008 880.14 76.536 880.14 77.208C880.14 78.072 880.279 78.7173 880.556 79.144C880.834 79.56 881.287 79.768 881.916 79.768C882.428 79.768 882.903 79.7467 883.34 79.704C883.788 79.6507 884.183 79.5867 884.524 79.512V80.264C884.066 80.4347 883.602 80.5413 883.132 80.584C882.663 80.6267 882.167 80.648 881.644 80.648ZM880.476 82.12H884.092C884.647 82.12 885.138 81.9493 885.564 81.608C886.002 81.256 886.343 80.712 886.588 79.976C886.844 79.2293 886.972 78.2747 886.972 77.112C886.972 76.472 886.93 75.8587 886.844 75.272C886.77 74.6747 886.631 74.1467 886.428 73.688C886.226 73.2187 885.938 72.8507 885.564 72.584C885.202 72.3067 884.738 72.168 884.172 72.168H880.476C880.071 72.168 879.676 72.2427 879.292 72.392C878.919 72.5413 878.583 72.7973 878.284 73.16C877.996 73.5227 877.762 74.024 877.58 74.664C877.399 75.304 877.308 76.12 877.308 77.112C877.298 77.7413 877.356 78.3547 877.484 78.952C877.612 79.5493 877.804 80.088 878.06 80.568C878.316 81.048 878.647 81.4267 879.052 81.704C879.458 81.9813 879.932 82.12 880.476 82.12ZM893.879 83V81.704L898.103 77.592C898.508 77.208 898.834 76.8507 899.079 76.52C899.324 76.1893 899.5 75.8587 899.607 75.528C899.724 75.1867 899.783 74.8187 899.783 74.424C899.783 74.072 899.714 73.7627 899.575 73.496C899.447 73.2187 899.218 73.0053 898.887 72.856C898.556 72.7067 898.087 72.632 897.479 72.632H894.247V71.384C894.738 71.32 895.282 71.2613 895.879 71.208C896.487 71.144 897.132 71.112 897.815 71.112C898.722 71.112 899.431 71.24 899.943 71.496C900.466 71.7413 900.834 72.0987 901.047 72.568C901.271 73.0267 901.383 73.5707 901.383 74.2C901.383 74.744 901.308 75.2453 901.159 75.704C901.02 76.152 900.802 76.5893 900.503 77.016C900.204 77.432 899.82 77.8693 899.351 78.328L896.039 81.528H901.799V83H893.879ZM906.596 83.048C905.999 83.048 905.476 82.9467 905.028 82.744C904.58 82.5307 904.233 82.2107 903.988 81.784C903.743 81.3573 903.62 80.8187 903.62 80.168V74.072C903.62 73.4213 903.743 72.8773 903.988 72.44C904.233 72.0027 904.58 71.672 905.028 71.448C905.487 71.224 906.009 71.112 906.596 71.112H908.948C909.609 71.112 910.148 71.2347 910.564 71.48C910.991 71.7253 911.305 72.0667 911.508 72.504C911.721 72.9413 911.828 73.464 911.828 74.072V80.168C911.828 81.1387 911.567 81.864 911.044 82.344C910.532 82.8133 909.828 83.048 908.932 83.048H906.596ZM906.932 81.592H908.548C909.135 81.592 909.556 81.448 909.812 81.16C910.079 80.872 910.212 80.4667 910.212 79.944V74.216C910.212 73.64 910.073 73.2187 909.796 72.952C909.519 72.6853 909.124 72.552 908.612 72.552H906.884C906.372 72.552 905.967 72.696 905.668 72.984C905.369 73.272 905.22 73.6827 905.22 74.216V79.944C905.22 80.4987 905.369 80.9147 905.668 81.192C905.977 81.4587 906.399 81.592 906.932 81.592ZM913.785 83V81.704L918.009 77.592C918.414 77.208 918.74 76.8507 918.985 76.52C919.23 76.1893 919.406 75.8587 919.513 75.528C919.63 75.1867 919.689 74.8187 919.689 74.424C919.689 74.072 919.62 73.7627 919.481 73.496C919.353 73.2187 919.124 73.0053 918.793 72.856C918.462 72.7067 917.993 72.632 917.385 72.632H914.153V71.384C914.644 71.32 915.188 71.2613 915.785 71.208C916.393 71.144 917.038 71.112 917.721 71.112C918.628 71.112 919.337 71.24 919.849 71.496C920.372 71.7413 920.74 72.0987 920.953 72.568C921.177 73.0267 921.289 73.5707 921.289 74.2C921.289 74.744 921.214 75.2453 921.065 75.704C920.926 76.152 920.708 76.5893 920.409 77.016C920.11 77.432 919.726 77.8693 919.257 78.328L915.945 81.528H921.705V83H913.785ZM927.43 83.096C926.577 83.096 925.777 83.0747 925.03 83.032C924.294 82.9893 923.644 82.9307 923.078 82.856V81.592H926.854C927.313 81.592 927.708 81.5493 928.038 81.464C928.369 81.368 928.625 81.208 928.806 80.984C928.998 80.76 929.094 80.4347 929.094 80.008V79.32C929.094 78.936 929.004 78.6373 928.822 78.424C928.641 78.2 928.406 78.04 928.118 77.944C927.83 77.848 927.526 77.7947 927.206 77.784L924.214 77.656V76.456L927.142 76.328C927.686 76.296 928.124 76.1787 928.454 75.976C928.785 75.7733 928.95 75.4267 928.95 74.936V74.264C928.95 73.7413 928.769 73.3413 928.406 73.064C928.054 72.776 927.505 72.632 926.758 72.632H923.43V71.368C923.953 71.2933 924.545 71.2293 925.206 71.176C925.868 71.1227 926.593 71.1013 927.382 71.112C928.086 71.112 928.668 71.2293 929.126 71.464C929.596 71.688 929.948 72.0133 930.182 72.44C930.417 72.856 930.534 73.352 930.534 73.928V74.888C930.534 75.24 930.481 75.544 930.374 75.8C930.278 76.0453 930.145 76.2587 929.974 76.44C929.814 76.6107 929.638 76.744 929.446 76.84C929.254 76.936 929.073 77.0107 928.902 77.064C929.094 77.1067 929.292 77.192 929.494 77.32C929.708 77.4373 929.905 77.5973 930.086 77.8C930.278 77.992 930.433 78.232 930.55 78.52C930.668 78.808 930.726 79.1387 930.726 79.512V80.28C930.726 81.1973 930.433 81.896 929.846 82.376C929.27 82.856 928.465 83.096 927.43 83.096ZM939.648 83C939.147 83 938.704 82.9253 938.32 82.776C937.947 82.616 937.659 82.3547 937.456 81.992C937.254 81.6187 937.152 81.1227 937.152 80.504V71.208H938.768V80.264C938.768 80.6053 938.827 80.872 938.944 81.064C939.062 81.2453 939.216 81.368 939.408 81.432C939.6 81.496 939.808 81.528 940.032 81.528H944.112V83H939.648ZM945.86 73C945.668 73 945.572 72.9093 945.572 72.728V71.384C945.572 71.192 945.668 71.096 945.86 71.096H947.044C947.129 71.096 947.193 71.1227 947.236 71.176C947.278 71.2293 947.3 71.2987 947.3 71.384V72.728C947.3 72.9093 947.214 73 947.044 73H945.86ZM945.636 83V74.44H947.236V83H945.636ZM949.479 83V74.44H950.759L951.079 75.368C951.463 75.0907 951.917 74.8453 952.439 74.632C952.973 74.408 953.522 74.296 954.087 74.296C954.727 74.296 955.239 74.4347 955.623 74.712C956.018 74.9787 956.301 75.336 956.471 75.784C956.642 76.232 956.727 76.7173 956.727 77.24V83H955.127V77.432C955.127 77.0907 955.058 76.7973 954.919 76.552C954.791 76.296 954.61 76.0987 954.375 75.96C954.141 75.8213 953.853 75.752 953.511 75.752C953.191 75.752 952.893 75.784 952.615 75.848C952.349 75.912 952.093 76.0027 951.847 76.12C951.602 76.2267 951.346 76.36 951.079 76.52V83H949.479ZM958.917 83V70.792H960.517V77.72H961.685L964.069 74.44H965.733L962.869 78.44L965.941 83H964.261L961.637 79.16H960.517V83H958.917ZM970.637 83.096C969.73 83.096 969.005 82.9627 968.461 82.696C967.927 82.4293 967.543 81.9813 967.309 81.352C967.085 80.712 966.973 79.832 966.973 78.712C966.973 77.5707 967.085 76.6853 967.309 76.056C967.543 75.416 967.927 74.968 968.461 74.712C968.994 74.456 969.714 74.328 970.621 74.328C971.41 74.328 972.045 74.4133 972.525 74.584C973.015 74.744 973.373 75.0373 973.597 75.464C973.831 75.88 973.949 76.4613 973.949 77.208C973.949 77.7307 973.842 78.1467 973.629 78.456C973.426 78.7653 973.133 78.9893 972.749 79.128C972.375 79.2667 971.927 79.336 971.405 79.336H968.573C968.583 79.9547 968.653 80.4507 968.781 80.824C968.919 81.1867 969.159 81.4533 969.501 81.624C969.853 81.784 970.365 81.864 971.037 81.864H973.709V82.824C973.25 82.888 972.781 82.9467 972.301 83C971.821 83.064 971.266 83.096 970.637 83.096ZM968.557 78.328H971.261C971.687 78.328 972.002 78.248 972.205 78.088C972.407 77.928 972.509 77.6347 972.509 77.208C972.509 76.7813 972.445 76.4453 972.317 76.2C972.199 75.9547 972.002 75.7787 971.725 75.672C971.447 75.5653 971.079 75.512 970.621 75.512C970.098 75.512 969.682 75.592 969.373 75.752C969.074 75.912 968.861 76.1947 968.733 76.6C968.615 77.0053 968.557 77.5813 968.557 78.328ZM978.685 83.096C977.992 83.096 977.416 82.9467 976.957 82.648C976.509 82.3493 976.173 81.8853 975.949 81.256C975.725 80.616 975.613 79.7947 975.613 78.792C975.613 77.736 975.715 76.8827 975.917 76.232C976.131 75.5707 976.472 75.0907 976.941 74.792C977.411 74.4827 978.045 74.328 978.845 74.328C979.293 74.328 979.736 74.376 980.173 74.472C980.621 74.568 981.011 74.6747 981.341 74.792V70.792H982.941V83H981.629L981.341 82.152C981.171 82.3013 980.936 82.4507 980.637 82.6C980.339 82.7387 980.019 82.856 979.677 82.952C979.336 83.048 979.005 83.096 978.685 83.096ZM979.197 81.784C979.635 81.784 980.029 81.7147 980.381 81.576C980.744 81.4373 981.064 81.2933 981.341 81.144V75.944C981.011 75.848 980.685 75.7627 980.365 75.688C980.056 75.6027 979.709 75.56 979.325 75.56C978.824 75.56 978.419 75.6507 978.109 75.832C977.8 76.0133 977.576 76.3333 977.437 76.792C977.299 77.2507 977.229 77.8907 977.229 78.712C977.229 79.4693 977.293 80.0773 977.421 80.536C977.549 80.984 977.757 81.304 978.045 81.496C978.344 81.688 978.728 81.784 979.197 81.784ZM989.434 83V71.208H993.818C994.874 71.208 995.658 71.464 996.17 71.976C996.692 72.488 996.954 73.2453 996.954 74.248C996.954 74.7387 996.879 75.1653 996.73 75.528C996.591 75.88 996.394 76.1733 996.138 76.408C995.892 76.632 995.615 76.7867 995.306 76.872C995.53 76.936 995.759 77.032 995.994 77.16C996.239 77.288 996.463 77.4693 996.666 77.704C996.879 77.928 997.05 78.2107 997.178 78.552C997.306 78.8827 997.37 79.2773 997.37 79.736C997.37 80.5573 997.231 81.208 996.954 81.688C996.687 82.1573 996.303 82.4933 995.802 82.696C995.3 82.8987 994.698 83 993.994 83H989.434ZM991.05 81.56H993.946C994.33 81.56 994.66 81.496 994.938 81.368C995.215 81.24 995.434 81.0267 995.594 80.728C995.754 80.4293 995.834 80.008 995.834 79.464C995.834 79.0693 995.748 78.7333 995.578 78.456C995.407 78.168 995.178 77.9493 994.89 77.8C994.612 77.6507 994.298 77.576 993.946 77.576H991.05V81.56ZM991.05 76.328H993.866C994.324 76.328 994.692 76.1627 994.97 75.832C995.258 75.4907 995.407 75.048 995.418 74.504C995.439 73.8107 995.295 73.3307 994.986 73.064C994.676 72.7867 994.282 72.648 993.802 72.648H991.05V76.328ZM999.167 83V74.44H1000.4L1000.77 75.88C1001.13 75.4427 1001.53 75.0747 1001.98 74.776C1002.43 74.4773 1002.95 74.328 1003.55 74.328C1003.69 74.328 1003.82 74.3387 1003.95 74.36C1004.08 74.3707 1004.2 74.392 1004.32 74.424V76.072C1004.17 76.0507 1004.01 76.0347 1003.85 76.024C1003.69 76.0027 1003.53 75.992 1003.36 75.992C1003 75.992 1002.67 76.0347 1002.38 76.12C1002.09 76.2053 1001.82 76.3387 1001.55 76.52C1001.29 76.6907 1001.03 76.904 1000.77 77.16V83H999.167ZM1006.05 73C1005.86 73 1005.76 72.9093 1005.76 72.728V71.384C1005.76 71.192 1005.86 71.096 1006.05 71.096H1007.23C1007.32 71.096 1007.38 71.1227 1007.42 71.176C1007.47 71.2293 1007.49 71.2987 1007.49 71.384V72.728C1007.49 72.9093 1007.4 73 1007.23 73H1006.05ZM1005.82 83V74.44H1007.42V83H1005.82ZM1012.85 83.096C1012.35 83.096 1011.89 83.032 1011.46 82.904C1011.04 82.7653 1010.67 82.536 1010.35 82.216C1010.05 81.896 1009.81 81.4533 1009.63 80.888C1009.46 80.3227 1009.38 79.608 1009.38 78.744C1009.38 77.8587 1009.46 77.1333 1009.62 76.568C1009.78 75.992 1010.01 75.544 1010.31 75.224C1010.62 74.8933 1010.99 74.664 1011.43 74.536C1011.86 74.408 1012.35 74.344 1012.9 74.344C1013.35 74.344 1013.82 74.3653 1014.31 74.408C1014.81 74.4507 1015.29 74.52 1015.76 74.616V75.56H1013.35C1012.82 75.56 1012.39 75.6453 1012.03 75.816C1011.68 75.976 1011.42 76.2907 1011.25 76.76C1011.08 77.2187 1010.99 77.8853 1010.99 78.76C1010.99 79.6027 1011.09 80.2533 1011.27 80.712C1011.45 81.16 1011.71 81.464 1012.05 81.624C1012.4 81.784 1012.84 81.864 1013.36 81.864H1015.89V82.776C1015.65 82.84 1015.35 82.8987 1015.01 82.952C1014.68 82.9947 1014.33 83.0267 1013.95 83.048C1013.59 83.08 1013.22 83.096 1012.85 83.096ZM1017.51 83V70.792H1019.11V77.72H1020.28L1022.66 74.44H1024.33L1021.46 78.44L1024.53 83H1022.85L1020.23 79.16H1019.11V83H1017.51ZM1028.85 83.096C1028.62 83.096 1028.36 83.0907 1028.05 83.08C1027.74 83.0693 1027.42 83.048 1027.09 83.016C1026.77 82.9947 1026.47 82.968 1026.19 82.936C1025.92 82.904 1025.71 82.8667 1025.55 82.824V81.864H1029.15C1029.46 81.864 1029.73 81.8427 1029.95 81.8C1030.17 81.7467 1030.35 81.64 1030.46 81.48C1030.59 81.32 1030.65 81.0853 1030.65 80.776V80.424C1030.65 80.104 1030.55 79.8533 1030.33 79.672C1030.12 79.4907 1029.77 79.4 1029.28 79.4H1028.03C1027.53 79.4 1027.08 79.336 1026.69 79.208C1026.3 79.0693 1026 78.84 1025.77 78.52C1025.56 78.2 1025.45 77.768 1025.45 77.224V76.76C1025.45 76.216 1025.56 75.768 1025.76 75.416C1025.97 75.064 1026.31 74.8027 1026.77 74.632C1027.23 74.4507 1027.83 74.36 1028.59 74.36C1028.91 74.36 1029.26 74.376 1029.65 74.408C1030.04 74.4293 1030.43 74.4613 1030.8 74.504C1031.17 74.5467 1031.47 74.5947 1031.69 74.648V75.608H1028.3C1027.83 75.608 1027.47 75.688 1027.21 75.848C1026.97 76.008 1026.85 76.312 1026.85 76.76V77.08C1026.85 77.3573 1026.91 77.5707 1027.02 77.72C1027.14 77.8693 1027.31 77.9653 1027.52 78.008C1027.74 78.0507 1028 78.072 1028.3 78.072H1029.58C1030.39 78.072 1031.01 78.264 1031.42 78.648C1031.84 79.0213 1032.05 79.5493 1032.05 80.232V80.888C1032.05 81.464 1031.91 81.912 1031.65 82.232C1031.38 82.552 1031.01 82.776 1030.53 82.904C1030.06 83.032 1029.5 83.096 1028.85 83.096ZM1040.66 83C1040.16 83 1039.72 82.9253 1039.34 82.776C1038.96 82.616 1038.67 82.3547 1038.47 81.992C1038.27 81.6187 1038.17 81.1227 1038.17 80.504V71.208H1039.78V80.264C1039.78 80.6053 1039.84 80.872 1039.96 81.064C1040.08 81.2453 1040.23 81.368 1040.42 81.432C1040.62 81.496 1040.82 81.528 1041.05 81.528H1045.13V83H1040.66ZM1046.88 73C1046.68 73 1046.59 72.9093 1046.59 72.728V71.384C1046.59 71.192 1046.68 71.096 1046.88 71.096H1048.06C1048.14 71.096 1048.21 71.1227 1048.25 71.176C1048.29 71.2293 1048.32 71.2987 1048.32 71.384V72.728C1048.32 72.9093 1048.23 73 1048.06 73H1046.88ZM1046.65 83V74.44H1048.25V83H1046.65ZM1050.5 83V74.44H1051.78L1052.1 75.368C1052.51 75.08 1052.97 74.8293 1053.47 74.616C1053.97 74.4027 1054.55 74.296 1055.2 74.296C1055.73 74.296 1056.19 74.4133 1056.56 74.648C1056.93 74.8827 1057.22 75.1813 1057.41 75.544C1057.66 75.352 1057.97 75.16 1058.34 74.968C1058.7 74.776 1059.09 74.616 1059.5 74.488C1059.92 74.36 1060.32 74.296 1060.7 74.296C1061.34 74.296 1061.86 74.4293 1062.26 74.696C1062.66 74.952 1062.95 75.3093 1063.12 75.768C1063.3 76.216 1063.39 76.728 1063.39 77.304V83H1061.79V77.432C1061.79 77.0907 1061.72 76.7973 1061.58 76.552C1061.46 76.296 1061.27 76.0987 1061.02 75.96C1060.79 75.8213 1060.5 75.752 1060.16 75.752C1059.73 75.752 1059.3 75.8373 1058.85 76.008C1058.4 76.168 1057.99 76.3653 1057.62 76.6C1057.66 76.7387 1057.69 76.8827 1057.71 77.032C1057.73 77.1707 1057.74 77.3093 1057.74 77.448V83H1056.14V77.432C1056.14 77.0907 1056.07 76.7973 1055.94 76.552C1055.81 76.296 1055.63 76.0987 1055.39 75.96C1055.16 75.8213 1054.87 75.752 1054.53 75.752C1054.21 75.752 1053.91 75.784 1053.63 75.848C1053.36 75.912 1053.11 76.0027 1052.86 76.12C1052.62 76.2267 1052.36 76.36 1052.1 76.52V83H1050.5ZM1065.81 73C1065.62 73 1065.52 72.9093 1065.52 72.728V71.384C1065.52 71.192 1065.62 71.096 1065.81 71.096H1067C1067.08 71.096 1067.15 71.1227 1067.19 71.176C1067.23 71.2293 1067.25 71.2987 1067.25 71.384V72.728C1067.25 72.9093 1067.17 73 1067 73H1065.81ZM1065.59 83V74.44H1067.19V83H1065.59ZM1072.39 83C1071.82 83 1071.34 82.9093 1070.95 82.728C1070.58 82.536 1070.3 82.232 1070.12 81.816C1069.95 81.4 1069.87 80.8453 1069.88 80.152L1069.94 75.752H1068.58V74.712L1069.98 74.44L1070.22 72.04H1071.48V74.44H1073.8V75.752H1071.48V80.136C1071.48 80.4667 1071.51 80.7333 1071.58 80.936C1071.64 81.1387 1071.73 81.2933 1071.85 81.4C1071.97 81.5067 1072.09 81.5867 1072.23 81.64C1072.37 81.6827 1072.5 81.7093 1072.63 81.72L1073.69 81.816V83H1072.39ZM1078.79 83.096C1077.89 83.096 1077.16 82.9627 1076.62 82.696C1076.08 82.4293 1075.7 81.9813 1075.46 81.352C1075.24 80.712 1075.13 79.832 1075.13 78.712C1075.13 77.5707 1075.24 76.6853 1075.46 76.056C1075.7 75.416 1076.08 74.968 1076.62 74.712C1077.15 74.456 1077.87 74.328 1078.78 74.328C1079.57 74.328 1080.2 74.4133 1080.68 74.584C1081.17 74.744 1081.53 75.0373 1081.75 75.464C1081.99 75.88 1082.1 76.4613 1082.1 77.208C1082.1 77.7307 1082 78.1467 1081.78 78.456C1081.58 78.7653 1081.29 78.9893 1080.9 79.128C1080.53 79.2667 1080.08 79.336 1079.56 79.336H1076.73C1076.74 79.9547 1076.81 80.4507 1076.94 80.824C1077.08 81.1867 1077.32 81.4533 1077.66 81.624C1078.01 81.784 1078.52 81.864 1079.19 81.864H1081.86V82.824C1081.41 82.888 1080.94 82.9467 1080.46 83C1079.98 83.064 1079.42 83.096 1078.79 83.096ZM1076.71 78.328H1079.42C1079.84 78.328 1080.16 78.248 1080.36 78.088C1080.56 77.928 1080.66 77.6347 1080.66 77.208C1080.66 76.7813 1080.6 76.4453 1080.47 76.2C1080.36 75.9547 1080.16 75.7787 1079.88 75.672C1079.6 75.5653 1079.24 75.512 1078.78 75.512C1078.25 75.512 1077.84 75.592 1077.53 75.752C1077.23 75.912 1077.02 76.1947 1076.89 76.6C1076.77 77.0053 1076.71 77.5813 1076.71 78.328ZM1086.84 83.096C1086.15 83.096 1085.57 82.9467 1085.11 82.648C1084.67 82.3493 1084.33 81.8853 1084.11 81.256C1083.88 80.616 1083.77 79.7947 1083.77 78.792C1083.77 77.736 1083.87 76.8827 1084.07 76.232C1084.29 75.5707 1084.63 75.0907 1085.1 74.792C1085.57 74.4827 1086.2 74.328 1087 74.328C1087.45 74.328 1087.89 74.376 1088.33 74.472C1088.78 74.568 1089.17 74.6747 1089.5 74.792V70.792H1091.1V83H1089.79L1089.5 82.152C1089.33 82.3013 1089.09 82.4507 1088.79 82.6C1088.49 82.7387 1088.17 82.856 1087.83 82.952C1087.49 83.048 1087.16 83.096 1086.84 83.096ZM1087.35 81.784C1087.79 81.784 1088.19 81.7147 1088.54 81.576C1088.9 81.4373 1089.22 81.2933 1089.5 81.144V75.944C1089.17 75.848 1088.84 75.7627 1088.52 75.688C1088.21 75.6027 1087.87 75.56 1087.48 75.56C1086.98 75.56 1086.57 75.6507 1086.27 75.832C1085.96 76.0133 1085.73 76.3333 1085.59 76.792C1085.45 77.2507 1085.39 77.8907 1085.39 78.712C1085.39 79.4693 1085.45 80.0773 1085.58 80.536C1085.71 80.984 1085.91 81.304 1086.2 81.496C1086.5 81.688 1086.88 81.784 1087.35 81.784ZM1093.4 83.016C1093.22 83.016 1093.13 82.9253 1093.13 82.744V81.352C1093.13 81.16 1093.22 81.064 1093.4 81.064H1094.32C1094.51 81.064 1094.6 81.16 1094.6 81.352V82.744C1094.6 82.84 1094.58 82.9093 1094.52 82.952C1094.47 82.9947 1094.4 83.016 1094.32 83.016H1093.4ZM1100.25 83L1104.18 71.208H1106.23L1110.17 83H1108.49L1107.45 79.912H1102.93L1101.91 83H1100.25ZM1103.32 78.456H1107.05L1105.19 72.616L1103.32 78.456ZM1113.97 83.016C1113.45 83.016 1113.01 82.9253 1112.64 82.744C1112.29 82.5627 1112.03 82.2747 1111.84 81.88C1111.67 81.4747 1111.59 80.9307 1111.59 80.248V70.792H1113.19V80.04C1113.19 80.488 1113.23 80.8347 1113.32 81.08C1113.41 81.3147 1113.54 81.48 1113.7 81.576C1113.87 81.672 1114.07 81.736 1114.29 81.768L1115.09 81.864V83.016H1113.97ZM1118.77 83.016C1118.25 83.016 1117.8 82.9253 1117.44 82.744C1117.09 82.5627 1116.82 82.2747 1116.64 81.88C1116.47 81.4747 1116.39 80.9307 1116.39 80.248V70.792H1117.99V80.04C1117.99 80.488 1118.03 80.8347 1118.11 81.08C1118.21 81.3147 1118.34 81.48 1118.5 81.576C1118.67 81.672 1118.87 81.736 1119.09 81.768L1119.89 81.864V83.016H1118.77ZM1125.43 83V74.44H1126.66L1127.03 75.88C1127.4 75.4427 1127.8 75.0747 1128.25 74.776C1128.7 74.4773 1129.22 74.328 1129.82 74.328C1129.96 74.328 1130.09 74.3387 1130.22 74.36C1130.34 74.3707 1130.47 74.392 1130.58 74.424V76.072C1130.44 76.0507 1130.28 76.0347 1130.12 76.024C1129.96 76.0027 1129.8 75.992 1129.62 75.992C1129.26 75.992 1128.94 76.0347 1128.65 76.12C1128.36 76.2053 1128.08 76.3387 1127.82 76.52C1127.56 76.6907 1127.3 76.904 1127.03 77.16V83H1125.43ZM1132.31 73C1132.12 73 1132.02 72.9093 1132.02 72.728V71.384C1132.02 71.192 1132.12 71.096 1132.31 71.096H1133.5C1133.58 71.096 1133.65 71.1227 1133.69 71.176C1133.73 71.2293 1133.75 71.2987 1133.75 71.384V72.728C1133.75 72.9093 1133.67 73 1133.5 73H1132.31ZM1132.09 83V74.44H1133.69V83H1132.09ZM1138.06 86.936C1137.52 86.936 1137.03 86.856 1136.6 86.696C1136.19 86.5467 1135.86 86.312 1135.61 85.992C1135.37 85.6827 1135.24 85.2987 1135.24 84.84V84.488C1135.24 84.008 1135.38 83.6027 1135.64 83.272C1135.92 82.952 1136.27 82.7067 1136.68 82.536C1137.1 82.3653 1137.53 82.28 1137.98 82.28L1138.41 82.872C1138.12 82.872 1137.85 82.9147 1137.6 83C1137.35 83.096 1137.15 83.24 1136.99 83.432C1136.84 83.6347 1136.76 83.8907 1136.76 84.2V84.504C1136.76 84.952 1136.91 85.2773 1137.21 85.48C1137.52 85.6827 1137.94 85.784 1138.48 85.784H1140.35C1140.91 85.784 1141.36 85.672 1141.69 85.448C1142.02 85.2347 1142.19 84.8987 1142.19 84.44V84.136C1142.19 83.88 1142.13 83.656 1142.01 83.464C1141.91 83.272 1141.73 83.1227 1141.48 83.016C1141.24 82.92 1140.9 82.872 1140.48 82.872H1138.11C1137.35 82.872 1136.78 82.7173 1136.38 82.408C1135.99 82.0987 1135.79 81.7093 1135.79 81.24C1135.79 80.8133 1135.91 80.472 1136.16 80.216C1136.41 79.9493 1136.77 79.768 1137.23 79.672C1136.84 79.5013 1136.54 79.2827 1136.32 79.016C1136.1 78.7493 1135.95 78.4613 1135.87 78.152C1135.78 77.832 1135.74 77.512 1135.74 77.192C1135.74 76.5413 1135.87 76.0133 1136.14 75.608C1136.41 75.2027 1136.79 74.904 1137.29 74.712C1137.8 74.52 1138.41 74.424 1139.12 74.424H1143.72V75.336L1141.98 75.512C1142.11 75.608 1142.25 75.736 1142.4 75.896C1142.55 76.0453 1142.67 76.2533 1142.78 76.52C1142.89 76.7867 1142.94 77.1387 1142.94 77.576C1142.94 78.0347 1142.84 78.4613 1142.64 78.856C1142.44 79.2507 1142.12 79.5707 1141.68 79.816C1141.24 80.0613 1140.64 80.184 1139.88 80.184H1138.48C1138.07 80.184 1137.75 80.2427 1137.52 80.36C1137.28 80.4773 1137.16 80.6853 1137.16 80.984C1137.16 81.2293 1137.26 81.4 1137.44 81.496C1137.62 81.592 1137.81 81.64 1138.01 81.64H1140.72C1141.37 81.64 1141.91 81.7253 1142.35 81.896C1142.8 82.0667 1143.13 82.328 1143.36 82.68C1143.58 83.032 1143.69 83.4907 1143.69 84.056V84.36C1143.69 85.1707 1143.43 85.8 1142.89 86.248C1142.37 86.7067 1141.58 86.936 1140.51 86.936H1138.06ZM1138.76 78.952H1139.71C1140.19 78.952 1140.55 78.8827 1140.8 78.744C1141.05 78.5947 1141.23 78.4027 1141.32 78.168C1141.42 77.9333 1141.47 77.672 1141.47 77.384C1141.47 76.9573 1141.4 76.6213 1141.26 76.376C1141.12 76.12 1140.93 75.9387 1140.68 75.832C1140.45 75.7147 1140.16 75.656 1139.82 75.656H1138.92C1138.38 75.656 1137.95 75.7787 1137.64 76.024C1137.35 76.2693 1137.2 76.6907 1137.2 77.288C1137.2 77.8747 1137.34 78.3013 1137.61 78.568C1137.89 78.824 1138.27 78.952 1138.76 78.952ZM1145.18 83V70.792H1146.78V75.368C1147.16 75.0907 1147.61 74.8453 1148.14 74.632C1148.68 74.408 1149.23 74.296 1149.79 74.296C1150.41 74.296 1150.91 74.424 1151.29 74.68C1151.69 74.936 1151.98 75.288 1152.16 75.736C1152.34 76.1733 1152.43 76.6693 1152.43 77.224V83H1150.83V77.416C1150.83 77.0853 1150.76 76.7973 1150.62 76.552C1150.49 76.296 1150.31 76.0987 1150.06 75.96C1149.83 75.8213 1149.55 75.752 1149.21 75.752C1148.89 75.752 1148.6 75.784 1148.32 75.848C1148.05 75.912 1147.8 76.0027 1147.55 76.12C1147.31 76.2373 1147.05 76.3707 1146.78 76.52V83H1145.18ZM1157.58 83C1157 83 1156.52 82.9093 1156.14 82.728C1155.77 82.536 1155.49 82.232 1155.31 81.816C1155.14 81.4 1155.06 80.8453 1155.07 80.152L1155.13 75.752H1153.77V74.712L1155.16 74.44L1155.4 72.04H1156.67V74.44H1158.99V75.752H1156.67V80.136C1156.67 80.4667 1156.7 80.7333 1156.76 80.936C1156.83 81.1387 1156.92 81.2933 1157.04 81.4C1157.15 81.5067 1157.28 81.5867 1157.42 81.64C1157.56 81.6827 1157.69 81.7093 1157.82 81.72L1158.88 81.816V83H1157.58ZM1163.6 83.096C1163.37 83.096 1163.11 83.0907 1162.8 83.08C1162.49 83.0693 1162.17 83.048 1161.84 83.016C1161.52 82.9947 1161.22 82.968 1160.94 82.936C1160.67 82.904 1160.46 82.8667 1160.3 82.824V81.864H1163.9C1164.21 81.864 1164.48 81.8427 1164.7 81.8C1164.92 81.7467 1165.1 81.64 1165.21 81.48C1165.34 81.32 1165.4 81.0853 1165.4 80.776V80.424C1165.4 80.104 1165.3 79.8533 1165.08 79.672C1164.87 79.4907 1164.52 79.4 1164.03 79.4H1162.78C1162.28 79.4 1161.83 79.336 1161.44 79.208C1161.05 79.0693 1160.75 78.84 1160.52 78.52C1160.31 78.2 1160.2 77.768 1160.2 77.224V76.76C1160.2 76.216 1160.31 75.768 1160.51 75.416C1160.72 75.064 1161.06 74.8027 1161.52 74.632C1161.98 74.4507 1162.58 74.36 1163.34 74.36C1163.66 74.36 1164.01 74.376 1164.4 74.408C1164.79 74.4293 1165.18 74.4613 1165.55 74.504C1165.92 74.5467 1166.22 74.5947 1166.44 74.648V75.608H1163.05C1162.58 75.608 1162.22 75.688 1161.96 75.848C1161.72 76.008 1161.6 76.312 1161.6 76.76V77.08C1161.6 77.3573 1161.66 77.5707 1161.77 77.72C1161.89 77.8693 1162.06 77.9653 1162.27 78.008C1162.49 78.0507 1162.75 78.072 1163.05 78.072H1164.33C1165.14 78.072 1165.76 78.264 1166.17 78.648C1166.59 79.0213 1166.8 79.5493 1166.8 80.232V80.888C1166.8 81.464 1166.66 81.912 1166.4 82.232C1166.13 82.552 1165.76 82.776 1165.28 82.904C1164.81 83.032 1164.25 83.096 1163.6 83.096ZM1172.87 83V74.44H1174.1L1174.47 75.88C1174.83 75.4427 1175.24 75.0747 1175.69 74.776C1176.13 74.4773 1176.66 74.328 1177.25 74.328C1177.39 74.328 1177.53 74.3387 1177.65 74.36C1177.78 74.3707 1177.9 74.392 1178.02 74.424V76.072C1177.87 76.0507 1177.72 76.0347 1177.56 76.024C1177.4 76.0027 1177.23 75.992 1177.06 75.992C1176.7 75.992 1176.37 76.0347 1176.09 76.12C1175.8 76.2053 1175.52 76.3387 1175.25 76.52C1175 76.6907 1174.74 76.904 1174.47 77.16V83H1172.87ZM1182.9 83.096C1182 83.096 1181.27 82.9627 1180.73 82.696C1180.19 82.4293 1179.81 81.9813 1179.57 81.352C1179.35 80.712 1179.24 79.832 1179.24 78.712C1179.24 77.5707 1179.35 76.6853 1179.57 76.056C1179.81 75.416 1180.19 74.968 1180.73 74.712C1181.26 74.456 1181.98 74.328 1182.89 74.328C1183.68 74.328 1184.31 74.4133 1184.79 74.584C1185.28 74.744 1185.64 75.0373 1185.86 75.464C1186.1 75.88 1186.21 76.4613 1186.21 77.208C1186.21 77.7307 1186.11 78.1467 1185.89 78.456C1185.69 78.7653 1185.4 78.9893 1185.01 79.128C1184.64 79.2667 1184.19 79.336 1183.67 79.336H1180.84C1180.85 79.9547 1180.92 80.4507 1181.05 80.824C1181.18 81.1867 1181.42 81.4533 1181.77 81.624C1182.12 81.784 1182.63 81.864 1183.3 81.864H1185.97V82.824C1185.52 82.888 1185.05 82.9467 1184.57 83C1184.09 83.064 1183.53 83.096 1182.9 83.096ZM1180.82 78.328H1183.53C1183.95 78.328 1184.27 78.248 1184.47 78.088C1184.67 77.928 1184.77 77.6347 1184.77 77.208C1184.77 76.7813 1184.71 76.4453 1184.58 76.2C1184.46 75.9547 1184.27 75.7787 1183.99 75.672C1183.71 75.5653 1183.34 75.512 1182.89 75.512C1182.36 75.512 1181.95 75.592 1181.64 75.752C1181.34 75.912 1181.13 76.1947 1181 76.6C1180.88 77.0053 1180.82 77.5813 1180.82 78.328ZM1191.16 83.096C1190.93 83.096 1190.67 83.0907 1190.36 83.08C1190.05 83.0693 1189.73 83.048 1189.4 83.016C1189.08 82.9947 1188.78 82.968 1188.5 82.936C1188.24 82.904 1188.02 82.8667 1187.86 82.824V81.864H1191.46C1191.77 81.864 1192.04 81.8427 1192.26 81.8C1192.49 81.7467 1192.66 81.64 1192.77 81.48C1192.9 81.32 1192.97 81.0853 1192.97 80.776V80.424C1192.97 80.104 1192.86 79.8533 1192.65 79.672C1192.43 79.4907 1192.08 79.4 1191.59 79.4H1190.34C1189.84 79.4 1189.39 79.336 1189 79.208C1188.61 79.0693 1188.31 78.84 1188.09 78.52C1187.87 78.2 1187.77 77.768 1187.77 77.224V76.76C1187.77 76.216 1187.87 75.768 1188.07 75.416C1188.28 75.064 1188.62 74.8027 1189.08 74.632C1189.54 74.4507 1190.15 74.36 1190.9 74.36C1191.22 74.36 1191.57 74.376 1191.96 74.408C1192.35 74.4293 1192.74 74.4613 1193.11 74.504C1193.48 74.5467 1193.78 74.5947 1194.01 74.648V75.608H1190.61C1190.15 75.608 1189.78 75.688 1189.53 75.848C1189.28 76.008 1189.16 76.312 1189.16 76.76V77.08C1189.16 77.3573 1189.22 77.5707 1189.33 77.72C1189.45 77.8693 1189.62 77.9653 1189.83 78.008C1190.05 78.0507 1190.32 78.072 1190.61 78.072H1191.89C1192.71 78.072 1193.32 78.264 1193.73 78.648C1194.15 79.0213 1194.36 79.5493 1194.36 80.232V80.888C1194.36 81.464 1194.23 81.912 1193.96 82.232C1193.69 82.552 1193.32 82.776 1192.84 82.904C1192.37 83.032 1191.81 83.096 1191.16 83.096ZM1199.56 83.096C1198.65 83.096 1197.93 82.9627 1197.38 82.696C1196.85 82.4293 1196.47 81.9813 1196.23 81.352C1196.01 80.712 1195.89 79.832 1195.89 78.712C1195.89 77.5707 1196.01 76.6853 1196.23 76.056C1196.47 75.416 1196.85 74.968 1197.38 74.712C1197.92 74.456 1198.64 74.328 1199.54 74.328C1200.33 74.328 1200.97 74.4133 1201.45 74.584C1201.94 74.744 1202.29 75.0373 1202.52 75.464C1202.75 75.88 1202.87 76.4613 1202.87 77.208C1202.87 77.7307 1202.76 78.1467 1202.55 78.456C1202.35 78.7653 1202.05 78.9893 1201.67 79.128C1201.3 79.2667 1200.85 79.336 1200.33 79.336H1197.49C1197.51 79.9547 1197.57 80.4507 1197.7 80.824C1197.84 81.1867 1198.08 81.4533 1198.42 81.624C1198.77 81.784 1199.29 81.864 1199.96 81.864H1202.63V82.824C1202.17 82.888 1201.7 82.9467 1201.22 83C1200.74 83.064 1200.19 83.096 1199.56 83.096ZM1197.48 78.328H1200.18C1200.61 78.328 1200.92 78.248 1201.13 78.088C1201.33 77.928 1201.43 77.6347 1201.43 77.208C1201.43 76.7813 1201.37 76.4453 1201.24 76.2C1201.12 75.9547 1200.92 75.7787 1200.65 75.672C1200.37 75.5653 1200 75.512 1199.54 75.512C1199.02 75.512 1198.6 75.592 1198.29 75.752C1198 75.912 1197.78 76.1947 1197.65 76.6C1197.54 77.0053 1197.48 77.5813 1197.48 78.328ZM1204.82 83V74.44H1206.06L1206.42 75.88C1206.79 75.4427 1207.19 75.0747 1207.64 74.776C1208.09 74.4773 1208.61 74.328 1209.21 74.328C1209.35 74.328 1209.48 74.3387 1209.61 74.36C1209.74 74.3707 1209.86 74.392 1209.98 74.424V76.072C1209.83 76.0507 1209.67 76.0347 1209.51 76.024C1209.35 76.0027 1209.19 75.992 1209.02 75.992C1208.65 75.992 1208.33 76.0347 1208.04 76.12C1207.75 76.2053 1207.47 76.3387 1207.21 76.52C1206.95 76.6907 1206.69 76.904 1206.42 77.16V83H1204.82ZM1213.74 83L1210.63 74.44H1212.28L1214.7 81.512L1217.16 74.44H1218.81L1215.59 83H1213.74ZM1223.26 83.096C1222.35 83.096 1221.63 82.9627 1221.09 82.696C1220.55 82.4293 1220.17 81.9813 1219.93 81.352C1219.71 80.712 1219.6 79.832 1219.6 78.712C1219.6 77.5707 1219.71 76.6853 1219.93 76.056C1220.17 75.416 1220.55 74.968 1221.09 74.712C1221.62 74.456 1222.34 74.328 1223.25 74.328C1224.03 74.328 1224.67 74.4133 1225.15 74.584C1225.64 74.744 1226 75.0373 1226.22 75.464C1226.46 75.88 1226.57 76.4613 1226.57 77.208C1226.57 77.7307 1226.47 78.1467 1226.25 78.456C1226.05 78.7653 1225.76 78.9893 1225.37 79.128C1225 79.2667 1224.55 79.336 1224.03 79.336H1221.2C1221.21 79.9547 1221.28 80.4507 1221.41 80.824C1221.54 81.1867 1221.78 81.4533 1222.13 81.624C1222.48 81.784 1222.99 81.864 1223.66 81.864H1226.33V82.824C1225.87 82.888 1225.41 82.9467 1224.93 83C1224.45 83.064 1223.89 83.096 1223.26 83.096ZM1221.18 78.328H1223.89C1224.31 78.328 1224.63 78.248 1224.83 78.088C1225.03 77.928 1225.13 77.6347 1225.13 77.208C1225.13 76.7813 1225.07 76.4453 1224.94 76.2C1224.82 75.9547 1224.63 75.7787 1224.35 75.672C1224.07 75.5653 1223.7 75.512 1223.25 75.512C1222.72 75.512 1222.31 75.592 1222 75.752C1221.7 75.912 1221.49 76.1947 1221.36 76.6C1221.24 77.0053 1221.18 77.5813 1221.18 78.328ZM1231.31 83.096C1230.62 83.096 1230.04 82.9467 1229.58 82.648C1229.13 82.3493 1228.8 81.8853 1228.57 81.256C1228.35 80.616 1228.24 79.7947 1228.24 78.792C1228.24 77.736 1228.34 76.8827 1228.54 76.232C1228.76 75.5707 1229.1 75.0907 1229.57 74.792C1230.04 74.4827 1230.67 74.328 1231.47 74.328C1231.92 74.328 1232.36 74.376 1232.8 74.472C1233.25 74.568 1233.64 74.6747 1233.97 74.792V70.792H1235.57V83H1234.25L1233.97 82.152C1233.8 82.3013 1233.56 82.4507 1233.26 82.6C1232.96 82.7387 1232.64 82.856 1232.3 82.952C1231.96 83.048 1231.63 83.096 1231.31 83.096ZM1231.82 81.784C1232.26 81.784 1232.65 81.7147 1233.01 81.576C1233.37 81.4373 1233.69 81.2933 1233.97 81.144V75.944C1233.64 75.848 1233.31 75.7627 1232.99 75.688C1232.68 75.6027 1232.33 75.56 1231.95 75.56C1231.45 75.56 1231.04 75.6507 1230.73 75.832C1230.42 76.0133 1230.2 76.3333 1230.06 76.792C1229.92 77.2507 1229.85 77.8907 1229.85 78.712C1229.85 79.4693 1229.92 80.0773 1230.05 80.536C1230.17 80.984 1230.38 81.304 1230.67 81.496C1230.97 81.688 1231.35 81.784 1231.82 81.784ZM1237.87 83.016C1237.69 83.016 1237.6 82.9253 1237.6 82.744V81.352C1237.6 81.16 1237.69 81.064 1237.87 81.064H1238.78C1238.98 81.064 1239.07 81.16 1239.07 81.352V82.744C1239.07 82.84 1239.05 82.9093 1238.99 82.952C1238.94 82.9947 1238.87 83.016 1238.78 83.016H1237.87Z" fill="white"/>
<defs>
<clipPath id="clip0_9784_79">
<rect width="24" height="24" fill="white" transform="translate(1080 8)"/>
</clipPath>
<clipPath id="clip1_9784_79">
<rect width="24" height="24" fill="white" transform="translate(1208 8)"/>
</clipPath>
</defs>
</svg>
