<svg width="18" height="18" viewBox="0 0 18 18" fill="none" xmlns="http://www.w3.org/2000/svg">
<path d="M17.0003 10.08V15C17.0003 17 16.0003 18 14.0003 18H11.3303C11.1643 18 11.0304 17.866 11.0304 17.7V14.622C11.0304 13.625 10.3553 12.695 9.37228 12.529C8.12329 12.319 7.03037 13.288 7.03037 14.5V17.7C7.03037 17.866 6.89632 18 6.73032 18H4.00034C2.00034 18 1.00034 17 1.00034 15V10.08C1.59034 10.36 2.24036 10.5 2.90036 10.5C4.04036 10.5 5.13031 10.1 5.97031 9.44C6.81031 10.1 7.89034 10.5 9.00034 10.5C10.1203 10.5 11.2004 10.1 12.0404 9.44C12.8804 10.1 13.9703 10.5 15.1103 10.5C15.7603 10.5 16.4103 10.36 17.0003 10.08ZM4.50034 0C2.00034 0 1.61729 0.819994 1.20529 2.03799L0.165376 5.11099C-0.272624 6.40499 0.17035 7.902 1.36435 8.592C1.81335 8.852 2.33838 9 2.89938 9C4.22938 9 5.53832 8.17 5.95432 7C6.36032 8.17 7.66936 9 8.99936 9C10.3294 9 11.6383 8.17 12.0443 7C12.4603 8.17 13.7703 9 15.0993 9C15.6613 9 16.1854 8.852 16.6344 8.592C17.8284 7.902 18.2713 6.40499 17.8333 5.11099L16.7933 2.03799C16.3833 0.819994 16.0003 0 13.5003 0H4.50034Z" fill="#0D0E0F"/>
</svg>
