<svg width="1440" height="180" viewBox="0 0 1440 180" fill="none" xmlns="http://www.w3.org/2000/svg">
<path d="M127.852 83V52.952L121.18 54.152V50.36L128.476 47.24H133.804V83H127.852ZM152.435 83.288C149.907 83.288 147.507 83.208 145.235 83.048C142.963 82.92 140.931 82.712 139.139 82.424V77.672H150.275C151.587 77.672 152.707 77.56 153.635 77.336C154.563 77.112 155.267 76.712 155.747 76.136C156.227 75.56 156.467 74.728 156.467 73.64V71.864C156.467 70.872 156.227 70.088 155.747 69.512C155.267 68.904 154.627 68.472 153.827 68.216C153.059 67.96 152.211 67.816 151.283 67.784L142.451 67.4V62.888L151.043 62.456C152.611 62.392 153.827 62.088 154.691 61.544C155.587 61 156.035 60.104 156.035 58.856V57.224C156.035 55.784 155.555 54.712 154.595 54.008C153.635 53.272 152.099 52.904 149.987 52.904H140.051V48.152C141.747 47.928 143.619 47.72 145.667 47.528C147.747 47.304 149.971 47.224 152.339 47.288C154.419 47.288 156.163 47.624 157.571 48.296C159.011 48.968 160.099 49.944 160.835 51.224C161.571 52.504 161.939 54.056 161.939 55.88V58.616C161.939 59.608 161.795 60.488 161.507 61.256C161.251 61.992 160.899 62.616 160.451 63.128C160.003 63.64 159.491 64.072 158.915 64.424C158.371 64.744 157.811 64.984 157.235 65.144C157.843 65.304 158.451 65.592 159.059 66.008C159.699 66.392 160.259 66.904 160.739 67.544C161.251 68.152 161.667 68.888 161.987 69.752C162.307 70.616 162.467 71.576 162.467 72.632V74.696C162.467 77.512 161.587 79.656 159.827 81.128C158.067 82.568 155.603 83.288 152.435 83.288ZM169.909 87.08C169.397 87.08 168.949 87.032 168.565 86.936C168.181 86.872 167.989 86.84 167.989 86.84V84.968C168.437 84.968 168.741 84.904 168.901 84.776C169.093 84.648 169.189 84.408 169.189 84.056V82.616H168.757C168.501 82.616 168.277 82.536 168.085 82.376C167.925 82.216 167.845 81.976 167.845 81.656V77.72C167.845 77.048 168.149 76.712 168.757 76.712H172.117C172.469 76.712 172.709 76.808 172.837 77C172.965 77.192 173.029 77.432 173.029 77.72V84.056C173.029 84.888 172.853 85.528 172.501 85.976C172.181 86.424 171.781 86.712 171.301 86.84C170.853 87 170.389 87.08 169.909 87.08ZM187.846 83.192C185.99 83.192 184.374 82.872 182.998 82.232C181.622 81.56 180.566 80.568 179.83 79.256C179.094 77.912 178.726 76.248 178.726 74.264V56.456C178.726 54.44 179.094 52.76 179.83 51.416C180.598 50.04 181.67 49.016 183.046 48.344C184.422 47.64 186.038 47.288 187.894 47.288H195.142C197.126 47.288 198.758 47.656 200.038 48.392C201.35 49.128 202.326 50.184 202.966 51.56C203.606 52.904 203.926 54.536 203.926 56.456V74.264C203.926 77.208 203.142 79.432 201.574 80.936C200.006 82.44 197.846 83.192 195.094 83.192H187.846ZM189.238 77.816H193.558C195.094 77.816 196.214 77.448 196.918 76.712C197.654 75.944 198.022 74.84 198.022 73.4V57.032C198.022 55.464 197.638 54.344 196.87 53.672C196.134 52.968 195.11 52.616 193.798 52.616H189.046C187.67 52.616 186.598 53 185.83 53.768C185.062 54.504 184.678 55.592 184.678 57.032V73.4C184.678 74.904 185.078 76.024 185.878 76.76C186.678 77.464 187.798 77.816 189.238 77.816ZM219.065 83.192C217.209 83.192 215.593 82.872 214.217 82.232C212.841 81.56 211.785 80.568 211.049 79.256C210.313 77.912 209.945 76.248 209.945 74.264V56.456C209.945 54.44 210.313 52.76 211.049 51.416C211.817 50.04 212.889 49.016 214.265 48.344C215.641 47.64 217.257 47.288 219.113 47.288H226.361C228.345 47.288 229.977 47.656 231.257 48.392C232.569 49.128 233.545 50.184 234.185 51.56C234.825 52.904 235.145 54.536 235.145 56.456V74.264C235.145 77.208 234.361 79.432 232.793 80.936C231.225 82.44 229.065 83.192 226.313 83.192H219.065ZM220.457 77.816H224.777C226.313 77.816 227.433 77.448 228.137 76.712C228.873 75.944 229.241 74.84 229.241 73.4V57.032C229.241 55.464 228.857 54.344 228.089 53.672C227.353 52.968 226.329 52.616 225.017 52.616H220.265C218.889 52.616 217.817 53 217.049 53.768C216.281 54.504 215.897 55.592 215.897 57.032V73.4C215.897 74.904 216.297 76.024 217.097 76.76C217.897 77.464 219.017 77.816 220.457 77.816ZM250.284 83.192C248.428 83.192 246.812 82.872 245.436 82.232C244.06 81.56 243.004 80.568 242.268 79.256C241.532 77.912 241.164 76.248 241.164 74.264V56.456C241.164 54.44 241.532 52.76 242.268 51.416C243.036 50.04 244.108 49.016 245.484 48.344C246.86 47.64 248.476 47.288 250.332 47.288H257.58C259.564 47.288 261.196 47.656 262.476 48.392C263.788 49.128 264.764 50.184 265.404 51.56C266.044 52.904 266.364 54.536 266.364 56.456V74.264C266.364 77.208 265.58 79.432 264.012 80.936C262.444 82.44 260.284 83.192 257.532 83.192H250.284ZM251.676 77.816H255.996C257.532 77.816 258.652 77.448 259.356 76.712C260.092 75.944 260.46 74.84 260.46 73.4V57.032C260.46 55.464 260.076 54.344 259.308 53.672C258.572 52.968 257.548 52.616 256.236 52.616H251.484C250.108 52.616 249.036 53 248.268 53.768C247.5 54.504 247.116 55.592 247.116 57.032V73.4C247.116 74.904 247.516 76.024 248.316 76.76C249.116 77.464 250.236 77.816 251.676 77.816ZM281.598 76.664V55.16H286.398V76.664H281.598ZM273.246 68.312V63.512H294.75V68.312H273.246Z" fill="#098895"/>
<path d="M102.156 132V111.392H110.36C110.957 111.392 111.564 111.476 112.18 111.644C112.815 111.793 113.403 112.101 113.944 112.568C114.485 113.016 114.915 113.679 115.232 114.556C115.568 115.415 115.736 116.553 115.736 117.972C115.736 119.428 115.559 120.604 115.204 121.5C114.868 122.377 114.42 123.059 113.86 123.544C113.319 124.011 112.731 124.328 112.096 124.496C111.461 124.664 110.845 124.748 110.248 124.748C109.968 124.748 109.557 124.739 109.016 124.72C108.475 124.701 107.896 124.683 107.28 124.664C106.683 124.627 106.123 124.589 105.6 124.552C105.077 124.515 104.676 124.487 104.396 124.468V132H102.156ZM104.396 122.76H109.968C110.621 122.76 111.219 122.62 111.76 122.34C112.301 122.06 112.721 121.575 113.02 120.884C113.337 120.193 113.496 119.232 113.496 118C113.496 116.787 113.337 115.853 113.02 115.2C112.721 114.528 112.32 114.061 111.816 113.8C111.312 113.539 110.761 113.408 110.164 113.408H104.396V122.76ZM119.026 132V117.048H120.706L121.238 119.652C121.91 118.849 122.657 118.187 123.478 117.664C124.318 117.141 125.28 116.88 126.362 116.88C126.624 116.88 126.866 116.889 127.09 116.908C127.333 116.927 127.557 116.964 127.762 117.02V119.288C127.52 119.251 127.258 119.223 126.978 119.204C126.698 119.167 126.418 119.148 126.138 119.148C125.448 119.148 124.832 119.232 124.29 119.4C123.749 119.568 123.236 119.82 122.75 120.156C122.265 120.492 121.761 120.903 121.238 121.388V132H119.026ZM136.502 132.168C135.419 132.168 134.467 132.056 133.646 131.832C132.843 131.608 132.171 131.216 131.63 130.656C131.088 130.096 130.687 129.321 130.426 128.332C130.164 127.324 130.034 126.045 130.034 124.496C130.034 122.928 130.164 121.649 130.426 120.66C130.687 119.652 131.088 118.877 131.63 118.336C132.171 117.776 132.843 117.393 133.646 117.188C134.467 116.964 135.419 116.852 136.502 116.852C137.584 116.852 138.527 116.964 139.33 117.188C140.151 117.412 140.832 117.804 141.374 118.364C141.915 118.905 142.316 119.68 142.577 120.688C142.858 121.677 142.998 122.947 142.998 124.496C142.998 126.064 142.858 127.352 142.577 128.36C142.316 129.349 141.915 130.124 141.374 130.684C140.851 131.225 140.179 131.608 139.358 131.832C138.536 132.056 137.584 132.168 136.502 132.168ZM136.502 130.348C137.192 130.348 137.799 130.283 138.322 130.152C138.863 130.021 139.311 129.76 139.666 129.368C140.02 128.976 140.291 128.388 140.478 127.604C140.664 126.82 140.758 125.784 140.758 124.496C140.758 123.189 140.664 122.153 140.478 121.388C140.291 120.623 140.02 120.044 139.666 119.652C139.311 119.26 138.863 118.999 138.322 118.868C137.799 118.737 137.192 118.672 136.502 118.672C135.792 118.672 135.176 118.737 134.654 118.868C134.131 118.999 133.692 119.26 133.338 119.652C132.983 120.044 132.712 120.623 132.526 121.388C132.339 122.153 132.246 123.189 132.246 124.496C132.246 125.784 132.339 126.82 132.526 127.604C132.712 128.388 132.983 128.976 133.338 129.368C133.692 129.76 134.131 130.021 134.654 130.152C135.176 130.283 135.792 130.348 136.502 130.348ZM146.726 138.636V117.048H148.518L148.938 118.588C149.274 118.345 149.703 118.093 150.226 117.832C150.767 117.552 151.346 117.319 151.962 117.132C152.596 116.945 153.222 116.852 153.838 116.852C154.808 116.852 155.63 117.067 156.302 117.496C156.992 117.907 157.552 118.467 157.982 119.176C158.411 119.885 158.719 120.697 158.906 121.612C159.092 122.527 159.186 123.488 159.186 124.496C159.186 126.176 158.99 127.595 158.598 128.752C158.224 129.891 157.646 130.749 156.862 131.328C156.078 131.907 155.07 132.196 153.838 132.196C152.998 132.196 152.148 132.065 151.29 131.804C150.45 131.524 149.666 131.179 148.938 130.768V138.636H146.726ZM153.222 130.32C153.931 130.32 154.566 130.143 155.126 129.788C155.686 129.433 156.134 128.836 156.47 127.996C156.806 127.137 156.974 125.971 156.974 124.496C156.974 123.096 156.796 121.976 156.442 121.136C156.087 120.277 155.63 119.661 155.07 119.288C154.51 118.896 153.894 118.7 153.222 118.7C152.363 118.7 151.57 118.84 150.842 119.12C150.132 119.381 149.498 119.661 148.938 119.96V129.116C149.591 129.471 150.282 129.76 151.01 129.984C151.756 130.208 152.494 130.32 153.222 130.32ZM168.625 132.168C167.057 132.168 165.816 131.935 164.901 131.468C164.005 131.001 163.361 130.208 162.969 129.088C162.577 127.968 162.381 126.437 162.381 124.496C162.381 122.517 162.577 120.977 162.969 119.876C163.38 118.756 164.042 117.972 164.957 117.524C165.872 117.076 167.104 116.852 168.653 116.852C169.978 116.852 171.052 117.001 171.873 117.3C172.713 117.599 173.329 118.112 173.721 118.84C174.132 119.549 174.337 120.539 174.337 121.808C174.337 122.685 174.16 123.395 173.805 123.936C173.469 124.459 172.974 124.841 172.321 125.084C171.686 125.308 170.93 125.42 170.053 125.42H164.593C164.612 126.633 164.742 127.613 164.985 128.36C165.228 129.088 165.666 129.62 166.301 129.956C166.954 130.273 167.906 130.432 169.157 130.432H173.973V131.776C173.114 131.888 172.274 131.981 171.453 132.056C170.632 132.131 169.689 132.168 168.625 132.168ZM164.565 123.964H169.885C170.725 123.964 171.341 123.815 171.733 123.516C172.144 123.199 172.349 122.639 172.349 121.836C172.349 120.977 172.218 120.315 171.957 119.848C171.714 119.363 171.322 119.027 170.781 118.84C170.258 118.635 169.549 118.532 168.653 118.532C167.608 118.532 166.786 118.691 166.189 119.008C165.592 119.307 165.172 119.848 164.929 120.632C164.686 121.416 164.565 122.527 164.565 123.964ZM178.062 132V117.048H179.742L180.274 119.652C180.946 118.849 181.692 118.187 182.514 117.664C183.354 117.141 184.315 116.88 185.398 116.88C185.659 116.88 185.902 116.889 186.126 116.908C186.368 116.927 186.592 116.964 186.798 117.02V119.288C186.555 119.251 186.294 119.223 186.014 119.204C185.734 119.167 185.454 119.148 185.174 119.148C184.483 119.148 183.867 119.232 183.326 119.4C182.784 119.568 182.271 119.82 181.786 120.156C181.3 120.492 180.796 120.903 180.274 121.388V132H178.062ZM194.83 132C193.859 132 193.057 131.841 192.422 131.524C191.787 131.207 191.321 130.693 191.022 129.984C190.723 129.275 190.583 128.332 190.602 127.156L190.686 118.868H188.306V117.44L190.714 117.048L191.078 112.876H192.786V117.048H197.098V118.868H192.786V127.156C192.786 127.809 192.851 128.332 192.982 128.724C193.131 129.116 193.318 129.415 193.542 129.62C193.785 129.825 194.037 129.975 194.298 130.068C194.559 130.143 194.811 130.189 195.054 130.208L196.874 130.376V132H194.83ZM200.491 114.388C200.193 114.388 200.043 114.239 200.043 113.94V111.756C200.043 111.457 200.193 111.308 200.491 111.308H202.059C202.209 111.308 202.311 111.355 202.367 111.448C202.442 111.523 202.479 111.625 202.479 111.756V113.94C202.479 114.239 202.339 114.388 202.059 114.388H200.491ZM200.155 132V117.048H202.367V132H200.155ZM212.348 132.168C210.78 132.168 209.538 131.935 208.624 131.468C207.728 131.001 207.084 130.208 206.692 129.088C206.3 127.968 206.104 126.437 206.104 124.496C206.104 122.517 206.3 120.977 206.692 119.876C207.102 118.756 207.765 117.972 208.68 117.524C209.594 117.076 210.826 116.852 212.376 116.852C213.701 116.852 214.774 117.001 215.596 117.3C216.436 117.599 217.052 118.112 217.444 118.84C217.854 119.549 218.06 120.539 218.06 121.808C218.06 122.685 217.882 123.395 217.528 123.936C217.192 124.459 216.697 124.841 216.044 125.084C215.409 125.308 214.653 125.42 213.776 125.42H208.316C208.334 126.633 208.465 127.613 208.708 128.36C208.95 129.088 209.389 129.62 210.024 129.956C210.677 130.273 211.629 130.432 212.88 130.432H217.696V131.776C216.837 131.888 215.997 131.981 215.176 132.056C214.354 132.131 213.412 132.168 212.348 132.168ZM208.288 123.964H213.608C214.448 123.964 215.064 123.815 215.456 123.516C215.866 123.199 216.072 122.639 216.072 121.836C216.072 120.977 215.941 120.315 215.68 119.848C215.437 119.363 215.045 119.027 214.504 118.84C213.981 118.635 213.272 118.532 212.376 118.532C211.33 118.532 210.509 118.691 209.912 119.008C209.314 119.307 208.894 119.848 208.652 120.632C208.409 121.416 208.288 122.527 208.288 123.964ZM226.936 132.168C226.563 132.168 226.106 132.159 225.564 132.14C225.023 132.121 224.454 132.093 223.856 132.056C223.278 132.019 222.746 131.981 222.26 131.944C221.794 131.888 221.43 131.832 221.168 131.776V130.432H227.3C227.916 130.432 228.448 130.385 228.896 130.292C229.344 130.199 229.69 129.993 229.932 129.676C230.194 129.359 230.324 128.883 230.324 128.248V127.576C230.324 126.923 230.11 126.419 229.68 126.064C229.251 125.691 228.56 125.504 227.608 125.504H225.508C224.631 125.504 223.847 125.392 223.156 125.168C222.484 124.944 221.962 124.561 221.588 124.02C221.215 123.479 221.028 122.732 221.028 121.78V120.996C221.028 120.063 221.206 119.297 221.56 118.7C221.934 118.103 222.503 117.655 223.268 117.356C224.052 117.057 225.06 116.908 226.292 116.908C226.815 116.908 227.412 116.927 228.084 116.964C228.775 117.001 229.447 117.057 230.1 117.132C230.754 117.188 231.286 117.253 231.696 117.328V118.672H225.928C224.976 118.672 224.239 118.831 223.716 119.148C223.212 119.465 222.96 120.081 222.96 120.996V121.612C222.96 122.191 223.082 122.629 223.324 122.928C223.567 123.208 223.903 123.395 224.332 123.488C224.78 123.581 225.294 123.628 225.872 123.628H228C229.363 123.628 230.418 123.945 231.164 124.58C231.911 125.215 232.284 126.129 232.284 127.324V128.36C232.284 129.368 232.051 130.152 231.584 130.712C231.136 131.253 230.511 131.636 229.708 131.86C228.924 132.065 228 132.168 226.936 132.168ZM247.503 132C246.7 132 245.982 131.879 245.347 131.636C244.731 131.375 244.246 130.945 243.891 130.348C243.536 129.732 243.359 128.901 243.359 127.856V111.392H245.599V127.548C245.599 128.22 245.711 128.733 245.935 129.088C246.159 129.424 246.458 129.657 246.831 129.788C247.204 129.9 247.587 129.956 247.979 129.956H255.371V132H247.503ZM258.569 114.388C258.271 114.388 258.121 114.239 258.121 113.94V111.756C258.121 111.457 258.271 111.308 258.569 111.308H260.137C260.287 111.308 260.389 111.355 260.445 111.448C260.52 111.523 260.557 111.625 260.557 111.756V113.94C260.557 114.239 260.417 114.388 260.137 114.388H258.569ZM258.233 132V117.048H260.445V132H258.233ZM269.866 132.168C269.493 132.168 269.035 132.159 268.494 132.14C267.953 132.121 267.383 132.093 266.786 132.056C266.207 132.019 265.675 131.981 265.19 131.944C264.723 131.888 264.359 131.832 264.098 131.776V130.432H270.23C270.846 130.432 271.378 130.385 271.826 130.292C272.274 130.199 272.619 129.993 272.862 129.676C273.123 129.359 273.254 128.883 273.254 128.248V127.576C273.254 126.923 273.039 126.419 272.61 126.064C272.181 125.691 271.49 125.504 270.538 125.504H268.438C267.561 125.504 266.777 125.392 266.086 125.168C265.414 124.944 264.891 124.561 264.518 124.02C264.145 123.479 263.958 122.732 263.958 121.78V120.996C263.958 120.063 264.135 119.297 264.49 118.7C264.863 118.103 265.433 117.655 266.198 117.356C266.982 117.057 267.99 116.908 269.222 116.908C269.745 116.908 270.342 116.927 271.014 116.964C271.705 117.001 272.377 117.057 273.03 117.132C273.683 117.188 274.215 117.253 274.626 117.328V118.672H268.858C267.906 118.672 267.169 118.831 266.646 119.148C266.142 119.465 265.89 120.081 265.89 120.996V121.612C265.89 122.191 266.011 122.629 266.254 122.928C266.497 123.208 266.833 123.395 267.262 123.488C267.71 123.581 268.223 123.628 268.802 123.628H270.93C272.293 123.628 273.347 123.945 274.094 124.58C274.841 125.215 275.214 126.129 275.214 127.324V128.36C275.214 129.368 274.981 130.152 274.514 130.712C274.066 131.253 273.441 131.636 272.638 131.86C271.854 132.065 270.93 132.168 269.866 132.168ZM283.67 132C282.699 132 281.897 131.841 281.262 131.524C280.627 131.207 280.161 130.693 279.862 129.984C279.563 129.275 279.423 128.332 279.442 127.156L279.526 118.868H277.146V117.44L279.554 117.048L279.918 112.876H281.626V117.048H285.938V118.868H281.626V127.156C281.626 127.809 281.691 128.332 281.822 128.724C281.971 129.116 282.158 129.415 282.382 129.62C282.625 129.825 282.877 129.975 283.138 130.068C283.399 130.143 283.651 130.189 283.894 130.208L285.714 130.376V132H283.67ZM294.707 132.168C293.139 132.168 291.898 131.935 290.983 131.468C290.087 131.001 289.443 130.208 289.051 129.088C288.659 127.968 288.463 126.437 288.463 124.496C288.463 122.517 288.659 120.977 289.051 119.876C289.462 118.756 290.125 117.972 291.039 117.524C291.954 117.076 293.186 116.852 294.735 116.852C296.061 116.852 297.134 117.001 297.955 117.3C298.795 117.599 299.411 118.112 299.803 118.84C300.214 119.549 300.419 120.539 300.419 121.808C300.419 122.685 300.242 123.395 299.887 123.936C299.551 124.459 299.057 124.841 298.403 125.084C297.769 125.308 297.013 125.42 296.135 125.42H290.675C290.694 126.633 290.825 127.613 291.067 128.36C291.31 129.088 291.749 129.62 292.383 129.956C293.037 130.273 293.989 130.432 295.239 130.432H300.055V131.776C299.197 131.888 298.357 131.981 297.535 132.056C296.714 132.131 295.771 132.168 294.707 132.168ZM290.647 123.964H295.967C296.807 123.964 297.423 123.815 297.815 123.516C298.226 123.199 298.431 122.639 298.431 121.836C298.431 120.977 298.301 120.315 298.039 119.848C297.797 119.363 297.405 119.027 296.863 118.84C296.341 118.635 295.631 118.532 294.735 118.532C293.69 118.532 292.869 118.691 292.271 119.008C291.674 119.307 291.254 119.848 291.011 120.632C290.769 121.416 290.647 122.527 290.647 123.964ZM308.988 132.168C307.756 132.168 306.738 131.907 305.936 131.384C305.152 130.843 304.564 130.021 304.172 128.92C303.798 127.8 303.612 126.372 303.612 124.636C303.612 122.788 303.798 121.295 304.172 120.156C304.545 118.999 305.142 118.159 305.964 117.636C306.785 117.113 307.886 116.852 309.268 116.852C310.108 116.852 310.929 116.945 311.732 117.132C312.534 117.319 313.244 117.524 313.86 117.748V110.636H316.072V132H314.28L313.86 130.488C313.58 130.731 313.16 130.983 312.6 131.244C312.058 131.505 311.461 131.729 310.808 131.916C310.173 132.084 309.566 132.168 308.988 132.168ZM309.632 130.348C310.49 130.348 311.265 130.217 311.956 129.956C312.665 129.676 313.3 129.387 313.86 129.088V119.316C313.188 119.111 312.544 118.943 311.928 118.812C311.312 118.663 310.621 118.588 309.856 118.588C308.904 118.588 308.129 118.765 307.532 119.12C306.934 119.475 306.496 120.091 306.216 120.968C305.954 121.827 305.824 123.021 305.824 124.552C305.824 125.933 305.945 127.053 306.188 127.912C306.449 128.771 306.86 129.396 307.42 129.788C307.98 130.161 308.717 130.348 309.632 130.348Z" fill="#0D0E0F"/>
<line x1="388.5" y1="0.5" x2="388.5" y2="179.5" stroke="#098895"/>
<path d="M469.288 83.192C468.04 83.192 466.856 83.08 465.736 82.856C464.648 82.6 463.688 82.2 462.856 81.656C462.024 81.08 461.368 80.312 460.888 79.352C460.408 78.392 460.168 77.176 460.168 75.704V70.76C460.168 69.736 460.36 68.84 460.744 68.072C461.128 67.272 461.624 66.6 462.232 66.056C462.872 65.512 463.576 65.16 464.344 65C463.352 64.52 462.6 63.96 462.088 63.32C461.608 62.648 461.288 61.928 461.128 61.16C460.968 60.392 460.888 59.592 460.888 58.76V54.68C460.888 52.888 461.256 51.448 461.992 50.36C462.728 49.272 463.704 48.488 464.92 48.008C466.168 47.528 467.528 47.288 469 47.288H475.672C477.208 47.288 478.552 47.528 479.704 48.008C480.888 48.488 481.816 49.272 482.488 50.36C483.192 51.448 483.544 52.888 483.544 54.68V58.76C483.544 59.208 483.48 59.72 483.352 60.296C483.256 60.872 483.08 61.464 482.824 62.072C482.568 62.648 482.216 63.144 481.768 63.56C481.352 63.976 480.84 64.264 480.232 64.424C481.288 64.648 482.104 65.112 482.68 65.816C483.256 66.488 483.656 67.256 483.88 68.12C484.104 68.984 484.216 69.8 484.216 70.568V75.704C484.216 77.656 483.848 79.176 483.112 80.264C482.376 81.32 481.368 82.072 480.088 82.52C478.808 82.968 477.368 83.192 475.768 83.192H469.288ZM470.248 78.104H474.424C475.864 78.104 476.856 77.816 477.4 77.24C477.976 76.632 478.264 75.768 478.264 74.648V71.048C478.264 69.832 477.96 68.936 477.352 68.36C476.744 67.752 475.736 67.448 474.328 67.448H470.248C469.8 67.448 469.336 67.512 468.856 67.64C468.376 67.768 467.928 67.992 467.512 68.312C467.096 68.6 466.76 68.968 466.504 69.416C466.248 69.864 466.12 70.408 466.12 71.048V74.648C466.12 75.928 466.488 76.824 467.224 77.336C467.992 77.848 469 78.104 470.248 78.104ZM470.248 62.36H474.28C475.176 62.36 475.864 62.2 476.344 61.88C476.856 61.528 477.208 61.08 477.4 60.536C477.624 59.96 477.736 59.352 477.736 58.712V56.072C477.736 54.568 477.432 53.576 476.824 53.096C476.248 52.584 475.448 52.328 474.424 52.328H470.248C469 52.328 468.088 52.6 467.512 53.144C466.968 53.688 466.696 54.664 466.696 56.072V58.712C466.696 59.96 466.968 60.888 467.512 61.496C468.088 62.072 469 62.36 470.248 62.36ZM492.175 87.08C491.663 87.08 491.215 87.032 490.831 86.936C490.447 86.872 490.255 86.84 490.255 86.84V84.968C490.703 84.968 491.007 84.904 491.167 84.776C491.359 84.648 491.455 84.408 491.455 84.056V82.616H491.023C490.767 82.616 490.543 82.536 490.351 82.376C490.191 82.216 490.111 81.976 490.111 81.656V77.72C490.111 77.048 490.415 76.712 491.023 76.712H494.383C494.735 76.712 494.975 76.808 495.103 77C495.231 77.192 495.295 77.432 495.295 77.72V84.056C495.295 84.888 495.119 85.528 494.767 85.976C494.447 86.424 494.047 86.712 493.567 86.84C493.119 87 492.655 87.08 492.175 87.08ZM501.3 83L512.484 53.48H496.404V47.576H518.484L520.116 50.216L507.972 83H501.3ZM533.835 83.192C532.587 83.192 531.403 83.08 530.283 82.856C529.195 82.6 528.235 82.2 527.403 81.656C526.571 81.08 525.915 80.312 525.435 79.352C524.955 78.392 524.715 77.176 524.715 75.704V70.76C524.715 69.736 524.907 68.84 525.291 68.072C525.675 67.272 526.171 66.6 526.779 66.056C527.419 65.512 528.123 65.16 528.891 65C527.899 64.52 527.147 63.96 526.635 63.32C526.155 62.648 525.835 61.928 525.675 61.16C525.515 60.392 525.435 59.592 525.435 58.76V54.68C525.435 52.888 525.803 51.448 526.539 50.36C527.275 49.272 528.251 48.488 529.467 48.008C530.715 47.528 532.075 47.288 533.547 47.288H540.219C541.755 47.288 543.099 47.528 544.251 48.008C545.435 48.488 546.363 49.272 547.035 50.36C547.739 51.448 548.091 52.888 548.091 54.68V58.76C548.091 59.208 548.027 59.72 547.899 60.296C547.803 60.872 547.627 61.464 547.371 62.072C547.115 62.648 546.763 63.144 546.315 63.56C545.899 63.976 545.387 64.264 544.779 64.424C545.835 64.648 546.651 65.112 547.227 65.816C547.803 66.488 548.203 67.256 548.427 68.12C548.651 68.984 548.763 69.8 548.763 70.568V75.704C548.763 77.656 548.395 79.176 547.659 80.264C546.923 81.32 545.915 82.072 544.635 82.52C543.355 82.968 541.915 83.192 540.315 83.192H533.835ZM534.795 78.104H538.971C540.411 78.104 541.403 77.816 541.947 77.24C542.523 76.632 542.811 75.768 542.811 74.648V71.048C542.811 69.832 542.507 68.936 541.899 68.36C541.291 67.752 540.283 67.448 538.875 67.448H534.795C534.347 67.448 533.883 67.512 533.403 67.64C532.923 67.768 532.475 67.992 532.059 68.312C531.643 68.6 531.307 68.968 531.051 69.416C530.795 69.864 530.667 70.408 530.667 71.048V74.648C530.667 75.928 531.035 76.824 531.771 77.336C532.539 77.848 533.547 78.104 534.795 78.104ZM534.795 62.36H538.827C539.723 62.36 540.411 62.2 540.891 61.88C541.403 61.528 541.755 61.08 541.947 60.536C542.171 59.96 542.283 59.352 542.283 58.712V56.072C542.283 54.568 541.979 53.576 541.371 53.096C540.795 52.584 539.995 52.328 538.971 52.328H534.795C533.547 52.328 532.635 52.6 532.059 53.144C531.515 53.688 531.243 54.664 531.243 56.072V58.712C531.243 59.96 531.515 60.888 532.059 61.496C532.635 62.072 533.547 62.36 534.795 62.36ZM554.274 83V78.2L566.562 66.152C567.65 65.096 568.53 64.12 569.202 63.224C569.874 62.328 570.37 61.448 570.69 60.584C571.01 59.688 571.17 58.712 571.17 57.656C571.17 56.696 570.978 55.864 570.594 55.16C570.242 54.424 569.618 53.864 568.722 53.48C567.858 53.096 566.642 52.904 565.074 52.904H555.234V48.248C556.738 47.992 558.402 47.768 560.226 47.576C562.082 47.384 564.098 47.288 566.274 47.288C569.026 47.288 571.186 47.672 572.754 48.44C574.322 49.176 575.442 50.264 576.114 51.704C576.786 53.112 577.122 54.792 577.122 56.744C577.122 58.344 576.898 59.816 576.45 61.16C576.034 62.504 575.378 63.8 574.482 65.048C573.618 66.264 572.514 67.528 571.17 68.84L562.194 77.624H578.274V83H554.274ZM592.38 76.664V55.16H597.18V76.664H592.38ZM584.028 68.312V63.512H605.531V68.312H584.028Z" fill="#098895"/>
<path d="M459.156 132V111.392H467.36C467.957 111.392 468.564 111.476 469.18 111.644C469.815 111.793 470.403 112.101 470.944 112.568C471.485 113.016 471.915 113.679 472.232 114.556C472.568 115.415 472.736 116.553 472.736 117.972C472.736 119.428 472.559 120.604 472.204 121.5C471.868 122.377 471.42 123.059 470.86 123.544C470.319 124.011 469.731 124.328 469.096 124.496C468.461 124.664 467.845 124.748 467.248 124.748C466.968 124.748 466.557 124.739 466.016 124.72C465.475 124.701 464.896 124.683 464.28 124.664C463.683 124.627 463.123 124.589 462.6 124.552C462.077 124.515 461.676 124.487 461.396 124.468V132H459.156ZM461.396 122.76H466.968C467.621 122.76 468.219 122.62 468.76 122.34C469.301 122.06 469.721 121.575 470.02 120.884C470.337 120.193 470.496 119.232 470.496 118C470.496 116.787 470.337 115.853 470.02 115.2C469.721 114.528 469.32 114.061 468.816 113.8C468.312 113.539 467.761 113.408 467.164 113.408H461.396V122.76ZM476.026 132V117.048H477.706L478.238 119.652C478.91 118.849 479.657 118.187 480.478 117.664C481.318 117.141 482.28 116.88 483.362 116.88C483.624 116.88 483.866 116.889 484.09 116.908C484.333 116.927 484.557 116.964 484.762 117.02V119.288C484.52 119.251 484.258 119.223 483.978 119.204C483.698 119.167 483.418 119.148 483.138 119.148C482.448 119.148 481.832 119.232 481.29 119.4C480.749 119.568 480.236 119.82 479.75 120.156C479.265 120.492 478.761 120.903 478.238 121.388V132H476.026ZM493.502 132.168C492.419 132.168 491.467 132.056 490.646 131.832C489.843 131.608 489.171 131.216 488.63 130.656C488.088 130.096 487.687 129.321 487.426 128.332C487.164 127.324 487.034 126.045 487.034 124.496C487.034 122.928 487.164 121.649 487.426 120.66C487.687 119.652 488.088 118.877 488.63 118.336C489.171 117.776 489.843 117.393 490.646 117.188C491.467 116.964 492.419 116.852 493.502 116.852C494.584 116.852 495.527 116.964 496.33 117.188C497.151 117.412 497.832 117.804 498.374 118.364C498.915 118.905 499.316 119.68 499.577 120.688C499.858 121.677 499.998 122.947 499.998 124.496C499.998 126.064 499.858 127.352 499.577 128.36C499.316 129.349 498.915 130.124 498.374 130.684C497.851 131.225 497.179 131.608 496.358 131.832C495.536 132.056 494.584 132.168 493.502 132.168ZM493.502 130.348C494.192 130.348 494.799 130.283 495.322 130.152C495.863 130.021 496.311 129.76 496.666 129.368C497.02 128.976 497.291 128.388 497.478 127.604C497.664 126.82 497.758 125.784 497.758 124.496C497.758 123.189 497.664 122.153 497.478 121.388C497.291 120.623 497.02 120.044 496.666 119.652C496.311 119.26 495.863 118.999 495.322 118.868C494.799 118.737 494.192 118.672 493.502 118.672C492.792 118.672 492.176 118.737 491.654 118.868C491.131 118.999 490.692 119.26 490.338 119.652C489.983 120.044 489.712 120.623 489.526 121.388C489.339 122.153 489.246 123.189 489.246 124.496C489.246 125.784 489.339 126.82 489.526 127.604C489.712 128.388 489.983 128.976 490.338 129.368C490.692 129.76 491.131 130.021 491.654 130.152C492.176 130.283 492.792 130.348 493.502 130.348ZM503.726 138.636V117.048H505.518L505.938 118.588C506.274 118.345 506.703 118.093 507.226 117.832C507.767 117.552 508.346 117.319 508.962 117.132C509.596 116.945 510.222 116.852 510.838 116.852C511.808 116.852 512.63 117.067 513.302 117.496C513.992 117.907 514.552 118.467 514.982 119.176C515.411 119.885 515.719 120.697 515.906 121.612C516.092 122.527 516.186 123.488 516.186 124.496C516.186 126.176 515.99 127.595 515.598 128.752C515.224 129.891 514.646 130.749 513.862 131.328C513.078 131.907 512.07 132.196 510.838 132.196C509.998 132.196 509.148 132.065 508.29 131.804C507.45 131.524 506.666 131.179 505.938 130.768V138.636H503.726ZM510.222 130.32C510.931 130.32 511.566 130.143 512.126 129.788C512.686 129.433 513.134 128.836 513.47 127.996C513.806 127.137 513.974 125.971 513.974 124.496C513.974 123.096 513.796 121.976 513.442 121.136C513.087 120.277 512.63 119.661 512.07 119.288C511.51 118.896 510.894 118.7 510.222 118.7C509.363 118.7 508.57 118.84 507.842 119.12C507.132 119.381 506.498 119.661 505.938 119.96V129.116C506.591 129.471 507.282 129.76 508.01 129.984C508.756 130.208 509.494 130.32 510.222 130.32ZM525.625 132.168C524.057 132.168 522.816 131.935 521.901 131.468C521.005 131.001 520.361 130.208 519.969 129.088C519.577 127.968 519.381 126.437 519.381 124.496C519.381 122.517 519.577 120.977 519.969 119.876C520.38 118.756 521.042 117.972 521.957 117.524C522.872 117.076 524.104 116.852 525.653 116.852C526.978 116.852 528.052 117.001 528.873 117.3C529.713 117.599 530.329 118.112 530.721 118.84C531.132 119.549 531.337 120.539 531.337 121.808C531.337 122.685 531.16 123.395 530.805 123.936C530.469 124.459 529.974 124.841 529.321 125.084C528.686 125.308 527.93 125.42 527.053 125.42H521.593C521.612 126.633 521.742 127.613 521.985 128.36C522.228 129.088 522.666 129.62 523.301 129.956C523.954 130.273 524.906 130.432 526.157 130.432H530.973V131.776C530.114 131.888 529.274 131.981 528.453 132.056C527.632 132.131 526.689 132.168 525.625 132.168ZM521.565 123.964H526.885C527.725 123.964 528.341 123.815 528.733 123.516C529.144 123.199 529.349 122.639 529.349 121.836C529.349 120.977 529.218 120.315 528.957 119.848C528.714 119.363 528.322 119.027 527.781 118.84C527.258 118.635 526.549 118.532 525.653 118.532C524.608 118.532 523.786 118.691 523.189 119.008C522.592 119.307 522.172 119.848 521.929 120.632C521.686 121.416 521.565 122.527 521.565 123.964ZM535.062 132V117.048H536.742L537.274 119.652C537.946 118.849 538.692 118.187 539.514 117.664C540.354 117.141 541.315 116.88 542.398 116.88C542.659 116.88 542.902 116.889 543.126 116.908C543.368 116.927 543.592 116.964 543.798 117.02V119.288C543.555 119.251 543.294 119.223 543.014 119.204C542.734 119.167 542.454 119.148 542.174 119.148C541.483 119.148 540.867 119.232 540.326 119.4C539.784 119.568 539.271 119.82 538.786 120.156C538.3 120.492 537.796 120.903 537.274 121.388V132H535.062ZM551.83 132C550.859 132 550.057 131.841 549.422 131.524C548.787 131.207 548.321 130.693 548.022 129.984C547.723 129.275 547.583 128.332 547.602 127.156L547.686 118.868H545.306V117.44L547.714 117.048L548.078 112.876H549.786V117.048H554.098V118.868H549.786V127.156C549.786 127.809 549.851 128.332 549.982 128.724C550.131 129.116 550.318 129.415 550.542 129.62C550.785 129.825 551.037 129.975 551.298 130.068C551.559 130.143 551.811 130.189 552.054 130.208L553.874 130.376V132H551.83ZM561.159 138.636L563.063 132C562.597 131.981 562.111 131.869 561.607 131.664C561.103 131.459 560.637 131.104 560.207 130.6C559.778 130.096 559.423 129.396 559.143 128.5L555.559 117.048H557.883L561.215 128.024C561.421 128.603 561.635 129.032 561.859 129.312C562.102 129.592 562.345 129.788 562.587 129.9C562.83 130.012 563.035 130.077 563.203 130.096C563.39 130.096 563.502 130.096 563.539 130.096L567.375 117.048H569.643L564.183 135.864L562.895 138.636H561.159ZM585.731 132.168C585.32 132.168 584.825 132.149 584.247 132.112C583.687 132.093 583.108 132.056 582.511 132C581.913 131.963 581.344 131.916 580.803 131.86C580.28 131.804 579.841 131.739 579.487 131.664V129.956C579.953 129.993 580.523 130.031 581.195 130.068C581.867 130.105 582.585 130.133 583.351 130.152C584.135 130.171 584.9 130.18 585.647 130.18C586.487 130.18 587.243 130.096 587.915 129.928C588.587 129.76 589.119 129.452 589.511 129.004C589.921 128.556 590.127 127.912 590.127 127.072V125.672C590.127 124.72 589.884 124.001 589.399 123.516C588.913 123.012 588.129 122.76 587.047 122.76H584.835C583.136 122.76 581.801 122.387 580.831 121.64C579.879 120.893 579.403 119.605 579.403 117.776V116.6C579.403 114.659 579.925 113.277 580.971 112.456C582.016 111.635 583.491 111.224 585.395 111.224C585.992 111.224 586.664 111.261 587.411 111.336C588.157 111.392 588.876 111.467 589.567 111.56C590.276 111.635 590.864 111.719 591.331 111.812V113.52C590.509 113.445 589.576 113.38 588.531 113.324C587.504 113.268 586.533 113.24 585.619 113.24C584.779 113.24 584.051 113.343 583.435 113.548C582.819 113.735 582.343 114.08 582.007 114.584C581.689 115.069 581.531 115.769 581.531 116.684V117.636C581.531 118.775 581.829 119.559 582.427 119.988C583.024 120.417 583.855 120.632 584.919 120.632H587.299C588.437 120.632 589.371 120.837 590.099 121.248C590.827 121.659 591.368 122.228 591.723 122.956C592.077 123.665 592.255 124.487 592.255 125.42V127.016C592.255 128.397 591.956 129.461 591.359 130.208C590.78 130.955 589.996 131.468 589.007 131.748C588.036 132.028 586.944 132.168 585.731 132.168ZM598.95 132.168C597.849 132.168 596.943 131.841 596.234 131.188C595.525 130.535 595.17 129.611 595.17 128.416V127.352C595.17 126.176 595.553 125.224 596.318 124.496C597.102 123.768 598.278 123.404 599.846 123.404H604.914V121.556C604.914 120.94 604.802 120.417 604.578 119.988C604.373 119.54 603.99 119.195 603.43 118.952C602.889 118.709 602.095 118.588 601.05 118.588H596.402V117.272C597.055 117.16 597.811 117.057 598.67 116.964C599.547 116.871 600.574 116.824 601.75 116.824C602.963 116.805 603.971 116.955 604.774 117.272C605.577 117.589 606.165 118.093 606.538 118.784C606.93 119.456 607.126 120.343 607.126 121.444V132H605.418L604.998 130.292C604.923 130.367 604.69 130.497 604.298 130.684C603.925 130.871 603.439 131.085 602.842 131.328C602.263 131.552 601.629 131.748 600.938 131.916C600.266 132.084 599.603 132.168 598.95 132.168ZM599.874 130.516C600.21 130.535 600.593 130.497 601.022 130.404C601.451 130.311 601.89 130.208 602.338 130.096C602.786 129.965 603.197 129.835 603.57 129.704C603.962 129.573 604.279 129.461 604.522 129.368C604.765 129.275 604.895 129.228 604.914 129.228V124.524L600.35 124.72C599.286 124.757 598.521 125.019 598.054 125.504C597.606 125.989 597.382 126.615 597.382 127.38V128.052C597.382 128.649 597.503 129.135 597.746 129.508C598.007 129.863 598.325 130.115 598.698 130.264C599.09 130.413 599.482 130.497 599.874 130.516ZM615.216 132.028C614.357 132.028 613.639 131.879 613.06 131.58C612.481 131.263 612.043 130.759 611.744 130.068C611.445 129.359 611.296 128.407 611.296 127.212V110.636H613.508V126.932C613.508 127.828 613.592 128.509 613.76 128.976C613.928 129.424 614.171 129.741 614.488 129.928C614.805 130.096 615.179 130.208 615.608 130.264L617.12 130.432V132.028H615.216ZM625.238 132.168C623.67 132.168 622.429 131.935 621.514 131.468C620.618 131.001 619.974 130.208 619.582 129.088C619.19 127.968 618.994 126.437 618.994 124.496C618.994 122.517 619.19 120.977 619.582 119.876C619.993 118.756 620.656 117.972 621.57 117.524C622.485 117.076 623.717 116.852 625.266 116.852C626.592 116.852 627.665 117.001 628.486 117.3C629.326 117.599 629.942 118.112 630.334 118.84C630.745 119.549 630.95 120.539 630.95 121.808C630.95 122.685 630.773 123.395 630.418 123.936C630.082 124.459 629.588 124.841 628.934 125.084C628.3 125.308 627.544 125.42 626.666 125.42H621.206C621.225 126.633 621.356 127.613 621.598 128.36C621.841 129.088 622.28 129.62 622.914 129.956C623.568 130.273 624.52 130.432 625.77 130.432H630.586V131.776C629.728 131.888 628.888 131.981 628.066 132.056C627.245 132.131 626.302 132.168 625.238 132.168ZM621.178 123.964H626.498C627.338 123.964 627.954 123.815 628.346 123.516C628.757 123.199 628.962 122.639 628.962 121.836C628.962 120.977 628.832 120.315 628.57 119.848C628.328 119.363 627.936 119.027 627.394 118.84C626.872 118.635 626.162 118.532 625.266 118.532C624.221 118.532 623.4 118.691 622.802 119.008C622.205 119.307 621.785 119.848 621.542 120.632C621.3 121.416 621.178 122.527 621.178 123.964ZM639.827 132.168C639.454 132.168 638.996 132.159 638.455 132.14C637.914 132.121 637.344 132.093 636.747 132.056C636.168 132.019 635.636 131.981 635.151 131.944C634.684 131.888 634.32 131.832 634.059 131.776V130.432H640.191C640.807 130.432 641.339 130.385 641.787 130.292C642.235 130.199 642.58 129.993 642.823 129.676C643.084 129.359 643.215 128.883 643.215 128.248V127.576C643.215 126.923 643 126.419 642.571 126.064C642.142 125.691 641.451 125.504 640.499 125.504H638.399C637.522 125.504 636.738 125.392 636.047 125.168C635.375 124.944 634.852 124.561 634.479 124.02C634.106 123.479 633.919 122.732 633.919 121.78V120.996C633.919 120.063 634.096 119.297 634.451 118.7C634.824 118.103 635.394 117.655 636.159 117.356C636.943 117.057 637.951 116.908 639.183 116.908C639.706 116.908 640.303 116.927 640.975 116.964C641.666 117.001 642.338 117.057 642.991 117.132C643.644 117.188 644.176 117.253 644.587 117.328V118.672H638.819C637.867 118.672 637.13 118.831 636.607 119.148C636.103 119.465 635.851 120.081 635.851 120.996V121.612C635.851 122.191 635.972 122.629 636.215 122.928C636.458 123.208 636.794 123.395 637.223 123.488C637.671 123.581 638.184 123.628 638.763 123.628H640.891C642.254 123.628 643.308 123.945 644.055 124.58C644.802 125.215 645.175 126.129 645.175 127.324V128.36C645.175 129.368 644.942 130.152 644.475 130.712C644.027 131.253 643.402 131.636 642.599 131.86C641.815 132.065 640.891 132.168 639.827 132.168Z" fill="#0D0E0F"/>
<line x1="716.5" y1="0.5" x2="716.5" y2="179.5" stroke="#098895"/>
<path d="M831.956 83.24C829.94 83.24 827.86 83.176 825.716 83.048C823.572 82.92 821.588 82.76 819.764 82.568V77.912H832.196C833.444 77.912 834.468 77.704 835.268 77.288C836.068 76.872 836.66 76.312 837.044 75.608C837.428 74.872 837.62 74.088 837.62 73.256V70.28C837.62 68.968 837.268 67.944 836.564 67.208C835.86 66.44 834.724 66.056 833.156 66.056H830.036C828.852 66.056 827.924 66.312 827.252 66.824C826.612 67.336 826.196 68.12 826.004 69.176H820.388L821.396 47.576H842.276V52.904H826.532L826.052 62.936C826.5 62.36 827.172 61.896 828.068 61.544C828.964 61.192 830.02 61.016 831.236 61.016H835.22C837.076 61.016 838.612 61.384 839.828 62.12C841.076 62.824 842.004 63.8 842.612 65.048C843.252 66.264 843.572 67.656 843.572 69.224V74.456C843.572 76.472 843.108 78.136 842.18 79.448C841.284 80.728 839.972 81.688 838.244 82.328C836.516 82.936 834.42 83.24 831.956 83.24ZM850.878 87.08C850.366 87.08 849.918 87.032 849.534 86.936C849.15 86.872 848.958 86.84 848.958 86.84V84.968C849.406 84.968 849.71 84.904 849.87 84.776C850.062 84.648 850.158 84.408 850.158 84.056V82.616H849.726C849.47 82.616 849.246 82.536 849.054 82.376C848.894 82.216 848.814 81.976 848.814 81.656V77.72C848.814 77.048 849.118 76.712 849.726 76.712H853.086C853.438 76.712 853.678 76.808 853.806 77C853.934 77.192 853.998 77.432 853.998 77.72V84.056C853.998 84.888 853.822 85.528 853.47 85.976C853.15 86.424 852.75 86.712 852.27 86.84C851.822 87 851.358 87.08 850.878 87.08ZM868.815 83.192C866.959 83.192 865.343 82.872 863.967 82.232C862.591 81.56 861.535 80.568 860.799 79.256C860.063 77.912 859.695 76.248 859.695 74.264V56.456C859.695 54.44 860.063 52.76 860.799 51.416C861.567 50.04 862.639 49.016 864.015 48.344C865.391 47.64 867.007 47.288 868.863 47.288H876.111C878.095 47.288 879.727 47.656 881.007 48.392C882.319 49.128 883.295 50.184 883.935 51.56C884.575 52.904 884.895 54.536 884.895 56.456V74.264C884.895 77.208 884.111 79.432 882.543 80.936C880.975 82.44 878.815 83.192 876.063 83.192H868.815ZM870.207 77.816H874.527C876.063 77.816 877.183 77.448 877.887 76.712C878.623 75.944 878.991 74.84 878.991 73.4V57.032C878.991 55.464 878.607 54.344 877.839 53.672C877.103 52.968 876.079 52.616 874.767 52.616H870.015C868.639 52.616 867.567 53 866.799 53.768C866.031 54.504 865.647 55.592 865.647 57.032V73.4C865.647 74.904 866.047 76.024 866.847 76.76C867.647 77.464 868.767 77.816 870.207 77.816ZM896.29 83V52.952L889.618 54.152V50.36L896.914 47.24H902.242V83H896.29ZM923.896 82.952V74.936H907.96L906.808 72.008L918.952 47.576H925.048L913.816 69.896H923.896V62.072L925.144 58.28H929.848V69.896H933.928V73.976L929.848 74.936V82.952H923.896ZM947.145 76.664V55.16H951.945V76.664H947.145ZM938.793 68.312V63.512H960.297V68.312H938.793Z" fill="#098895"/>
<path d="M787.156 132V111.392H795.36C795.957 111.392 796.564 111.476 797.18 111.644C797.815 111.793 798.403 112.101 798.944 112.568C799.485 113.016 799.915 113.679 800.232 114.556C800.568 115.415 800.736 116.553 800.736 117.972C800.736 119.428 800.559 120.604 800.204 121.5C799.868 122.377 799.42 123.059 798.86 123.544C798.319 124.011 797.731 124.328 797.096 124.496C796.461 124.664 795.845 124.748 795.248 124.748C794.968 124.748 794.557 124.739 794.016 124.72C793.475 124.701 792.896 124.683 792.28 124.664C791.683 124.627 791.123 124.589 790.6 124.552C790.077 124.515 789.676 124.487 789.396 124.468V132H787.156ZM789.396 122.76H794.968C795.621 122.76 796.219 122.62 796.76 122.34C797.301 122.06 797.721 121.575 798.02 120.884C798.337 120.193 798.496 119.232 798.496 118C798.496 116.787 798.337 115.853 798.02 115.2C797.721 114.528 797.32 114.061 796.816 113.8C796.312 113.539 795.761 113.408 795.164 113.408H789.396V122.76ZM804.026 132V117.048H805.706L806.238 119.652C806.91 118.849 807.657 118.187 808.478 117.664C809.318 117.141 810.28 116.88 811.362 116.88C811.624 116.88 811.866 116.889 812.09 116.908C812.333 116.927 812.557 116.964 812.762 117.02V119.288C812.52 119.251 812.258 119.223 811.978 119.204C811.698 119.167 811.418 119.148 811.138 119.148C810.448 119.148 809.832 119.232 809.29 119.4C808.749 119.568 808.236 119.82 807.75 120.156C807.265 120.492 806.761 120.903 806.238 121.388V132H804.026ZM821.502 132.168C820.419 132.168 819.467 132.056 818.646 131.832C817.843 131.608 817.171 131.216 816.63 130.656C816.088 130.096 815.687 129.321 815.426 128.332C815.164 127.324 815.034 126.045 815.034 124.496C815.034 122.928 815.164 121.649 815.426 120.66C815.687 119.652 816.088 118.877 816.63 118.336C817.171 117.776 817.843 117.393 818.646 117.188C819.467 116.964 820.419 116.852 821.502 116.852C822.584 116.852 823.527 116.964 824.33 117.188C825.151 117.412 825.832 117.804 826.374 118.364C826.915 118.905 827.316 119.68 827.577 120.688C827.858 121.677 827.998 122.947 827.998 124.496C827.998 126.064 827.858 127.352 827.577 128.36C827.316 129.349 826.915 130.124 826.374 130.684C825.851 131.225 825.179 131.608 824.358 131.832C823.536 132.056 822.584 132.168 821.502 132.168ZM821.502 130.348C822.192 130.348 822.799 130.283 823.322 130.152C823.863 130.021 824.311 129.76 824.666 129.368C825.02 128.976 825.291 128.388 825.478 127.604C825.664 126.82 825.758 125.784 825.758 124.496C825.758 123.189 825.664 122.153 825.478 121.388C825.291 120.623 825.02 120.044 824.666 119.652C824.311 119.26 823.863 118.999 823.322 118.868C822.799 118.737 822.192 118.672 821.502 118.672C820.792 118.672 820.176 118.737 819.654 118.868C819.131 118.999 818.692 119.26 818.338 119.652C817.983 120.044 817.712 120.623 817.526 121.388C817.339 122.153 817.246 123.189 817.246 124.496C817.246 125.784 817.339 126.82 817.526 127.604C817.712 128.388 817.983 128.976 818.338 129.368C818.692 129.76 819.131 130.021 819.654 130.152C820.176 130.283 820.792 130.348 821.502 130.348ZM831.726 138.636V117.048H833.518L833.938 118.588C834.274 118.345 834.703 118.093 835.226 117.832C835.767 117.552 836.346 117.319 836.962 117.132C837.596 116.945 838.222 116.852 838.838 116.852C839.808 116.852 840.63 117.067 841.302 117.496C841.992 117.907 842.552 118.467 842.982 119.176C843.411 119.885 843.719 120.697 843.906 121.612C844.092 122.527 844.186 123.488 844.186 124.496C844.186 126.176 843.99 127.595 843.598 128.752C843.224 129.891 842.646 130.749 841.862 131.328C841.078 131.907 840.07 132.196 838.838 132.196C837.998 132.196 837.148 132.065 836.29 131.804C835.45 131.524 834.666 131.179 833.938 130.768V138.636H831.726ZM838.222 130.32C838.931 130.32 839.566 130.143 840.126 129.788C840.686 129.433 841.134 128.836 841.47 127.996C841.806 127.137 841.974 125.971 841.974 124.496C841.974 123.096 841.796 121.976 841.442 121.136C841.087 120.277 840.63 119.661 840.07 119.288C839.51 118.896 838.894 118.7 838.222 118.7C837.363 118.7 836.57 118.84 835.842 119.12C835.132 119.381 834.498 119.661 833.938 119.96V129.116C834.591 129.471 835.282 129.76 836.01 129.984C836.756 130.208 837.494 130.32 838.222 130.32ZM853.625 132.168C852.057 132.168 850.816 131.935 849.901 131.468C849.005 131.001 848.361 130.208 847.969 129.088C847.577 127.968 847.381 126.437 847.381 124.496C847.381 122.517 847.577 120.977 847.969 119.876C848.38 118.756 849.042 117.972 849.957 117.524C850.872 117.076 852.104 116.852 853.653 116.852C854.978 116.852 856.052 117.001 856.873 117.3C857.713 117.599 858.329 118.112 858.721 118.84C859.132 119.549 859.337 120.539 859.337 121.808C859.337 122.685 859.16 123.395 858.805 123.936C858.469 124.459 857.974 124.841 857.321 125.084C856.686 125.308 855.93 125.42 855.053 125.42H849.593C849.612 126.633 849.742 127.613 849.985 128.36C850.228 129.088 850.666 129.62 851.301 129.956C851.954 130.273 852.906 130.432 854.157 130.432H858.973V131.776C858.114 131.888 857.274 131.981 856.453 132.056C855.632 132.131 854.689 132.168 853.625 132.168ZM849.565 123.964H854.885C855.725 123.964 856.341 123.815 856.733 123.516C857.144 123.199 857.349 122.639 857.349 121.836C857.349 120.977 857.218 120.315 856.957 119.848C856.714 119.363 856.322 119.027 855.781 118.84C855.258 118.635 854.549 118.532 853.653 118.532C852.608 118.532 851.786 118.691 851.189 119.008C850.592 119.307 850.172 119.848 849.929 120.632C849.686 121.416 849.565 122.527 849.565 123.964ZM863.062 132V117.048H864.742L865.274 119.652C865.946 118.849 866.692 118.187 867.514 117.664C868.354 117.141 869.315 116.88 870.398 116.88C870.659 116.88 870.902 116.889 871.126 116.908C871.368 116.927 871.592 116.964 871.798 117.02V119.288C871.555 119.251 871.294 119.223 871.014 119.204C870.734 119.167 870.454 119.148 870.174 119.148C869.483 119.148 868.867 119.232 868.326 119.4C867.784 119.568 867.271 119.82 866.786 120.156C866.3 120.492 865.796 120.903 865.274 121.388V132H863.062ZM879.83 132C878.859 132 878.057 131.841 877.422 131.524C876.787 131.207 876.321 130.693 876.022 129.984C875.723 129.275 875.583 128.332 875.602 127.156L875.686 118.868H873.306V117.44L875.714 117.048L876.078 112.876H877.786V117.048H882.098V118.868H877.786V127.156C877.786 127.809 877.851 128.332 877.982 128.724C878.131 129.116 878.318 129.415 878.542 129.62C878.785 129.825 879.037 129.975 879.298 130.068C879.559 130.143 879.811 130.189 880.054 130.208L881.874 130.376V132H879.83ZM889.159 138.636L891.063 132C890.597 131.981 890.111 131.869 889.607 131.664C889.103 131.459 888.637 131.104 888.207 130.6C887.778 130.096 887.423 129.396 887.143 128.5L883.559 117.048H885.883L889.215 128.024C889.421 128.603 889.635 129.032 889.859 129.312C890.102 129.592 890.345 129.788 890.587 129.9C890.83 130.012 891.035 130.077 891.203 130.096C891.39 130.096 891.502 130.096 891.539 130.096L895.375 117.048H897.643L892.183 135.864L890.895 138.636H889.159ZM907.879 132V111.392H915.999C916.671 111.392 917.324 111.476 917.959 111.644C918.593 111.793 919.163 112.083 919.667 112.512C920.189 112.941 920.6 113.557 920.899 114.36C921.197 115.144 921.347 116.18 921.347 117.468C921.347 118.588 921.225 119.512 920.983 120.24C920.74 120.949 920.423 121.519 920.031 121.948C919.639 122.359 919.209 122.667 918.743 122.872C918.295 123.059 917.856 123.189 917.427 123.264L921.655 132H919.387L915.383 123.572C915.084 123.572 914.711 123.563 914.263 123.544C913.815 123.525 913.339 123.516 912.835 123.516C912.331 123.516 911.836 123.507 911.351 123.488C910.884 123.469 910.473 123.46 910.119 123.46V132H907.879ZM910.119 121.752H915.663C916.148 121.752 916.596 121.696 917.007 121.584C917.417 121.472 917.781 121.267 918.099 120.968C918.416 120.651 918.668 120.212 918.855 119.652C919.041 119.092 919.135 118.364 919.135 117.468C919.135 116.609 919.041 115.919 918.855 115.396C918.668 114.855 918.407 114.444 918.071 114.164C917.753 113.865 917.389 113.669 916.979 113.576C916.568 113.464 916.129 113.408 915.663 113.408H910.119V121.752ZM930.324 132.168C928.756 132.168 927.515 131.935 926.6 131.468C925.704 131.001 925.06 130.208 924.668 129.088C924.276 127.968 924.08 126.437 924.08 124.496C924.08 122.517 924.276 120.977 924.668 119.876C925.079 118.756 925.742 117.972 926.656 117.524C927.571 117.076 928.803 116.852 930.352 116.852C931.678 116.852 932.751 117.001 933.572 117.3C934.412 117.599 935.028 118.112 935.42 118.84C935.831 119.549 936.036 120.539 936.036 121.808C936.036 122.685 935.859 123.395 935.504 123.936C935.168 124.459 934.674 124.841 934.02 125.084C933.386 125.308 932.63 125.42 931.752 125.42H926.292C926.311 126.633 926.442 127.613 926.684 128.36C926.927 129.088 927.366 129.62 928 129.956C928.654 130.273 929.606 130.432 930.856 130.432H935.672V131.776C934.814 131.888 933.974 131.981 933.152 132.056C932.331 132.131 931.388 132.168 930.324 132.168ZM926.264 123.964H931.584C932.424 123.964 933.04 123.815 933.432 123.516C933.843 123.199 934.048 122.639 934.048 121.836C934.048 120.977 933.918 120.315 933.656 119.848C933.414 119.363 933.022 119.027 932.48 118.84C931.958 118.635 931.248 118.532 930.352 118.532C929.307 118.532 928.486 118.691 927.888 119.008C927.291 119.307 926.871 119.848 926.628 120.632C926.386 121.416 926.264 122.527 926.264 123.964ZM939.761 132V117.048H941.497L941.973 118.7C942.682 118.196 943.513 117.757 944.465 117.384C945.417 116.992 946.406 116.796 947.433 116.796C948.534 116.796 949.421 117.029 950.093 117.496C950.765 117.963 951.259 118.579 951.577 119.344C951.894 120.109 952.053 120.94 952.053 121.836V132H949.841V122.088C949.841 121.453 949.71 120.893 949.449 120.408C949.206 119.904 948.851 119.512 948.385 119.232C947.937 118.952 947.377 118.812 946.705 118.812C946.089 118.812 945.51 118.877 944.969 119.008C944.446 119.12 943.942 119.288 943.457 119.512C942.99 119.717 942.495 119.969 941.973 120.268V132H939.761ZM961.178 132C960.207 132 959.404 131.841 958.77 131.524C958.135 131.207 957.668 130.693 957.37 129.984C957.071 129.275 956.931 128.332 956.95 127.156L957.034 118.868H954.654V117.44L957.062 117.048L957.426 112.876H959.134V117.048H963.446V118.868H959.134V127.156C959.134 127.809 959.199 128.332 959.33 128.724C959.479 129.116 959.666 129.415 959.89 129.62C960.132 129.825 960.384 129.975 960.646 130.068C960.907 130.143 961.159 130.189 961.402 130.208L963.222 130.376V132H961.178ZM972.215 132.168C970.647 132.168 969.406 131.935 968.491 131.468C967.595 131.001 966.951 130.208 966.559 129.088C966.167 127.968 965.971 126.437 965.971 124.496C965.971 122.517 966.167 120.977 966.559 119.876C966.97 118.756 967.632 117.972 968.547 117.524C969.462 117.076 970.694 116.852 972.243 116.852C973.568 116.852 974.642 117.001 975.463 117.3C976.303 117.599 976.919 118.112 977.311 118.84C977.722 119.549 977.927 120.539 977.927 121.808C977.927 122.685 977.75 123.395 977.395 123.936C977.059 124.459 976.564 124.841 975.911 125.084C975.276 125.308 974.52 125.42 973.643 125.42H968.183C968.202 126.633 968.332 127.613 968.575 128.36C968.818 129.088 969.256 129.62 969.891 129.956C970.544 130.273 971.496 130.432 972.747 130.432H977.563V131.776C976.704 131.888 975.864 131.981 975.043 132.056C974.222 132.131 973.279 132.168 972.215 132.168ZM968.155 123.964H973.475C974.315 123.964 974.931 123.815 975.323 123.516C975.734 123.199 975.939 122.639 975.939 121.836C975.939 120.977 975.808 120.315 975.547 119.848C975.304 119.363 974.912 119.027 974.371 118.84C973.848 118.635 973.139 118.532 972.243 118.532C971.198 118.532 970.376 118.691 969.779 119.008C969.182 119.307 968.762 119.848 968.519 120.632C968.276 121.416 968.155 122.527 968.155 123.964ZM986.495 132.168C985.263 132.168 984.246 131.907 983.443 131.384C982.659 130.843 982.071 130.021 981.679 128.92C981.306 127.8 981.119 126.372 981.119 124.636C981.119 122.788 981.306 121.295 981.679 120.156C982.053 118.999 982.65 118.159 983.471 117.636C984.293 117.113 985.394 116.852 986.775 116.852C987.615 116.852 988.437 116.945 989.239 117.132C990.042 117.319 990.751 117.524 991.367 117.748V110.636H993.579V132H991.787L991.367 130.488C991.087 130.731 990.667 130.983 990.107 131.244C989.566 131.505 988.969 131.729 988.315 131.916C987.681 132.084 987.074 132.168 986.495 132.168ZM987.139 130.348C987.998 130.348 988.773 130.217 989.463 129.956C990.173 129.676 990.807 129.387 991.367 129.088V119.316C990.695 119.111 990.051 118.943 989.435 118.812C988.819 118.663 988.129 118.588 987.363 118.588C986.411 118.588 985.637 118.765 985.039 119.12C984.442 119.475 984.003 120.091 983.723 120.968C983.462 121.827 983.331 123.021 983.331 124.552C983.331 125.933 983.453 127.053 983.695 127.912C983.957 128.771 984.367 129.396 984.927 129.788C985.487 130.161 986.225 130.348 987.139 130.348Z" fill="#0D0E0F"/>
<line x1="1065.5" y1="0.5" x2="1065.5" y2="179.5" stroke="#098895"/>
<path d="M1179.13 83.24C1177.66 83.24 1176.12 83.176 1174.52 83.048C1172.92 82.92 1171.47 82.76 1170.16 82.568V77.912H1178.65C1181.18 77.912 1183.08 77.064 1184.36 75.368C1185.64 73.64 1186.28 71.08 1186.28 67.688C1185.48 67.848 1184.6 67.992 1183.64 68.12C1182.68 68.248 1181.69 68.328 1180.67 68.36C1179.68 68.392 1178.67 68.408 1177.64 68.408C1175.37 68.408 1173.53 68.12 1172.12 67.544C1170.72 66.936 1169.68 66.04 1169 64.856C1168.36 63.672 1168.04 62.216 1168.04 60.488V55.448C1168.04 53.496 1168.41 51.928 1169.15 50.744C1169.92 49.56 1170.94 48.696 1172.22 48.152C1173.53 47.608 1175 47.336 1176.64 47.336H1181.92C1183.55 47.336 1185 47.608 1186.28 48.152C1187.56 48.664 1188.64 49.576 1189.5 50.888C1190.4 52.168 1191.07 53.96 1191.52 56.264C1192 58.536 1192.24 61.432 1192.24 64.952C1192.24 68.312 1191.93 71.16 1191.32 73.496C1190.75 75.832 1189.88 77.72 1188.73 79.16C1187.61 80.6 1186.24 81.64 1184.6 82.28C1183 82.92 1181.18 83.24 1179.13 83.24ZM1179.23 63.32H1186.28C1186.28 61.208 1186.17 59.464 1185.95 58.088C1185.72 56.68 1185.37 55.592 1184.89 54.824C1184.44 54.024 1183.87 53.464 1183.16 53.144C1182.49 52.824 1181.69 52.664 1180.76 52.664H1177.93C1177.16 52.664 1176.48 52.792 1175.87 53.048C1175.29 53.272 1174.83 53.672 1174.48 54.248C1174.16 54.792 1174 55.576 1174 56.6V59.432C1174 60.488 1174.19 61.304 1174.57 61.88C1174.99 62.424 1175.58 62.808 1176.35 63.032C1177.12 63.224 1178.08 63.32 1179.23 63.32ZM1210.39 83.24C1208.38 83.24 1206.3 83.176 1204.15 83.048C1202.01 82.92 1200.03 82.76 1198.2 82.568V77.912H1210.63C1211.88 77.912 1212.91 77.704 1213.71 77.288C1214.51 76.872 1215.1 76.312 1215.48 75.608C1215.87 74.872 1216.06 74.088 1216.06 73.256V70.28C1216.06 68.968 1215.71 67.944 1215 67.208C1214.3 66.44 1213.16 66.056 1211.59 66.056H1208.47C1207.29 66.056 1206.36 66.312 1205.69 66.824C1205.05 67.336 1204.63 68.12 1204.44 69.176H1198.83L1199.83 47.576H1220.71V52.904H1204.97L1204.49 62.936C1204.94 62.36 1205.61 61.896 1206.51 61.544C1207.4 61.192 1208.46 61.016 1209.67 61.016H1213.66C1215.51 61.016 1217.05 61.384 1218.27 62.12C1219.51 62.824 1220.44 63.8 1221.05 65.048C1221.69 66.264 1222.01 67.656 1222.01 69.224V74.456C1222.01 76.472 1221.55 78.136 1220.62 79.448C1219.72 80.728 1218.41 81.688 1216.68 82.328C1214.95 82.936 1212.86 83.24 1210.39 83.24ZM1228.16 83.048C1227.56 83.048 1227.25 82.76 1227.25 82.184V77.624C1227.25 77.016 1227.56 76.712 1228.16 76.712H1231.57C1232.18 76.712 1232.48 77.016 1232.48 77.624V82.184C1232.48 82.504 1232.39 82.728 1232.2 82.856C1232.04 82.984 1231.83 83.048 1231.57 83.048H1228.16ZM1241.3 83L1252.48 53.48H1236.4V47.576H1258.48L1260.12 50.216L1247.97 83H1241.3ZM1271.77 83L1293.23 47.864H1297.16L1275.85 83H1271.77ZM1269.71 66.248C1267.37 66.248 1265.72 65.72 1264.76 64.664C1263.83 63.576 1263.37 62.008 1263.37 59.96V54.152C1263.37 52.104 1263.83 50.552 1264.76 49.496C1265.69 48.408 1267.37 47.864 1269.8 47.864H1274.65C1277.02 47.864 1278.67 48.408 1279.59 49.496C1280.55 50.552 1281.03 52.104 1281.03 54.152V59.96C1281.03 62.008 1280.55 63.576 1279.59 64.664C1278.67 65.72 1276.99 66.248 1274.55 66.248H1269.71ZM1270.43 62.408H1273.88C1275.13 62.408 1275.99 62.168 1276.47 61.688C1276.95 61.176 1277.19 60.312 1277.19 59.096V55.016C1277.19 53.736 1276.95 52.872 1276.47 52.424C1276.03 51.944 1275.19 51.704 1273.98 51.704H1270.52C1269.43 51.704 1268.6 51.912 1268.03 52.328C1267.48 52.744 1267.21 53.64 1267.21 55.016V59.096C1267.21 60.248 1267.43 61.096 1267.88 61.64C1268.36 62.152 1269.21 62.408 1270.43 62.408ZM1294.62 82.856C1292.28 82.856 1290.63 82.328 1289.67 81.272C1288.75 80.184 1288.28 78.616 1288.28 76.568V70.76C1288.28 68.712 1288.75 67.16 1289.67 66.104C1290.6 65.016 1292.28 64.472 1294.71 64.472H1299.61C1301.98 64.472 1303.63 65.016 1304.55 66.104C1305.51 67.16 1305.99 68.712 1305.99 70.76V76.568C1305.99 78.616 1305.51 80.184 1304.55 81.272C1303.63 82.328 1301.95 82.856 1299.51 82.856H1294.62ZM1295.34 79.016H1298.75C1300.03 79.016 1300.91 78.776 1301.39 78.296C1301.9 77.784 1302.15 76.92 1302.15 75.704V71.624C1302.15 70.344 1301.9 69.48 1301.39 69.032C1300.91 68.552 1300.06 68.312 1298.84 68.312H1295.43C1294.38 68.312 1293.56 68.52 1292.99 68.936C1292.41 69.352 1292.12 70.248 1292.12 71.624V75.704C1292.12 76.856 1292.35 77.704 1292.79 78.248C1293.27 78.76 1294.12 79.016 1295.34 79.016Z" fill="#098895"/>
<path d="M1142.01 132.168C1141.6 132.168 1141.1 132.149 1140.52 132.112C1139.96 132.093 1139.39 132.056 1138.79 132C1138.19 131.963 1137.62 131.916 1137.08 131.86C1136.56 131.804 1136.12 131.739 1135.76 131.664V129.956C1136.23 129.993 1136.8 130.031 1137.47 130.068C1138.14 130.105 1138.86 130.133 1139.63 130.152C1140.41 130.171 1141.18 130.18 1141.92 130.18C1142.76 130.18 1143.52 130.096 1144.19 129.928C1144.86 129.76 1145.4 129.452 1145.79 129.004C1146.2 128.556 1146.4 127.912 1146.4 127.072V125.672C1146.4 124.72 1146.16 124.001 1145.68 123.516C1145.19 123.012 1144.41 122.76 1143.32 122.76H1141.11C1139.41 122.76 1138.08 122.387 1137.11 121.64C1136.16 120.893 1135.68 119.605 1135.68 117.776V116.6C1135.68 114.659 1136.2 113.277 1137.25 112.456C1138.29 111.635 1139.77 111.224 1141.67 111.224C1142.27 111.224 1142.94 111.261 1143.69 111.336C1144.43 111.392 1145.15 111.467 1145.84 111.56C1146.55 111.635 1147.14 111.719 1147.61 111.812V113.52C1146.79 113.445 1145.85 113.38 1144.81 113.324C1143.78 113.268 1142.81 113.24 1141.9 113.24C1141.06 113.24 1140.33 113.343 1139.71 113.548C1139.1 113.735 1138.62 114.08 1138.28 114.584C1137.97 115.069 1137.81 115.769 1137.81 116.684V117.636C1137.81 118.775 1138.11 119.559 1138.7 119.988C1139.3 120.417 1140.13 120.632 1141.2 120.632H1143.58C1144.71 120.632 1145.65 120.837 1146.38 121.248C1147.1 121.659 1147.65 122.228 1148 122.956C1148.35 123.665 1148.53 124.487 1148.53 125.42V127.016C1148.53 128.397 1148.23 129.461 1147.64 130.208C1147.06 130.955 1146.27 131.468 1145.28 131.748C1144.31 132.028 1143.22 132.168 1142.01 132.168ZM1155.23 132.168C1154.13 132.168 1153.22 131.841 1152.51 131.188C1151.8 130.535 1151.45 129.611 1151.45 128.416V127.352C1151.45 126.176 1151.83 125.224 1152.6 124.496C1153.38 123.768 1154.56 123.404 1156.12 123.404H1161.19V121.556C1161.19 120.94 1161.08 120.417 1160.86 119.988C1160.65 119.54 1160.27 119.195 1159.71 118.952C1159.17 118.709 1158.37 118.588 1157.33 118.588H1152.68V117.272C1153.33 117.16 1154.09 117.057 1154.95 116.964C1155.82 116.871 1156.85 116.824 1158.03 116.824C1159.24 116.805 1160.25 116.955 1161.05 117.272C1161.85 117.589 1162.44 118.093 1162.82 118.784C1163.21 119.456 1163.4 120.343 1163.4 121.444V132H1161.7L1161.28 130.292C1161.2 130.367 1160.97 130.497 1160.58 130.684C1160.2 130.871 1159.72 131.085 1159.12 131.328C1158.54 131.552 1157.91 131.748 1157.22 131.916C1156.54 132.084 1155.88 132.168 1155.23 132.168ZM1156.15 130.516C1156.49 130.535 1156.87 130.497 1157.3 130.404C1157.73 130.311 1158.17 130.208 1158.62 130.096C1159.06 129.965 1159.47 129.835 1159.85 129.704C1160.24 129.573 1160.56 129.461 1160.8 129.368C1161.04 129.275 1161.17 129.228 1161.19 129.228V124.524L1156.63 124.72C1155.56 124.757 1154.8 125.019 1154.33 125.504C1153.88 125.989 1153.66 126.615 1153.66 127.38V128.052C1153.66 128.649 1153.78 129.135 1154.02 129.508C1154.28 129.863 1154.6 130.115 1154.98 130.264C1155.37 130.413 1155.76 130.497 1156.15 130.516ZM1172.53 132C1171.56 132 1170.76 131.841 1170.12 131.524C1169.49 131.207 1169.02 130.693 1168.72 129.984C1168.42 129.275 1168.28 128.332 1168.3 127.156L1168.39 118.868H1166.01V117.44L1168.41 117.048L1168.78 112.876H1170.49V117.048H1174.8V118.868H1170.49V127.156C1170.49 127.809 1170.55 128.332 1170.68 128.724C1170.83 129.116 1171.02 129.415 1171.24 129.62C1171.48 129.825 1171.74 129.975 1172 130.068C1172.26 130.143 1172.51 130.189 1172.75 130.208L1174.57 130.376V132H1172.53ZM1178.19 114.388C1177.89 114.388 1177.74 114.239 1177.74 113.94V111.756C1177.74 111.457 1177.89 111.308 1178.19 111.308H1179.76C1179.91 111.308 1180.01 111.355 1180.07 111.448C1180.14 111.523 1180.18 111.625 1180.18 111.756V113.94C1180.18 114.239 1180.04 114.388 1179.76 114.388H1178.19ZM1177.85 132V117.048H1180.07V132H1177.85ZM1189.49 132.168C1189.11 132.168 1188.66 132.159 1188.12 132.14C1187.57 132.121 1187 132.093 1186.41 132.056C1185.83 132.019 1185.3 131.981 1184.81 131.944C1184.34 131.888 1183.98 131.832 1183.72 131.776V130.432H1189.85C1190.47 130.432 1191 130.385 1191.45 130.292C1191.9 130.199 1192.24 129.993 1192.48 129.676C1192.74 129.359 1192.88 128.883 1192.88 128.248V127.576C1192.88 126.923 1192.66 126.419 1192.23 126.064C1191.8 125.691 1191.11 125.504 1190.16 125.504H1188.06C1187.18 125.504 1186.4 125.392 1185.71 125.168C1185.04 124.944 1184.51 124.561 1184.14 124.02C1183.77 123.479 1183.58 122.732 1183.58 121.78V120.996C1183.58 120.063 1183.76 119.297 1184.11 118.7C1184.48 118.103 1185.05 117.655 1185.82 117.356C1186.6 117.057 1187.61 116.908 1188.84 116.908C1189.37 116.908 1189.96 116.927 1190.64 116.964C1191.33 117.001 1192 117.057 1192.65 117.132C1193.3 117.188 1193.84 117.253 1194.25 117.328V118.672H1188.48C1187.53 118.672 1186.79 118.831 1186.27 119.148C1185.76 119.465 1185.51 120.081 1185.51 120.996V121.612C1185.51 122.191 1185.63 122.629 1185.88 122.928C1186.12 123.208 1186.45 123.395 1186.88 123.488C1187.33 123.581 1187.84 123.628 1188.42 123.628H1190.55C1191.91 123.628 1192.97 123.945 1193.72 124.58C1194.46 125.215 1194.84 126.129 1194.84 127.324V128.36C1194.84 129.368 1194.6 130.152 1194.14 130.712C1193.69 131.253 1193.06 131.636 1192.26 131.86C1191.48 132.065 1190.55 132.168 1189.49 132.168ZM1199.06 132V118.868H1196.77V117.44L1199.06 117.048V115.06C1199.06 114.033 1199.18 113.184 1199.43 112.512C1199.69 111.821 1200.12 111.308 1200.72 110.972C1201.33 110.636 1202.15 110.468 1203.18 110.468C1203.89 110.468 1204.5 110.515 1205 110.608C1205.5 110.683 1205.95 110.776 1206.34 110.888V112.456C1205.95 112.419 1205.53 112.391 1205.08 112.372C1204.65 112.335 1204.23 112.316 1203.82 112.316C1203.13 112.316 1202.6 112.428 1202.23 112.652C1201.87 112.876 1201.62 113.212 1201.47 113.66C1201.34 114.108 1201.28 114.668 1201.28 115.34V117.048H1210.12V118.868H1201.28V132H1199.06ZM1209.06 132V117.048H1211.27V132H1209.06ZM1209.4 114.388C1209.1 114.388 1208.95 114.239 1208.95 113.94V111.756C1208.95 111.457 1209.1 111.308 1209.4 111.308H1210.99C1211.12 111.308 1211.22 111.355 1211.27 111.448C1211.35 111.523 1211.38 111.625 1211.38 111.756V113.94C1211.38 114.239 1211.25 114.388 1210.99 114.388H1209.4ZM1221.25 132.168C1219.68 132.168 1218.44 131.935 1217.52 131.468C1216.63 131.001 1215.98 130.208 1215.59 129.088C1215.2 127.968 1215 126.437 1215 124.496C1215 122.517 1215.2 120.977 1215.59 119.876C1216 118.756 1216.66 117.972 1217.58 117.524C1218.49 117.076 1219.72 116.852 1221.27 116.852C1222.6 116.852 1223.67 117.001 1224.49 117.3C1225.33 117.599 1225.95 118.112 1226.34 118.84C1226.75 119.549 1226.96 120.539 1226.96 121.808C1226.96 122.685 1226.78 123.395 1226.43 123.936C1226.09 124.459 1225.6 124.841 1224.94 125.084C1224.31 125.308 1223.55 125.42 1222.67 125.42H1217.21C1217.23 126.633 1217.36 127.613 1217.61 128.36C1217.85 129.088 1218.29 129.62 1218.92 129.956C1219.58 130.273 1220.53 130.432 1221.78 130.432H1226.59V131.776C1225.74 131.888 1224.9 131.981 1224.07 132.056C1223.25 132.131 1222.31 132.168 1221.25 132.168ZM1217.19 123.964H1222.51C1223.35 123.964 1223.96 123.815 1224.35 123.516C1224.76 123.199 1224.97 122.639 1224.97 121.836C1224.97 120.977 1224.84 120.315 1224.58 119.848C1224.34 119.363 1223.94 119.027 1223.4 118.84C1222.88 118.635 1222.17 118.532 1221.27 118.532C1220.23 118.532 1219.41 118.691 1218.81 119.008C1218.21 119.307 1217.79 119.848 1217.55 120.632C1217.31 121.416 1217.19 122.527 1217.19 123.964ZM1235.53 132.168C1234.29 132.168 1233.28 131.907 1232.47 131.384C1231.69 130.843 1231.1 130.021 1230.71 128.92C1230.34 127.8 1230.15 126.372 1230.15 124.636C1230.15 122.788 1230.34 121.295 1230.71 120.156C1231.08 118.999 1231.68 118.159 1232.5 117.636C1233.32 117.113 1234.43 116.852 1235.81 116.852C1236.65 116.852 1237.47 116.945 1238.27 117.132C1239.07 117.319 1239.78 117.524 1240.4 117.748V110.636H1242.61V132H1240.82L1240.4 130.488C1240.12 130.731 1239.7 130.983 1239.14 131.244C1238.6 131.505 1238 131.729 1237.35 131.916C1236.71 132.084 1236.11 132.168 1235.53 132.168ZM1236.17 130.348C1237.03 130.348 1237.8 130.217 1238.49 129.956C1239.2 129.676 1239.84 129.387 1240.4 129.088V119.316C1239.73 119.111 1239.08 118.943 1238.47 118.812C1237.85 118.663 1237.16 118.588 1236.39 118.588C1235.44 118.588 1234.67 118.765 1234.07 119.12C1233.47 119.475 1233.03 120.091 1232.75 120.968C1232.49 121.827 1232.36 123.021 1232.36 124.552C1232.36 125.933 1232.48 127.053 1232.73 127.912C1232.99 128.771 1233.4 129.396 1233.96 129.788C1234.52 130.161 1235.26 130.348 1236.17 130.348ZM1261.11 132.168C1259.88 132.168 1258.81 132.028 1257.89 131.748C1256.98 131.468 1256.22 130.964 1255.62 130.236C1255.03 129.489 1254.58 128.425 1254.28 127.044C1254 125.663 1253.86 123.861 1253.86 121.64C1253.86 119.549 1254.01 117.832 1254.31 116.488C1254.61 115.125 1255.05 114.061 1255.65 113.296C1256.27 112.531 1257.04 111.999 1257.98 111.7C1258.91 111.383 1260.01 111.224 1261.28 111.224C1261.86 111.224 1262.5 111.261 1263.21 111.336C1263.92 111.411 1264.62 111.504 1265.31 111.616C1266 111.709 1266.63 111.831 1267.19 111.98V113.632C1266.87 113.576 1266.42 113.52 1265.84 113.464C1265.26 113.408 1264.6 113.361 1263.86 113.324C1263.13 113.268 1262.38 113.24 1261.62 113.24C1260.63 113.24 1259.78 113.352 1259.07 113.576C1258.36 113.8 1257.78 114.22 1257.33 114.836C1256.9 115.433 1256.58 116.283 1256.38 117.384C1256.17 118.485 1256.07 119.913 1256.07 121.668C1256.07 123.441 1256.16 124.897 1256.35 126.036C1256.56 127.156 1256.87 128.015 1257.3 128.612C1257.73 129.209 1258.29 129.62 1258.98 129.844C1259.67 130.068 1260.53 130.18 1261.56 130.18C1262.96 130.18 1264.11 130.143 1265 130.068C1265.9 129.993 1266.63 129.909 1267.19 129.816V131.496C1266.63 131.627 1266 131.748 1265.31 131.86C1264.64 131.953 1263.94 132.028 1263.21 132.084C1262.5 132.14 1261.8 132.168 1261.11 132.168ZM1274.52 132.028C1273.67 132.028 1272.95 131.879 1272.37 131.58C1271.79 131.263 1271.35 130.759 1271.05 130.068C1270.75 129.359 1270.6 128.407 1270.6 127.212V110.636H1272.82V126.932C1272.82 127.828 1272.9 128.509 1273.07 128.976C1273.24 129.424 1273.48 129.741 1273.8 129.928C1274.11 130.096 1274.49 130.208 1274.92 130.264L1276.43 130.432V132.028H1274.52ZM1279.17 114.388C1278.87 114.388 1278.72 114.239 1278.72 113.94V111.756C1278.72 111.457 1278.87 111.308 1279.17 111.308H1280.74C1280.89 111.308 1280.99 111.355 1281.05 111.448C1281.12 111.523 1281.16 111.625 1281.16 111.756V113.94C1281.16 114.239 1281.02 114.388 1280.74 114.388H1279.17ZM1278.84 132V117.048H1281.05V132H1278.84ZM1291.03 132.168C1289.46 132.168 1288.22 131.935 1287.3 131.468C1286.41 131.001 1285.76 130.208 1285.37 129.088C1284.98 127.968 1284.78 126.437 1284.78 124.496C1284.78 122.517 1284.98 120.977 1285.37 119.876C1285.78 118.756 1286.44 117.972 1287.36 117.524C1288.27 117.076 1289.51 116.852 1291.06 116.852C1292.38 116.852 1293.45 117.001 1294.28 117.3C1295.12 117.599 1295.73 118.112 1296.12 118.84C1296.53 119.549 1296.74 120.539 1296.74 121.808C1296.74 122.685 1296.56 123.395 1296.21 123.936C1295.87 124.459 1295.38 124.841 1294.72 125.084C1294.09 125.308 1293.33 125.42 1292.46 125.42H1287C1287.01 126.633 1287.14 127.613 1287.39 128.36C1287.63 129.088 1288.07 129.62 1288.7 129.956C1289.36 130.273 1290.31 130.432 1291.56 130.432H1296.38V131.776C1295.52 131.888 1294.68 131.981 1293.86 132.056C1293.03 132.131 1292.09 132.168 1291.03 132.168ZM1286.97 123.964H1292.29C1293.13 123.964 1293.74 123.815 1294.14 123.516C1294.55 123.199 1294.75 122.639 1294.75 121.836C1294.75 120.977 1294.62 120.315 1294.36 119.848C1294.12 119.363 1293.72 119.027 1293.18 118.84C1292.66 118.635 1291.95 118.532 1291.06 118.532C1290.01 118.532 1289.19 118.691 1288.59 119.008C1287.99 119.307 1287.57 119.848 1287.33 120.632C1287.09 121.416 1286.97 122.527 1286.97 123.964ZM1300.46 132V117.048H1302.2L1302.68 118.7C1303.39 118.196 1304.22 117.757 1305.17 117.384C1306.12 116.992 1307.11 116.796 1308.14 116.796C1309.24 116.796 1310.12 117.029 1310.8 117.496C1311.47 117.963 1311.96 118.579 1312.28 119.344C1312.6 120.109 1312.76 120.94 1312.76 121.836V132H1310.54V122.088C1310.54 121.453 1310.41 120.893 1310.15 120.408C1309.91 119.904 1309.55 119.512 1309.09 119.232C1308.64 118.952 1308.08 118.812 1307.41 118.812C1306.79 118.812 1306.21 118.877 1305.67 119.008C1305.15 119.12 1304.65 119.288 1304.16 119.512C1303.69 119.717 1303.2 119.969 1302.68 120.268V132H1300.46ZM1321.88 132C1320.91 132 1320.11 131.841 1319.47 131.524C1318.84 131.207 1318.37 130.693 1318.07 129.984C1317.77 129.275 1317.63 128.332 1317.65 127.156L1317.74 118.868H1315.36V117.44L1317.76 117.048L1318.13 112.876H1319.84V117.048H1324.15V118.868H1319.84V127.156C1319.84 127.809 1319.9 128.332 1320.03 128.724C1320.18 129.116 1320.37 129.415 1320.59 129.62C1320.84 129.825 1321.09 129.975 1321.35 130.068C1321.61 130.143 1321.86 130.189 1322.1 130.208L1323.92 130.376V132H1321.88ZM1332.36 132.168C1331.98 132.168 1331.53 132.159 1330.99 132.14C1330.44 132.121 1329.88 132.093 1329.28 132.056C1328.7 132.019 1328.17 131.981 1327.68 131.944C1327.22 131.888 1326.85 131.832 1326.59 131.776V130.432H1332.72C1333.34 130.432 1333.87 130.385 1334.32 130.292C1334.77 130.199 1335.11 129.993 1335.35 129.676C1335.62 129.359 1335.75 128.883 1335.75 128.248V127.576C1335.75 126.923 1335.53 126.419 1335.1 126.064C1334.67 125.691 1333.98 125.504 1333.03 125.504H1330.93C1330.05 125.504 1329.27 125.392 1328.58 125.168C1327.91 124.944 1327.38 124.561 1327.01 124.02C1326.64 123.479 1326.45 122.732 1326.45 121.78V120.996C1326.45 120.063 1326.63 119.297 1326.98 118.7C1327.36 118.103 1327.92 117.655 1328.69 117.356C1329.47 117.057 1330.48 116.908 1331.71 116.908C1332.24 116.908 1332.83 116.927 1333.51 116.964C1334.2 117.001 1334.87 117.057 1335.52 117.132C1336.18 117.188 1336.71 117.253 1337.12 117.328V118.672H1331.35C1330.4 118.672 1329.66 118.831 1329.14 119.148C1328.63 119.465 1328.38 120.081 1328.38 120.996V121.612C1328.38 122.191 1328.5 122.629 1328.75 122.928C1328.99 123.208 1329.32 123.395 1329.75 123.488C1330.2 123.581 1330.72 123.628 1331.29 123.628H1333.42C1334.78 123.628 1335.84 123.945 1336.59 124.58C1337.33 125.215 1337.71 126.129 1337.71 127.324V128.36C1337.71 129.368 1337.47 130.152 1337.01 130.712C1336.56 131.253 1335.93 131.636 1335.13 131.86C1334.35 132.065 1333.42 132.168 1332.36 132.168Z" fill="#0D0E0F"/>
</svg>
